Hack-Italic.ufo
<glyph name="quotedbl" format="1">
  <advance width="1233"/>
  <unicode hex="0022"/>
  <outline>
    <contour>
      <point x="392" y="1493" type="line" name="sh01"/>
      <point x="566" y="1493" type="line" name="sh02"/>
      <point x="458" y="938" type="line" name="av01"/>
      <point x="284" y="938" type="line"/>
    </contour>
    <contour>
      <point x="775" y="1493" type="line" name="ah01"/>
      <point x="949" y="1493" type="line" name="sh03"/>
      <point x="841" y="938" type="line" name="av02"/>
      <point x="667" y="938" type="line"/>
    </contour>
  </outline>
</glyph>
<glyph name="quotesingle" format="1">
  <advance width="1233"/>
  <unicode hex="0027"/>
  <outline>
    <contour>
      <point x="582" y="1493" type="line" name="dh01"/>
      <point x="756" y="1493" type="line" name="dh02"/>
      <point x="648" y="938" type="line" name="av01"/>
      <point x="474" y="938" type="line"/>
    </contour>
  </outline>
</glyph>
<glyph name="parenleft" format="1">
  <advance width="1233"/>
  <unicode hex="0028"/>
  <outline>
    <contour>
      <point x="426" y="-270" type="line" name="av01"/>
      <point x="373" y="-143"/>
      <point x="335" y="-29" name="dh01"/>
      <point x="310" y="76" type="curve" smooth="yes"/>
      <point x="285" y="181" name="at01"/>
      <point x="273" y="277"/>
      <point x="273" y="381" type="curve" smooth="yes"/>
      <point x="273" y="576" name="dh02"/>
      <point x="315" y="777"/>
      <point x="402" y="978" type="curve" smooth="yes" name="av02"/>
      <point x="486" y="1174"/>
      <point x="612" y="1366"/>
      <point x="783" y="1554" type="curve"/>
      <point x="942" y="1554" type="line"/>
      <point x="785" y="1351"/>
      <point x="668" y="1156"/>
      <point x="587" y="948" type="curve" smooth="yes"/>
      <point x="507" y="744"/>
      <point x="467" y="541"/>
      <point x="467" y="340" type="curve" smooth="yes"/>
      <point x="467" y="235"/>
      <point x="478" y="142"/>
      <point x="497" y="43" type="curve" smooth="yes"/>
      <point x="518" y="-65"/>
      <point x="546" y="-162"/>
      <point x="586" y="-270" type="curve"/>
    </contour>
  </outline>
</glyph>
<glyph name="asterisk" format="1">
  <advance width="1233"/>
  <unicode hex="002A"/>
  <outline>
    <contour>
      <point x="174" y="563" type="line" name="hr00"/>
      <point x="482" y="881" type="line"/>
      <point x="155" y="1106" type="line"/>
      <point x="210" y="1200" type="line"/>
      <point x="556" y="1008" type="line" name="iv01"/>
      <point x="656" y="1421" type="line" name="at01"/>
      <point x="763" y="1401" type="line"/>
      <point x="701" y="979" type="line" name="iv02"/>
      <point x="1094" y="1028" type="line"/>
      <point x="1109" y="921" type="line"/>
      <point x="722" y="835" type="line"/>
      <point x="889" y="425" type="line"/>
      <point x="784" y="377" type="line" name="av01"/>
      <point x="587" y="779" type="line" name="iv03"/>
      <point x="253" y="480" type="line" name="av02"/>
    </contour>
  </outline>
</glyph>
<glyph name="plus" format="1">
  <advance width="1233"/>
  <unicode hex="002B"/>
  <outline>
    <contour>
      <point x="515" y="557" type="line" name="dh01"/>
      <point x="71" y="557" type="line"/>
      <point x="105" y="727" type="line"/>
      <point x="549" y="727" type="line" name="sh01"/>
      <point x="635" y="1171" type="line" name="av02"/>
      <point x="803" y="1171" type="line" name="sh02"/>
      <point x="717" y="727" type="line" name="sv01"/>
      <point x="1162" y="727" type="line"/>
      <point x="1128" y="557" type="line" name="sv02"/>
      <point x="683" y="557" type="line" name="dh02"/>
      <point x="597" y="113" type="line" name="av01"/>
      <point x="429" y="113" type="line"/>
    </contour>
  </outline>
</glyph>
<glyph name="comma" format="1">
  <advance width="1233"/>
  <unicode hex="002C"/>
  <outline>
    <contour>
      <point x="349" y="-283" type="line" name="hr00"/>
      <point x="526" y="-210" name="sh01"/>
      <point x="631" y="-99" name="dv01"/>
      <point x="666" y="51" type="curve"/>
      <point x="649" y="48" name="dh01"/>
      <point x="637" y="47"/>
      <point x="625" y="47" type="curve" name="dv02" smooth="yes"/>
      <point x="582" y="47"/>
      <point x="546" y="59" name="dh02"/>
      <point x="522" y="86" type="curve" smooth="yes"/>
      <point x="498" y="112" name="av01"/>
      <point x="491" y="149"/>
      <point x="500" y="197" type="curve" smooth="yes"/>
      <point x="509" y="244"/>
      <point x="531" y="281"/>
      <point x="568" y="308" type="curve" smooth="yes"/>
      <point x="599" y="332"/>
      <point x="640" y="349"/>
      <point x="691" y="349" type="curve" smooth="yes"/>
      <point x="748" y="349"/>
      <point x="788" y="326"/>
      <point x="810" y="281" type="curve" smooth="yes"/>
      <point x="833" y="236"/>
      <point x="836" y="174"/>
      <point x="820" y="93" type="curve" smooth="yes"/>
      <point x="798" y="-21"/>
      <point x="748" y="-119"/>
      <point x="670" y="-202" type="curve" smooth="yes"/>
      <point x="593" y="-284"/>
      <point x="494" y="-346"/>
      <point x="374" y="-387" type="curve"/>
    </contour>
  </outline>
</glyph>
<glyph name="hyphen" format="1">
  <advance width="1233"/>
  <unicode hex="002D"/>
  <outline>
    <contour>
      <point x="226" y="683" type="line" name="hr00"/>
      <point x="1048" y="683" type="line" name="dv02"/>
      <point x="1015" y="519" type="line" name="dv01"/>
      <point x="193" y="519" type="line"/>
    </contour>
  </outline>
</glyph>
<glyph name="less" format="1">
  <advance width="1233"/>
  <unicode hex="003C"/>
  <outline>
    <contour>
      <point x="72" y="559" type="line" name="hr00"/>
      <point x="104" y="725" type="line"/>
      <point x="1242" y="1143" type="line" name="at01"/>
      <point x="1207" y="961" type="line"/>
      <point x="295" y="641" type="line" name="iv01"/>
      <point x="1083" y="324" type="line"/>
      <point x="1048" y="141" type="line" name="av01"/>
    </contour>
  </outline>
</glyph>
<glyph name="equal" format="1">
  <advance width="1233"/>
  <unicode hex="003D"/>
  <outline>
    <contour>
      <point x="144" y="930" type="line" name="hr00"/>
      <point x="1201" y="930" type="line" name="dv04"/>
      <point x="1168" y="760" type="line" name="dv03"/>
      <point x="111" y="760" type="line"/>
    </contour>
    <contour>
      <point x="65" y="524" type="line"/>
      <point x="1122" y="524" type="line" name="dv02"/>
      <point x="1089" y="352" type="line" name="dv01"/>
      <point x="32" y="352" type="line"/>
    </contour>
  </outline>
</glyph>
<glyph name="greater" format="1">
  <advance width="1233"/>
  <unicode hex="003E"/>
  <outline>
    <contour>
      <point x="26" y="324" type="line" name="hr00"/>
      <point x="938" y="641" type="line" name="iv01"/>
      <point x="150" y="961" type="line"/>
      <point x="185" y="1143" type="line" name="at01"/>
      <point x="1161" y="725" type="line"/>
      <point x="1129" y="559" type="line"/>
      <point x="-9" y="141" type="line" name="av01"/>
    </contour>
  </outline>
</glyph>
<glyph name="B" format="1">
  <advance width="1233"/>
  <unicode hex="0042"/>
  <outline>
    <contour>
      <point x="313" y="1493" type="line" name="at01"/>
      <point x="756" y="1493" type="line" smooth="yes"/>
      <point x="892" y="1493"/>
      <point x="994" y="1467" name="sh01"/>
      <point x="1063" y="1414" type="curve" smooth="yes"/>
      <point x="1132" y="1361" name="iv01"/>
      <point x="1167" y="1285"/>
      <point x="1167" y="1178" type="curve" smooth="yes" name="dh02"/>
      <point x="1167" y="1077"/>
      <point x="1136" y="992" name="ab01"/>
      <point x="1075" y="923" type="curve" smooth="yes"/>
      <point x="1014" y="853" name="dv02"/>
      <point x="931" y="812"/>
      <point x="827" y="799" type="curve" name="ih01"/>
      <point x="910" y="784"/>
      <point x="974" y="750" name="sv01"/>
      <point x="1019" y="697" type="curve" smooth="yes"/>
      <point x="1064" y="644"/>
      <point x="1085" y="578" name="sv02"/>
      <point x="1085" y="486" type="curve" smooth="yes"/>
      <point x="1085" y="341" name="dh01"/>
      <point x="1033" y="218"/>
      <point x="926" y="130" type="curve" smooth="yes" name="dv01"/>
      <point x="820" y="43"/>
      <point x="670" y="0"/>
      <point x="475" y="0" type="curve" smooth="yes"/>
      <point x="23" y="0" type="line" name="sh02"/>
    </contour>
    <contour>
      <point x="639" y="877" type="line" smooth="yes"/>
      <point x="740" y="877"/>
      <point x="820" y="901"/>
      <point x="877" y="950" type="curve" smooth="yes"/>
      <point x="934" y="998"/>
      <point x="963" y="1064"/>
      <point x="963" y="1148" type="curve" smooth="yes"/>
      <point x="963" y="1211"/>
      <point x="945" y="1257"/>
      <point x="908" y="1285" type="curve" smooth="yes"/>
      <point x="871" y="1313"/>
      <point x="810" y="1327"/>
      <point x="727" y="1327" type="curve" smooth="yes"/>
      <point x="483" y="1327" type="line"/>
      <point x="395" y="877" type="line"/>
    </contour>
    <contour>
      <point x="506" y="166" type="line" smooth="yes"/>
      <point x="629" y="166"/>
      <point x="723" y="195"/>
      <point x="788" y="253" type="curve" smooth="yes"/>
      <point x="853" y="312"/>
      <point x="885" y="399"/>
      <point x="885" y="496" type="curve" smooth="yes"/>
      <point x="885" y="580"/>
      <point x="862" y="627"/>
      <point x="817" y="662" type="curve" smooth="yes"/>
      <point x="772" y="696"/>
      <point x="701" y="713"/>
      <point x="606" y="713" type="curve" smooth="yes"/>
      <point x="365" y="713" type="line"/>
      <point x="258" y="166" type="line"/>
    </contour>
  </outline>
</glyph>
<glyph name="P" format="1">
  <advance width="1233"/>
  <unicode hex="0050"/>
  <outline>
    <contour>
      <point x="321" y="1493" type="line" name="at01"/>
      <point x="761" y="1493" type="line" smooth="yes"/>
      <point x="898" y="1493"/>
      <point x="1004" y="1461" name="dh02"/>
      <point x="1076" y="1401" type="curve" smooth="yes"/>
      <point x="1148" y="1341" name="dv01"/>
      <point x="1183" y="1253"/>
      <point x="1183" y="1126" type="curve" smooth="yes" name="ab01"/>
      <point x="1183" y="966"/>
      <point x="1127" y="835" name="dv02"/>
      <point x="1023" y="743" type="curve" smooth="yes"/>
      <point x="919" y="651" name="dh01"/>
      <point x="776" y="600"/>
      <point x="583" y="600" type="curve" smooth="yes" name="sv01"/>
      <point x="350" y="600" type="line"/>
      <point x="233" y="0" type="line"/>
      <point x="30" y="0" type="line"/>
    </contour>
    <contour>
      <point x="616" y="766" type="line" smooth="yes" name="sh01"/>
      <point x="726" y="766"/>
      <point x="814" y="798"/>
      <point x="880" y="862" type="curve" smooth="yes"/>
      <point x="945" y="926"/>
      <point x="978" y="1012"/>
      <point x="978" y="1111" type="curve" smooth="yes"/>
      <point x="978" y="1182"/>
      <point x="961" y="1239"/>
      <point x="916" y="1276" type="curve" smooth="yes"/>
      <point x="875" y="1310"/>
      <point x="811" y="1327"/>
      <point x="724" y="1327" type="curve" smooth="yes"/>
      <point x="491" y="1327" type="line"/>
      <point x="382" y="766" type="line"/>
    </contour>
  </outline>
</glyph>
<glyph name="Q" format="1">
  <advance width="1233"/>
  <unicode hex="0051"/>
  <outline>
    <contour>
      <point x="504" y="-27" type="line" name="ab01"/>
      <point x="494" y="-27" type="line" smooth="yes"/>
      <point x="346" y="-27"/>
      <point x="248" y="13" name="sh01"/>
      <point x="181" y="93" type="curve" smooth="yes"/>
      <point x="114" y="173"/>
      <point x="82" y="293"/>
      <point x="82" y="472" type="curve" smooth="yes"/>
      <point x="82" y="560"/>
      <point x="89" y="628" name="at01"/>
      <point x="104" y="712" type="curve"/>
      <point x="117" y="794" name="sh02"/>
      <point x="134" y="866" name="sh03"/>
      <point x="168" y="975" type="curve" smooth="yes"/>
      <point x="189" y="1042"/>
      <point x="208" y="1090"/>
      <point x="231" y="1141" type="curve" smooth="yes"/>
      <point x="249" y="1180" name="ih01"/>
      <point x="279" y="1237" name="ih02"/>
      <point x="303" y="1272" type="curve" smooth="yes"/>
      <point x="354" y="1348" name="sv01"/>
      <point x="422" y="1417"/>
      <point x="501" y="1460" type="curve" smooth="yes"/>
      <point x="576" y="1501"/>
      <point x="657" y="1520" name="ah02"/>
      <point x="753" y="1520" type="curve" smooth="yes"/>
      <point x="889" y="1520" name="sv02"/>
      <point x="987" y="1481"/>
      <point x="1054" y="1397" type="curve" smooth="yes"/>
      <point x="1118" y="1317"/>
      <point x="1151" y="1196" name="sh04"/>
      <point x="1151" y="1029" type="curve" smooth="yes"/>
      <point x="1151" y="965"/>
      <point x="1146" y="902" name="ah01"/>
      <point x="1137" y="839" type="curve" smooth="yes" name="sh05"/>
      <point x="1128" y="776"/>
      <point x="1113" y="704"/>
      <point x="1094" y="629" type="curve" smooth="yes"/>
      <point x="1075" y="558"/>
      <point x="1052" y="482"/>
      <point x="1032" y="427" type="curve" smooth="yes"/>
      <point x="1011" y="370"/>
      <point x="986" y="315"/>
      <point x="963" y="274" type="curve" smooth="yes"/>
      <point x="934" y="222"/>
      <point x="894" y="163"/>
      <point x="839" y="111" type="curve" smooth="yes"/>
      <point x="798" y="71"/>
      <point x="747" y="33"/>
      <point x="690" y="10" type="curve"/>
      <point x="926" y="-270" type="line"/>
      <point x="690" y="-270" type="line"/>
    </contour>
    <contour>
      <point x="498" y="135" type="curve" smooth="yes"/>
      <point x="555" y="135"/>
      <point x="611" y="151"/>
      <point x="660" y="186" type="curve" smooth="yes"/>
      <point x="713" y="225"/>
      <point x="750" y="278"/>
      <point x="778" y="331" type="curve" smooth="yes"/>
      <point x="829" y="427"/>
      <point x="871" y="565"/>
      <point x="898" y="684" type="curve" smooth="yes"/>
      <point x="929" y="821"/>
      <point x="944" y="959"/>
      <point x="944" y="1067" type="curve" smooth="yes"/>
      <point x="944" y="1182"/>
      <point x="927" y="1245"/>
      <point x="892" y="1289" type="curve" smooth="yes"/>
      <point x="857" y="1332"/>
      <point x="805" y="1356"/>
      <point x="734" y="1356" type="curve" smooth="yes"/>
      <point x="675" y="1356"/>
      <point x="620" y="1340"/>
      <point x="572" y="1305" type="curve" smooth="yes"/>
      <point x="525" y="1270"/>
      <point x="486" y="1220"/>
      <point x="455" y="1160" type="curve" smooth="yes"/>
      <point x="408" y="1072"/>
      <point x="364" y="945"/>
      <point x="333" y="808" type="curve" smooth="yes"/>
      <point x="302" y="675"/>
      <point x="287" y="541"/>
      <point x="287" y="429" type="curve" smooth="yes"/>
      <point x="287" y="311"/>
      <point x="305" y="248"/>
      <point x="340" y="203" type="curve" smooth="yes"/>
      <point x="379" y="155"/>
      <point x="434" y="135"/>
    </contour>
  </outline>
</glyph>
<glyph name="R" format="1">
  <advance width="1233"/>
  <unicode hex="0052"/>
  <outline>
    <contour>
      <point x="281" y="1493" type="line" name="at01"/>
      <point x="697" y="1493" type="line" smooth="yes"/>
      <point x="834" y="1493"/>
      <point x="941" y="1463" name="dh02"/>
      <point x="1018" y="1404" type="curve" smooth="yes"/>
      <point x="1097" y="1343" name="iv01"/>
      <point x="1131" y="1257"/>
      <point x="1131" y="1144" type="curve" smooth="yes"/>
      <point x="1131" y="1032" name="ih01"/>
      <point x="1097" y="928"/>
      <point x="1028" y="848" type="curve" smooth="yes"/>
      <point x="960" y="769"/>
      <point x="867" y="720" name="dv01"/>
      <point x="746" y="705" type="curve"/>
      <point x="791" y="697" name="ab01"/>
      <point x="834" y="673"/>
      <point x="862" y="638" type="curve" smooth="yes" name="dv02"/>
      <point x="889" y="605"/>
      <point x="922" y="533" name="dh01"/>
      <point x="959" y="408" type="curve" smooth="yes"/>
      <point x="1080" y="0" type="line" name="sv01"/>
      <point x="879" y="0" type="line"/>
      <point x="773" y="377" type="line" smooth="yes"/>
      <point x="744" y="480"/>
      <point x="711" y="549" name="sh01"/>
      <point x="675" y="582" type="curve" smooth="yes"/>
      <point x="638" y="617"/>
      <point x="579" y="631"/>
      <point x="510" y="631" type="curve" smooth="yes"/>
      <point x="318" y="631" type="line"/>
      <point x="195" y="0" type="line"/>
      <point x="-8" y="0" type="line"/>
    </contour>
    <contour>
      <point x="570" y="797" type="line" smooth="yes"/>
      <point x="679" y="797"/>
      <point x="766" y="826"/>
      <point x="831" y="883" type="curve" smooth="yes"/>
      <point x="896" y="940"/>
      <point x="928" y="1015"/>
      <point x="928" y="1109" type="curve" smooth="yes"/>
      <point x="928" y="1184"/>
      <point x="907" y="1240"/>
      <point x="865" y="1275" type="curve" smooth="yes"/>
      <point x="824" y="1310"/>
      <point x="757" y="1327"/>
      <point x="666" y="1327" type="curve" smooth="yes"/>
      <point x="453" y="1327" type="line"/>
      <point x="351" y="797" type="line"/>
    </contour>
  </outline>
</glyph>
<glyph name="backslash" format="1">
  <advance width="1233"/>
  <unicode hex="005C"/>
  <outline>
    <contour>
      <point x="356" y="1493" type="line" name="at01"/>
      <point x="526" y="1493" type="line"/>
      <point x="725" y="-190" type="line" name="av01"/>
      <point x="555" y="-190" type="line"/>
    </contour>
  </outline>
</glyph>
<glyph name="asciicircum" format="1">
  <advance width="1233"/>
  <unicode hex="005E"/>
  <outline>
    <contour>
      <point x="582" y="1493" type="line" name="at01"/>
      <point x="759" y="1493" type="line"/>
      <point x="1107" y="936" type="line" name="av01"/>
      <point x="929" y="936" type="line"/>
      <point x="639" y="1331" type="line"/>
      <point x="196" y="936" type="line" name="av02"/>
      <point x="18" y="936" type="line"/>
    </contour>
  </outline>
</glyph>
<glyph name="underscore" format="1">
  <advance width="1233"/>
  <unicode hex="005F"/>
  <outline>
    <contour>
      <point x="106" y="-190" type="line" name="hr00"/>
      <point x="1150" y="-190" type="line"/>
      <point x="1126" y="-310" type="line"/>
      <point x="82" y="-310" type="line"/>
    </contour>
  </outline>
</glyph>
<glyph name="b" format="1">
  <advance width="1233"/>
  <unicode hex="0062"/>
  <outline>
    <contour>
      <point x="535" y="-29" type="curve" smooth="yes" name="dv01"/>
      <point x="470" y="-29" name="ab01"/>
      <point x="416" y="-15" name="iv01"/>
      <point x="371" y="14" type="curve" smooth="yes" name="ab02"/>
      <point x="327" y="43"/>
      <point x="293" y="85" name="at01"/>
      <point x="270" y="141" type="curve"/>
      <point x="224" y="0" type="line" name="iv02"/>
      <point x="59" y="0" type="line"/>
      <point x="362" y="1556" type="line" name="at02"/>
      <point x="547" y="1556" type="line"/>
      <point x="434" y="977" type="line" name="dh02"/>
      <point x="475" y="1032"/>
      <point x="523" y="1075"/>
      <point x="578" y="1104" type="curve" smooth="yes"/>
      <point x="633" y="1133"/>
      <point x="694" y="1147" name="dv02"/>
      <point x="763" y="1147" type="curve" smooth="yes"/>
      <point x="868" y="1147"/>
      <point x="957" y="1113"/>
      <point x="1018" y="1044" type="curve" smooth="yes" name="dh01"/>
      <point x="1078" y="976"/>
      <point x="1108" y="877" name="sv01"/>
      <point x="1108" y="748" type="curve" smooth="yes"/>
      <point x="1108" y="660"/>
      <point x="1094" y="561"/>
      <point x="1067" y="465" type="curve" smooth="yes"/>
      <point x="1042" y="376"/>
      <point x="1006" y="292"/>
      <point x="954" y="213" type="curve" smooth="yes"/>
      <point x="902" y="136" name="sh01"/>
      <point x="841" y="76"/>
      <point x="770" y="35" type="curve" smooth="yes"/>
      <point x="695" y="-8"/>
      <point x="616" y="-29"/>
    </contour>
    <contour>
      <point x="540" y="127" type="curve" smooth="yes"/>
      <point x="595" y="127"/>
      <point x="646" y="142"/>
      <point x="691" y="172" type="curve" smooth="yes"/>
      <point x="738" y="203"/>
      <point x="773" y="244"/>
      <point x="805" y="304" type="curve" smooth="yes"/>
      <point x="838" y="365"/>
      <point x="866" y="441"/>
      <point x="883" y="513" type="curve" smooth="yes"/>
      <point x="902" y="590"/>
      <point x="911" y="666"/>
      <point x="911" y="733" type="curve" smooth="yes"/>
      <point x="911" y="816"/>
      <point x="897" y="882"/>
      <point x="861" y="929" type="curve" smooth="yes"/>
      <point x="827" y="972"/>
      <point x="777" y="993"/>
      <point x="710" y="993" type="curve" smooth="yes"/>
      <point x="651" y="993"/>
      <point x="600" y="976"/>
      <point x="557" y="947" type="curve" smooth="yes"/>
      <point x="514" y="918"/>
      <point x="473" y="872"/>
      <point x="438" y="812" type="curve" smooth="yes"/>
      <point x="403" y="751"/>
      <point x="380" y="684"/>
      <point x="361" y="611" type="curve"/>
      <point x="342" y="532"/>
      <point x="332" y="454"/>
      <point x="332" y="389" type="curve" smooth="yes"/>
      <point x="332" y="305"/>
      <point x="348" y="241"/>
      <point x="385" y="194" type="curve" smooth="yes"/>
      <point x="425" y="143"/>
      <point x="481" y="127"/>
    </contour>
  </outline>
</glyph>
<glyph name="f" format="1">
  <advance width="1233"/>
  <unicode hex="0066"/>
  <outline>
    <contour>
      <point x="523" y="977" type="line" name="sv01"/>
      <point x="224" y="977" type="line" name="sv02"/>
      <point x="253" y="1120" type="line" name="at02"/>
      <point x="550" y="1120" type="line"/>
      <point x="566" y="1198" type="line" smooth="yes"/>
      <point x="594" y="1335"/>
      <point x="636" y="1418" name="at01"/>
      <point x="701" y="1474" type="curve" smooth="yes"/>
      <point x="768" y="1530" name="sv03"/>
      <point x="859" y="1556"/>
      <point x="984" y="1556" type="curve" smooth="yes"/>
      <point x="1205" y="1556" type="line"/>
      <point x="1174" y="1403" type="line" name="at03"/>
      <point x="966" y="1403" type="line" smooth="yes"/>
      <point x="903" y="1403" name="sv04"/>
      <point x="856" y="1389" name="sv05"/>
      <point x="823" y="1362" type="curve" name="ab01"/>
      <point x="788" y="1331"/>
      <point x="770" y="1284"/>
      <point x="755" y="1219" type="curve"/>
      <point x="734" y="1120" type="line"/>
      <point x="1119" y="1120" type="line"/>
      <point x="1093" y="977" type="line"/>
      <point x="708" y="977" type="line"/>
      <point x="517" y="0" type="line"/>
      <point x="333" y="0" type="line"/>
    </contour>
  </outline>
</glyph>
<glyph name="i" format="1">
  <advance width="1233"/>
  <unicode hex="0069"/>
  <outline>
    <contour>
      <point x="627" y="1323" type="line" smooth="yes" name="sv01"/>
      <point x="607" y="1323"/>
      <point x="596" y="1336"/>
      <point x="600" y="1356" type="curve" smooth="yes" name="at01"/>
      <point x="634" y="1529" type="line" smooth="yes"/>
      <point x="637" y="1547"/>
      <point x="647" y="1556"/>
      <point x="666" y="1556" type="curve" smooth="yes"/>
      <point x="790" y="1556" type="line" smooth="yes" name="ab01"/>
      <point x="810" y="1556"/>
      <point x="821" y="1543" name="dh01"/>
      <point x="817" y="1523" type="curve" smooth="yes" name="sh01"/>
      <point x="783" y="1350" type="line" smooth="yes"/>
      <point x="780" y="1332" name="sv02"/>
      <point x="769" y="1323"/>
      <point x="751" y="1323" type="curve" smooth="yes" name="at02"/>
    </contour>
    <contour>
      <point x="749" y="-4" type="line" smooth="yes"/>
      <point x="633" y="-4"/>
      <point x="547" y="17"/>
      <point x="492" y="60" type="curve" smooth="yes" name="dh02"/>
      <point x="435" y="103"/>
      <point x="407" y="167" name="sv03"/>
      <point x="407" y="252" type="curve" smooth="yes"/>
      <point x="407" y="275"/>
      <point x="409" y="295"/>
      <point x="412" y="322" type="curve" smooth="yes"/>
      <point x="415" y="349"/>
      <point x="419" y="379"/>
      <point x="426" y="408" type="curve" smooth="yes"/>
      <point x="559" y="976" type="line"/>
      <point x="313" y="976" type="line"/>
      <point x="342" y="1120" type="line"/>
      <point x="772" y="1120" type="line"/>
      <point x="610" y="404" type="line" smooth="yes"/>
      <point x="605" y="383"/>
      <point x="601" y="353"/>
      <point x="600" y="342" type="curve" smooth="yes"/>
      <point x="597" y="321"/>
      <point x="596" y="310"/>
      <point x="596" y="297" type="curve" smooth="yes"/>
      <point x="596" y="248"/>
      <point x="611" y="211"/>
      <point x="640" y="188" type="curve" smooth="yes"/>
      <point x="670" y="164"/>
      <point x="715" y="152"/>
      <point x="776" y="152" type="curve" smooth="yes"/>
      <point x="987" y="152" type="line"/>
      <point x="956" y="-4" type="line"/>
    </contour>
  </outline>
</glyph>
<glyph name="l" format="1">
  <advance width="1233"/>
  <unicode hex="006C"/>
  <outline>
    <contour>
      <point x="739" y="-8" type="line" name="ab01" smooth="yes"/>
      <point x="623" y="-8"/>
      <point x="537" y="13" name="dh01"/>
      <point x="482" y="56" type="curve" name="sh01"/>
      <point x="427" y="97"/>
      <point x="397" y="160" name="sv01"/>
      <point x="397" y="248" type="curve" smooth="yes"/>
      <point x="397" y="271" name="at01"/>
      <point x="399" y="293"/>
      <point x="402" y="318" type="curve" smooth="yes"/>
      <point x="405" y="343" name="sh02"/>
      <point x="409" y="369" name="dh02"/>
      <point x="416" y="404" type="curve" smooth="yes"/>
      <point x="627" y="1412" type="line" name="sv02"/>
      <point x="311" y="1412" type="line" name="sv03"/>
      <point x="340" y="1556" type="line" name="ab02"/>
      <point x="840" y="1556" type="line"/>
      <point x="600" y="400" type="line"/>
      <point x="589" y="352"/>
      <point x="592" y="344"/>
      <point x="592" y="340" type="curve" smooth="yes"/>
      <point x="592" y="333"/>
      <point x="586" y="328"/>
      <point x="586" y="295" type="curve" smooth="yes"/>
      <point x="586" y="244"/>
      <point x="601" y="207"/>
      <point x="630" y="184" type="curve" smooth="yes"/>
      <point x="660" y="160"/>
      <point x="705" y="148"/>
      <point x="766" y="148" type="curve" smooth="yes"/>
      <point x="977" y="148" type="line"/>
      <point x="946" y="-8" type="line"/>
    </contour>
  </outline>
</glyph>
<glyph name="r" format="1">
  <advance width="1233"/>
  <unicode hex="0072"/>
  <outline>
    <contour>
      <point x="404" y="1120" type="line" name="at01"/>
      <point x="568" y="1120" type="line"/>
      <point x="548" y="901" type="line" name="iv01"/>
      <point x="593" y="981"/>
      <point x="651" y="1042" name="at03"/>
      <point x="722" y="1084" type="curve" smooth="yes" name="at02"/>
      <point x="793" y="1126"/>
      <point x="872" y="1147" name="iv02"/>
      <point x="961" y="1147" type="curve" smooth="yes"/>
      <point x="1008" y="1147" name="sv01"/>
      <point x="1055" y="1141"/>
      <point x="1092" y="1129" type="curve" smooth="yes"/>
      <point x="1125" y="1118" name="ab01"/>
      <point x="1161" y="1099"/>
      <point x="1189" y="1075" type="curve"/>
      <point x="1154" y="889" type="line"/>
      <point x="1123" y="918"/>
      <point x="1087" y="940"/>
      <point x="1050" y="955" type="curve" smooth="yes"/>
      <point x="1010" y="970"/>
      <point x="964" y="977"/>
      <point x="917" y="977" type="curve" smooth="yes"/>
      <point x="808" y="977"/>
      <point x="710" y="940"/>
      <point x="633" y="864" type="curve" smooth="yes"/>
      <point x="556" y="788"/>
      <point x="503" y="680"/>
      <point x="478" y="549" type="curve" smooth="yes"/>
      <point x="371" y="0" type="line"/>
      <point x="187" y="0" type="line"/>
    </contour>
  </outline>
</glyph>
<glyph name="t" format="1">
  <advance width="1233"/>
  <unicode hex="0074"/>
  <outline>
    <contour>
      <point x="682" y="-4" type="line" name="ab01" smooth="yes"/>
      <point x="563" y="-4"/>
      <point x="488" y="17" name="dh01"/>
      <point x="437" y="52" type="curve" smooth="yes"/>
      <point x="384" y="89"/>
      <point x="358" y="142" name="sv01"/>
      <point x="358" y="222" type="curve" name="sv02" smooth="yes"/>
      <point x="358" y="238" name="at01"/>
      <point x="359" y="261"/>
      <point x="362" y="284" type="curve" name="sv03" smooth="yes"/>
      <point x="365" y="301"/>
      <point x="368" y="330" name="at02"/>
      <point x="375" y="365" type="curve" smooth="yes"/>
      <point x="494" y="977" type="line" name="sv04"/>
      <point x="195" y="977" type="line" name="sv05"/>
      <point x="223" y="1120" type="line"/>
      <point x="522" y="1120" type="line" name="sh01"/>
      <point x="584" y="1438" type="line" name="dh02"/>
      <point x="768" y="1438" type="line"/>
      <point x="707" y="1120" type="line" name="sv06"/>
      <point x="1124" y="1120" type="line" name="sv07"/>
      <point x="1096" y="977" type="line" name="ab02"/>
      <point x="678" y="977" type="line"/>
      <point x="559" y="365" type="line"/>
      <point x="550" y="310" type="line"/>
      <point x="548" y="293"/>
      <point x="547" y="277"/>
      <point x="547" y="263" type="curve" smooth="yes"/>
      <point x="547" y="218"/>
      <point x="560" y="187"/>
      <point x="586" y="170" type="curve" smooth="yes"/>
      <point x="612" y="152"/>
      <point x="659" y="143"/>
      <point x="727" y="143" type="curve" smooth="yes"/>
      <point x="934" y="143" type="line"/>
      <point x="905" y="-4" type="line"/>
    </contour>
  </outline>
</glyph>
<glyph name="v" format="1">
  <advance width="1233"/>
  <unicode hex="0076"/>
  <outline>
    <contour>
      <point x="182" y="1120" type="line" name="at01"/>
      <point x="360" y="1120" type="line"/>
      <point x="514" y="164" type="line" name="iv01"/>
      <point x="1016" y="1120" type="line" name="at02"/>
      <point x="1214" y="1120" type="line"/>
      <point x="600" y="0" type="line" name="ab01"/>
      <point x="362" y="0" type="line"/>
    </contour>
  </outline>
</glyph>
<glyph name="bar" format="1">
  <advance width="1233"/>
  <unicode hex="007C"/>
  <outline>
    <contour>
      <point x="564" y="713" type="line"/>
      <point x="729" y="1565" type="line" name="dh01"/>
      <point x="901" y="1565" type="line" name="dh02"/>
      <point x="736" y="713" type="line"/>
    </contour>
    <contour>
      <point x="669" y="369" type="line"/>
      <point x="503" y="-483" type="line" name="av01"/>
      <point x="331" y="-483" type="line"/>
      <point x="496" y="369" type="line"/>
    </contour>
  </outline>
</glyph>
<glyph name="asciitilde" format="1">
  <advance width="1233"/>
  <unicode hex="007E"/>
  <outline>
    <contour>
      <point x="1198" y="840" type="line" name="hr00"/>
      <point x="1164" y="691"/>
      <point x="1129" y="586"/>
      <point x="1064" y="499" type="curve"/>
      <point x="997" y="402"/>
      <point x="908" y="354"/>
      <point x="798" y="354" type="curve" smooth="yes"/>
      <point x="745" y="354"/>
      <point x="703" y="365"/>
      <point x="668" y="388" type="curve" smooth="yes"/>
      <point x="637" y="410"/>
      <point x="604" y="455"/>
      <point x="568" y="522" type="curve" smooth="yes"/>
      <point x="530" y="594"/>
      <point x="501" y="640"/>
      <point x="480" y="659" type="curve" smooth="yes"/>
      <point x="456" y="678"/>
      <point x="433" y="688"/>
      <point x="408" y="688" type="curve" smooth="yes"/>
      <point x="357" y="688"/>
      <point x="316" y="664"/>
      <point x="285" y="616" type="curve" smooth="yes"/>
      <point x="251" y="560"/>
      <point x="221" y="475"/>
      <point x="194" y="361" type="curve"/>
      <point x="38" y="361" type="line"/>
      <point x="68" y="500"/>
      <point x="113" y="613"/>
      <point x="172" y="701" type="curve"/>
      <point x="245" y="796"/>
      <point x="333" y="844"/>
      <point x="434" y="844" type="curve" smooth="yes"/>
      <point x="483" y="844"/>
      <point x="524" y="832"/>
      <point x="559" y="809" type="curve" smooth="yes"/>
      <point x="594" y="785"/>
      <point x="633" y="739"/>
      <point x="665" y="679" type="curve" smooth="yes"/>
      <point x="691" y="630"/>
      <point x="718" y="588"/>
      <point x="745" y="554" type="curve" smooth="yes"/>
      <point x="768" y="525"/>
      <point x="792" y="510"/>
      <point x="825" y="510" type="curve" smooth="yes"/>
      <point x="932" y="510"/>
      <point x="995" y="617"/>
      <point x="1042" y="840" type="curve"/>
    </contour>
  </outline>
</glyph>
<glyph name="cent" format="1">
  <advance width="1233"/>
  <unicode hex="00A2"/>
  <outline>
    <contour>
      <point x="510" y="-27" type="line" name="hr00"/>
      <point x="393" y="-15"/>
      <point x="293" y="33" name="dh01"/>
      <point x="225" y="113" type="curve" smooth="yes"/>
      <point x="157" y="193"/>
      <point x="123" y="301"/>
      <point x="123" y="434" type="curve" smooth="yes"/>
      <point x="123" y="551" name="av01"/>
      <point x="149" y="670"/>
      <point x="204" y="778" type="curve" smooth="yes"/>
      <point x="263" y="895"/>
      <point x="341" y="979"/>
      <point x="425" y="1036" type="curve" smooth="yes" name="iv01"/>
      <point x="476" y="1071"/>
      <point x="526" y="1095"/>
      <point x="574" y="1112" type="curve" smooth="yes" name="iv02"/>
      <point x="625" y="1130"/>
      <point x="679" y="1141" name="iv03"/>
      <point x="737" y="1145" type="curve"/>
      <point x="793" y="1432" type="line"/>
      <point x="895" y="1432" type="line"/>
      <point x="840" y="1145" type="line" name="av02"/>
      <point x="879" y="1143"/>
      <point x="920" y="1136" name="iv04"/>
      <point x="963" y="1125" type="curve" smooth="yes"/>
      <point x="1006" y="1114" name="dh02"/>
      <point x="1047" y="1098"/>
      <point x="1087" y="1077" type="curve"/>
      <point x="1055" y="905" type="line"/>
      <point x="1022" y="930"/>
      <point x="985" y="950"/>
      <point x="945" y="965" type="curve" smooth="yes"/>
      <point x="905" y="980"/>
      <point x="860" y="989"/>
      <point x="811" y="993" type="curve"/>
      <point x="641" y="123" type="line"/>
      <point x="684" y="126"/>
      <point x="729" y="136"/>
      <point x="776" y="151" type="curve" smooth="yes"/>
      <point x="823" y="166"/>
      <point x="869" y="186"/>
      <point x="920" y="213" type="curve"/>
      <point x="887" y="41" type="line"/>
      <point x="834" y="17"/>
      <point x="770" y="1"/>
      <point x="744" y="-7" type="curve" smooth="yes"/>
      <point x="704" y="-18"/>
      <point x="655" y="-24"/>
      <point x="612" y="-27" type="curve"/>
      <point x="557" y="-313" type="line"/>
      <point x="455" y="-313" type="line"/>
    </contour>
    <contour>
      <point x="709" y="991" type="line"/>
      <point x="599" y="981"/>
      <point x="506" y="921"/>
      <point x="430" y="812" type="curve" smooth="yes"/>
      <point x="353" y="700"/>
      <point x="315" y="570"/>
      <point x="315" y="431" type="curve" smooth="yes"/>
      <point x="315" y="331"/>
      <point x="335" y="267"/>
      <point x="374" y="216" type="curve" smooth="yes"/>
      <point x="411" y="168"/>
      <point x="461" y="136"/>
      <point x="541" y="127" type="curve"/>
    </contour>
  </outline>
</glyph>
<glyph name="currency" format="1">
  <advance width="1233"/>
  <unicode hex="00A4"/>
  <outline>
    <contour>
      <point x="205" y="285" type="line" name="hr00"/>
      <point x="371" y="451" type="line"/>
      <point x="346" y="492"/>
      <point x="337" y="517" name="sh01"/>
      <point x="326" y="549" type="curve" smooth="yes"/>
      <point x="315" y="581"/>
      <point x="311" y="607"/>
      <point x="311" y="642" type="curve" name="sh02" smooth="yes"/>
      <point x="311" y="679"/>
      <point x="316" y="707"/>
      <point x="327" y="738" type="curve" name="dv04" smooth="yes"/>
      <point x="338" y="770"/>
      <point x="353" y="800"/>
      <point x="373" y="829" type="curve" name="av01"/>
      <point x="205" y="995" type="line"/>
      <point x="299" y="1090" type="line"/>
      <point x="465" y="922" type="line" name="sh04"/>
      <point x="496" y="943" name="sh03"/>
      <point x="526" y="958"/>
      <point x="557" y="968" type="curve" smooth="yes"/>
      <point x="587" y="978"/>
      <point x="618" y="983" name="sh05"/>
      <point x="651" y="983" type="curve" smooth="yes"/>
      <point x="682" y="983"/>
      <point x="717" y="978" name="dv01"/>
      <point x="746" y="969" type="curve" smooth="yes"/>
      <point x="775" y="960"/>
      <point x="812" y="943" name="sh06"/>
      <point x="844" y="924" type="curve" name="dv02"/>
      <point x="1010" y="1090" type="line"/>
      <point x="1100" y="997" type="line" name="ah02"/>
      <point x="934" y="831" type="line"/>
      <point x="954" y="798" name="dv03"/>
      <point x="972" y="760"/>
      <point x="979" y="736" type="curve" name="sh07" smooth="yes"/>
      <point x="988" y="707"/>
      <point x="993" y="671"/>
      <point x="993" y="640" type="curve" name="ah01" smooth="yes"/>
      <point x="993" y="607" name="sh08"/>
      <point x="988" y="576"/>
      <point x="978" y="546" type="curve" smooth="yes"/>
      <point x="968" y="515"/>
      <point x="953" y="484"/>
      <point x="932" y="455" type="curve"/>
      <point x="1100" y="289" type="line"/>
      <point x="1006" y="195" type="line"/>
      <point x="840" y="362" type="line"/>
      <point x="809" y="341"/>
      <point x="779" y="326"/>
      <point x="749" y="316" type="curve" smooth="yes"/>
      <point x="718" y="306"/>
      <point x="685" y="301"/>
      <point x="652" y="301" type="curve" smooth="yes"/>
      <point x="617" y="301"/>
      <point x="592" y="305"/>
      <point x="557" y="316" type="curve" smooth="yes"/>
      <point x="522" y="327"/>
      <point x="500" y="335"/>
      <point x="461" y="358" type="curve"/>
      <point x="297" y="195" type="line"/>
    </contour>
    <contour>
      <point x="653" y="426" type="curve" smooth="yes"/>
      <point x="712" y="426"/>
      <point x="765" y="447"/>
      <point x="806" y="488" type="curve" smooth="yes"/>
      <point x="846" y="529"/>
      <point x="868" y="583"/>
      <point x="868" y="643" type="curve" smooth="yes"/>
      <point x="868" y="703"/>
      <point x="846" y="756"/>
      <point x="807" y="795" type="curve" smooth="yes"/>
      <point x="767" y="835"/>
      <point x="713" y="856"/>
      <point x="653" y="856" type="curve" smooth="yes"/>
      <point x="596" y="856"/>
      <point x="542" y="836"/>
      <point x="501" y="796" type="curve" smooth="yes"/>
      <point x="462" y="759"/>
      <point x="438" y="706"/>
      <point x="438" y="642" type="curve" smooth="yes"/>
      <point x="438" y="583"/>
      <point x="459" y="532"/>
      <point x="500" y="489" type="curve" smooth="yes"/>
      <point x="540" y="449"/>
      <point x="592" y="426"/>
    </contour>
  </outline>
</glyph>
<glyph name="registered" format="1">
  <advance width="1233"/>
  <unicode hex="00AE"/>
  <outline>
    <contour>
      <point x="616" y="125" type="curve" smooth="yes" name="dv01"/>
      <point x="528" y="125"/>
      <point x="454" y="140"/>
      <point x="382" y="171" type="curve" smooth="yes"/>
      <point x="310" y="202" name="dh01"/>
      <point x="241" y="247"/>
      <point x="181" y="307" type="curve" smooth="yes"/>
      <point x="122" y="366"/>
      <point x="77" y="434" name="dv04"/>
      <point x="46" y="507" type="curve" smooth="yes"/>
      <point x="15" y="579"/>
      <point x="0" y="653"/>
      <point x="0" y="741" type="curve" smooth="yes" name="dh08"/>
      <point x="0" y="826"/>
      <point x="15" y="905"/>
      <point x="46" y="977" type="curve" smooth="yes"/>
      <point x="77" y="1049"/>
      <point x="122" y="1117" name="dv02"/>
      <point x="182" y="1178" type="curve" smooth="yes"/>
      <point x="239" y="1237"/>
      <point x="305" y="1282"/>
      <point x="381" y="1313" type="curve" smooth="yes" name="dh07"/>
      <point x="454" y="1343"/>
      <point x="532" y="1358"/>
      <point x="616" y="1358" type="curve" smooth="yes"/>
      <point x="700" y="1358" name="dv03"/>
      <point x="779" y="1343"/>
      <point x="852" y="1313" type="curve" smooth="yes"/>
      <point x="928" y="1282"/>
      <point x="995" y="1235" name="dh02"/>
      <point x="1051" y="1178" type="curve" smooth="yes"/>
      <point x="1116" y="1111"/>
      <point x="1160" y="1041"/>
      <point x="1187" y="977" type="curve" smooth="yes"/>
      <point x="1218" y="905" name="dh03"/>
      <point x="1233" y="827" name="dv06"/>
      <point x="1233" y="742" type="curve" smooth="yes"/>
      <point x="1233" y="657" name="dh06"/>
      <point x="1218" y="579"/>
      <point x="1188" y="508" type="curve" smooth="yes" name="ih01"/>
      <point x="1159" y="439"/>
      <point x="1112" y="367"/>
      <point x="1052" y="307" type="curve" smooth="yes" name="ih02"/>
      <point x="996" y="251"/>
      <point x="927" y="203"/>
      <point x="851" y="171" type="curve" smooth="yes"/>
      <point x="779" y="140"/>
      <point x="701" y="125" name="sh01"/>
    </contour>
    <contour>
      <point x="617" y="227" type="curve" smooth="yes"/>
      <point x="686" y="227"/>
      <point x="751" y="240"/>
      <point x="812" y="265" type="curve" smooth="yes"/>
      <point x="875" y="292" name="dh05"/>
      <point x="932" y="331"/>
      <point x="979" y="378" type="curve" smooth="yes" name="dv05"/>
      <point x="1024" y="423" name="dh04"/>
      <point x="1068" y="485"/>
      <point x="1093" y="546" type="curve" smooth="yes"/>
      <point x="1118" y="605" name="sh02"/>
      <point x="1130" y="670"/>
      <point x="1130" y="741" type="curve" smooth="yes"/>
      <point x="1130" y="813"/>
      <point x="1117" y="878"/>
      <point x="1092" y="939" type="curve" smooth="yes"/>
      <point x="1067" y="1000"/>
      <point x="1029" y="1056"/>
      <point x="979" y="1106" type="curve" smooth="yes"/>
      <point x="930" y="1155"/>
      <point x="875" y="1193"/>
      <point x="814" y="1218" type="curve" smooth="yes"/>
      <point x="754" y="1243"/>
      <point x="688" y="1255"/>
      <point x="616" y="1255" type="curve" smooth="yes"/>
      <point x="545" y="1255"/>
      <point x="479" y="1243"/>
      <point x="420" y="1218" type="curve" smooth="yes"/>
      <point x="359" y="1193"/>
      <point x="303" y="1155"/>
      <point x="254" y="1106" type="curve" smooth="yes"/>
      <point x="203" y="1055"/>
      <point x="166" y="1000"/>
      <point x="141" y="939" type="curve" smooth="yes"/>
      <point x="115" y="877"/>
      <point x="102" y="811"/>
      <point x="102" y="742" type="curve" smooth="yes"/>
      <point x="102" y="670"/>
      <point x="114" y="609"/>
      <point x="141" y="546" type="curve" smooth="yes"/>
      <point x="173" y="470"/>
      <point x="215" y="418"/>
      <point x="254" y="379" type="curve" smooth="yes"/>
      <point x="305" y="328"/>
      <point x="357" y="292"/>
      <point x="421" y="265" type="curve" smooth="yes"/>
      <point x="481" y="240"/>
      <point x="545" y="227"/>
    </contour>
    <contour>
      <point x="362" y="1100" type="line"/>
      <point x="600" y="1100" type="line" smooth="yes"/>
      <point x="699" y="1100"/>
      <point x="772" y="1084"/>
      <point x="819" y="1051" type="curve" smooth="yes"/>
      <point x="867" y="1018"/>
      <point x="891" y="968"/>
      <point x="891" y="903" type="curve" smooth="yes"/>
      <point x="891" y="852"/>
      <point x="876" y="815"/>
      <point x="847" y="784" type="curve" smooth="yes"/>
      <point x="818" y="753"/>
      <point x="776" y="732"/>
      <point x="723" y="723" type="curve"/>
      <point x="736" y="720"/>
      <point x="752" y="706"/>
      <point x="771" y="685" type="curve"/>
      <point x="787" y="664"/>
      <point x="819" y="622"/>
      <point x="838" y="592" type="curve" smooth="yes"/>
      <point x="952" y="406" type="line"/>
      <point x="809" y="406" type="line"/>
      <point x="702" y="580" type="line" smooth="yes"/>
      <point x="670" y="632"/>
      <point x="642" y="668"/>
      <point x="623" y="681" type="curve" smooth="yes"/>
      <point x="604" y="695"/>
      <point x="578" y="702"/>
      <point x="547" y="702" type="curve" smooth="yes"/>
      <point x="492" y="702" type="line"/>
      <point x="492" y="406" type="line"/>
      <point x="362" y="406" type="line"/>
    </contour>
    <contour>
      <point x="594" y="784" type="line" smooth="yes"/>
      <point x="653" y="784"/>
      <point x="696" y="793"/>
      <point x="721" y="811" type="curve" smooth="yes"/>
      <point x="746" y="829"/>
      <point x="758" y="859"/>
      <point x="758" y="900" type="curve" smooth="yes"/>
      <point x="758" y="939"/>
      <point x="748" y="971"/>
      <point x="721" y="990" type="curve" smooth="yes"/>
      <point x="696" y="1007"/>
      <point x="653" y="1016"/>
      <point x="594" y="1016" type="curve" smooth="yes"/>
      <point x="492" y="1016" type="line"/>
      <point x="492" y="784" type="line"/>
    </contour>
  </outline>
</glyph>
<glyph name="macron" format="1">
  <advance width="1233"/>
  <unicode hex="00AF"/>
  <outline>
    <contour>
      <point x="469" y="1526" type="line" name="hr00"/>
      <point x="1067" y="1526" type="line" name="dv02"/>
      <point x="1038" y="1378" type="line" name="dv01"/>
      <point x="440" y="1378" type="line"/>
    </contour>
  </outline>
</glyph>
<glyph name="twosuperior" format="1">
  <advance width="1233"/>
  <unicode hex="00B2"/>
  <outline>
    <contour>
      <point x="328" y="1230" type="line" name="hr00"/>
      <point x="531" y="1397" type="line" smooth="yes"/>
      <point x="740" y="1568" name="dh01"/>
      <point x="844" y="1679" name="dv03"/>
      <point x="844" y="1760" type="curve" smooth="yes"/>
      <point x="844" y="1808"/>
      <point x="805" y="1867" name="dv04"/>
      <point x="704" y="1867" type="curve" smooth="yes" name="dh02"/>
      <point x="640" y="1867"/>
      <point x="562" y="1844"/>
      <point x="451" y="1789" type="curve"/>
      <point x="475" y="1916" type="line" name="dv02"/>
      <point x="588" y="1955" name="dv01"/>
      <point x="665" y="1972"/>
      <point x="737" y="1972" type="curve" smooth="yes"/>
      <point x="905" y="1972" name="sh01"/>
      <point x="991" y="1876"/>
      <point x="991" y="1781" type="curve" smooth="yes"/>
      <point x="991" y="1674"/>
      <point x="885" y="1537"/>
      <point x="682" y="1385" type="curve" smooth="yes"/>
      <point x="662" y="1370" type="line"/>
      <point x="492" y="1234" type="line"/>
      <point x="887" y="1234" type="line"/>
      <point x="864" y="1120" type="line"/>
      <point x="307" y="1120" type="line"/>
    </contour>
  </outline>
</glyph>
<glyph name="threesuperior" format="1">
  <advance width="1233"/>
  <unicode hex="00B3"/>
  <outline>
    <contour>
      <point x="536" y="1103" type="curve" name="dv01" smooth="yes"/>
      <point x="452" y="1103"/>
      <point x="367" y="1117"/>
      <point x="287" y="1144" type="curve" name="dv02"/>
      <point x="311" y="1265" type="line" name="dh01"/>
      <point x="400" y="1226" name="dv05"/>
      <point x="464" y="1210"/>
      <point x="536" y="1210" type="curve" smooth="yes"/>
      <point x="680" y="1210" name="dv06"/>
      <point x="774" y="1276" name="sh01"/>
      <point x="774" y="1384" type="curve" name="dv03" smooth="yes"/>
      <point x="774" y="1469"/>
      <point x="716" y="1511"/>
      <point x="600" y="1511" type="curve" name="dv04" smooth="yes"/>
      <point x="528" y="1511" type="line" name="sh02"/>
      <point x="549" y="1617" type="line" name="iv01"/>
      <point x="621" y="1617" type="line" name="dh02" smooth="yes"/>
      <point x="751" y="1617"/>
      <point x="836" y="1676"/>
      <point x="836" y="1760" type="curve" smooth="yes"/>
      <point x="836" y="1829"/>
      <point x="778" y="1863"/>
      <point x="671" y="1863" type="curve" smooth="yes"/>
      <point x="604" y="1863"/>
      <point x="545" y="1851"/>
      <point x="461" y="1820" type="curve"/>
      <point x="483" y="1935" type="line"/>
      <point x="580" y="1958"/>
      <point x="661" y="1970"/>
      <point x="728" y="1970" type="curve" smooth="yes"/>
      <point x="895" y="1970"/>
      <point x="983" y="1900"/>
      <point x="983" y="1783" type="curve" smooth="yes"/>
      <point x="983" y="1672"/>
      <point x="904" y="1591"/>
      <point x="772" y="1566" type="curve"/>
      <point x="871" y="1549"/>
      <point x="922" y="1488"/>
      <point x="922" y="1388" type="curve" smooth="yes"/>
      <point x="922" y="1217"/>
      <point x="772" y="1103"/>
    </contour>
  </outline>
</glyph>
<glyph name="paragraph" format="1">
  <advance width="1233"/>
  <unicode hex="00B6"/>
  <outline>
    <contour>
      <point x="506" y="649" type="line" name="hr00"/>
      <point x="388" y="652"/>
      <point x="295" y="685"/>
      <point x="227" y="748" type="curve" smooth="yes"/>
      <point x="159" y="811" name="at01"/>
      <point x="125" y="896"/>
      <point x="125" y="1004" type="curve" smooth="yes" name="av01"/>
      <point x="125" y="1143"/>
      <point x="183" y="1260" name="sv01"/>
      <point x="298" y="1353" type="curve" smooth="yes"/>
      <point x="413" y="1446" name="av02"/>
      <point x="559" y="1493"/>
      <point x="735" y="1493" type="curve" smooth="yes"/>
      <point x="1141" y="1493" type="line"/>
      <point x="813" y="-197" type="line"/>
      <point x="674" y="-197" type="line"/>
      <point x="977" y="1370" type="line"/>
      <point x="786" y="1370" type="line"/>
      <point x="483" y="-197" type="line"/>
      <point x="342" y="-197" type="line"/>
    </contour>
  </outline>
</glyph>
<glyph name="Adieresis" format="1">
  <advance width="1233"/>
  <unicode hex="00C4"/>
  <outline>
    <contour>
      <point x="500" y="1620" type="line" smooth="yes" name="dv01"/>
      <point x="480" y="1620"/>
      <point x="469" y="1633"/>
      <point x="473" y="1653" type="curve" smooth="yes" name="dv02"/>
      <point x="501" y="1796" type="line" smooth="yes"/>
      <point x="504" y="1814"/>
      <point x="514" y="1823"/>
      <point x="533" y="1823" type="curve" smooth="yes"/>
      <point x="677" y="1823" type="line" smooth="yes"/>
      <point x="695" y="1823" name="sv01"/>
      <point x="704" y="1815"/>
      <point x="704" y="1799" type="curve" smooth="yes"/>
      <point x="704" y="1795" name="sv02"/>
      <point x="704" y="1792"/>
      <point x="703" y="1790" type="curve" smooth="yes"/>
      <point x="674" y="1647" type="line" smooth="yes"/>
      <point x="670" y="1629"/>
      <point x="659" y="1620" name="at01"/>
      <point x="642" y="1620" type="curve" smooth="yes"/>
    </contour>
    <contour>
      <point x="891" y="1620" type="line" smooth="yes" name="ab01"/>
      <point x="871" y="1620"/>
      <point x="860" y="1633" name="dv03"/>
      <point x="864" y="1653" type="curve" smooth="yes"/>
      <point x="892" y="1796" type="line" smooth="yes" name="ab02"/>
      <point x="895" y="1814"/>
      <point x="905" y="1823" name="dv04"/>
      <point x="924" y="1823" type="curve" smooth="yes"/>
      <point x="1067" y="1823" type="line" smooth="yes"/>
      <point x="1087" y="1823"/>
      <point x="1098" y="1810"/>
      <point x="1094" y="1790" type="curve" smooth="yes"/>
      <point x="1066" y="1647" type="line" smooth="yes"/>
      <point x="1063" y="1629"/>
      <point x="1052" y="1620"/>
      <point x="1034" y="1620" type="curve" smooth="yes"/>
    </contour>
    <contour>
      <point x="639" y="1493" type="line"/>
      <point x="885" y="1493" type="line"/>
      <point x="1051" y="0" type="line"/>
      <point x="850" y="0" type="line"/>
      <point x="815" y="389" type="line"/>
      <point x="295" y="389" type="line"/>
      <point x="111" y="0" type="line"/>
      <point x="-106" y="0" type="line"/>
    </contour>
    <contour>
      <point x="801" y="551" type="line"/>
      <point x="735" y="1325" type="line"/>
      <point x="371" y="551" type="line"/>
    </contour>
  </outline>
</glyph>
<glyph name="Aring" format="1">
  <advance width="1233"/>
  <unicode hex="00C5"/>
  <outline>
    <contour>
      <point x="600" y="1415" type="line" name="hr00"/>
      <point x="567" y="1438"/>
      <point x="541" y="1467" name="sh01"/>
      <point x="524" y="1504" type="curve" smooth="yes"/>
      <point x="507" y="1541" name="dv02"/>
      <point x="498" y="1581"/>
      <point x="498" y="1624" type="curve" name="sh02" smooth="yes"/>
      <point x="498" y="1703"/>
      <point x="526" y="1770"/>
      <point x="577" y="1821" type="curve" name="sh03"/>
      <point x="626" y="1872"/>
      <point x="694" y="1901" name="dv03"/>
      <point x="773" y="1901" type="curve" smooth="yes"/>
      <point x="850" y="1901" name="ab01"/>
      <point x="916" y="1872"/>
      <point x="967" y="1821" type="curve" smooth="yes"/>
      <point x="1016" y="1772"/>
      <point x="1047" y="1708" name="ah02"/>
      <point x="1047" y="1624" type="curve" smooth="yes"/>
      <point x="1047" y="1567" name="dv01"/>
      <point x="1032" y="1522"/>
      <point x="1007" y="1482" type="curve" name="sh04" smooth="yes"/>
      <point x="980" y="1439"/>
      <point x="943" y="1407"/>
      <point x="897" y="1386" type="curve" name="dv04"/>
      <point x="1051" y="0" type="line" name="ih01"/>
      <point x="850" y="0" type="line"/>
      <point x="815" y="389" type="line" name="ah01"/>
      <point x="295" y="389" type="line" name="sh05"/>
      <point x="111" y="0" type="line"/>
      <point x="-106" y="0" type="line"/>
    </contour>
    <contour>
      <point x="772" y="1475" type="curve" smooth="yes"/>
      <point x="816" y="1475"/>
      <point x="853" y="1492"/>
      <point x="880" y="1519" type="curve" smooth="yes"/>
      <point x="909" y="1548"/>
      <point x="924" y="1584"/>
      <point x="924" y="1626" type="curve" smooth="yes"/>
      <point x="924" y="1671"/>
      <point x="907" y="1707"/>
      <point x="880" y="1734" type="curve" smooth="yes"/>
      <point x="849" y="1765"/>
      <point x="810" y="1778"/>
      <point x="771" y="1778" type="curve" smooth="yes"/>
      <point x="729" y="1778"/>
      <point x="694" y="1764"/>
      <point x="665" y="1735" type="curve" smooth="yes"/>
      <point x="636" y="1706"/>
      <point x="621" y="1670"/>
      <point x="621" y="1627" type="curve" smooth="yes"/>
      <point x="621" y="1584"/>
      <point x="636" y="1547"/>
      <point x="665" y="1518" type="curve" smooth="yes"/>
      <point x="690" y="1493"/>
      <point x="728" y="1475"/>
    </contour>
    <contour>
      <point x="801" y="551" type="line"/>
      <point x="735" y="1325" type="line"/>
      <point x="371" y="551" type="line"/>
    </contour>
  </outline>
</glyph>
<glyph name="Ograve" format="1">
  <advance width="1233"/>
  <unicode hex="00D2"/>
  <outline>
    <contour>
      <point x="543" y="1859" type="line" name="ih01"/>
      <point x="725" y="1859" type="line" name="sv02"/>
      <point x="872" y="1595" type="line" name="ih02"/>
      <point x="733" y="1595" type="line"/>
    </contour>
    <contour>
      <point x="478" y="-29" type="curve" smooth="yes" name="dv01"/>
      <point x="343" y="-29"/>
      <point x="244" y="12" name="sh01"/>
      <point x="179" y="94" type="curve" smooth="yes"/>
      <point x="114" y="175"/>
      <point x="82" y="302"/>
      <point x="82" y="473" type="curve" smooth="yes"/>
      <point x="82" y="558"/>
      <point x="89" y="628" name="at01"/>
      <point x="104" y="712" type="curve" smooth="yes"/>
      <point x="120" y="805" name="sh02"/>
      <point x="137" y="880"/>
      <point x="168" y="975" type="curve" smooth="yes"/>
      <point x="189" y="1042"/>
      <point x="208" y="1090"/>
      <point x="231" y="1141" type="curve" smooth="yes"/>
      <point x="258" y="1198"/>
      <point x="280" y="1236" name="dv02"/>
      <point x="303" y="1271" type="curve" smooth="yes"/>
      <point x="360" y="1356"/>
      <point x="426" y="1419"/>
      <point x="501" y="1460" type="curve" smooth="yes" name="ah02"/>
      <point x="569" y="1497"/>
      <point x="648" y="1520" name="sv01"/>
      <point x="753" y="1520" type="curve" smooth="yes"/>
      <point x="886" y="1520"/>
      <point x="986" y="1484"/>
      <point x="1054" y="1397" type="curve" smooth="yes" name="sh03"/>
      <point x="1119" y="1316"/>
      <point x="1151" y="1191"/>
      <point x="1151" y="1024" type="curve" smooth="yes" name="ah01"/>
      <point x="1151" y="944" name="sh04"/>
      <point x="1144" y="868"/>
      <point x="1129" y="781" type="curve" smooth="yes"/>
      <point x="1114" y="696"/>
      <point x="1092" y="607"/>
      <point x="1063" y="516" type="curve" smooth="yes"/>
      <point x="1042" y="449"/>
      <point x="1024" y="402"/>
      <point x="1001" y="351" type="curve"/>
      <point x="982" y="312"/>
      <point x="956" y="262"/>
      <point x="928" y="219" type="curve" smooth="yes"/>
      <point x="876" y="140"/>
      <point x="807" y="75"/>
      <point x="731" y="32" type="curve" smooth="yes"/>
      <point x="658" y="-9"/>
      <point x="574" y="-29"/>
    </contour>
    <contour>
      <point x="498" y="135" type="curve" smooth="yes"/>
      <point x="555" y="135"/>
      <point x="611" y="151"/>
      <point x="660" y="186" type="curve" smooth="yes"/>
      <point x="713" y="225"/>
      <point x="750" y="278"/>
      <point x="778" y="331" type="curve" smooth="yes"/>
      <point x="829" y="427"/>
      <point x="871" y="565"/>
      <point x="898" y="684" type="curve" smooth="yes"/>
      <point x="929" y="821"/>
      <point x="944" y="959"/>
      <point x="944" y="1067" type="curve" smooth="yes"/>
      <point x="944" y="1182"/>
      <point x="927" y="1245"/>
      <point x="892" y="1289" type="curve" smooth="yes"/>
      <point x="857" y="1332"/>
      <point x="805" y="1356"/>
      <point x="734" y="1356" type="curve" smooth="yes"/>
      <point x="675" y="1356"/>
      <point x="620" y="1340"/>
      <point x="572" y="1305" type="curve" smooth="yes"/>
      <point x="525" y="1270"/>
      <point x="486" y="1220"/>
      <point x="455" y="1160" type="curve" smooth="yes"/>
      <point x="408" y="1072"/>
      <point x="364" y="945"/>
      <point x="333" y="808" type="curve" smooth="yes"/>
      <point x="302" y="675"/>
      <point x="287" y="541"/>
      <point x="287" y="429" type="curve" smooth="yes"/>
      <point x="287" y="311"/>
      <point x="305" y="248"/>
      <point x="340" y="203" type="curve" smooth="yes"/>
      <point x="379" y="155"/>
      <point x="434" y="135"/>
    </contour>
  </outline>
</glyph>
<glyph name="Udieresis" format="1">
  <advance width="1233"/>
  <unicode hex="00DC"/>
  <outline>
    <contour>
      <point x="504" y="1627" type="line" smooth="yes" name="dv03"/>
      <point x="484" y="1627"/>
      <point x="473" y="1640"/>
      <point x="477" y="1660" type="curve" smooth="yes" name="dv04"/>
      <point x="505" y="1803" type="line" smooth="yes"/>
      <point x="508" y="1821"/>
      <point x="518" y="1830"/>
      <point x="537" y="1830" type="curve" smooth="yes"/>
      <point x="681" y="1830" type="line" smooth="yes"/>
      <point x="699" y="1830" name="sv01"/>
      <point x="708" y="1822"/>
      <point x="708" y="1806" type="curve" smooth="yes"/>
      <point x="708" y="1802" name="sv02"/>
      <point x="708" y="1799"/>
      <point x="707" y="1797" type="curve" smooth="yes"/>
      <point x="678" y="1654" type="line" smooth="yes"/>
      <point x="674" y="1636"/>
      <point x="663" y="1627" name="dv01"/>
      <point x="646" y="1627" type="curve" smooth="yes"/>
    </contour>
    <contour>
      <point x="895" y="1627" type="line" smooth="yes" name="dh01"/>
      <point x="875" y="1627"/>
      <point x="864" y="1640"/>
      <point x="868" y="1660" type="curve" smooth="yes" name="at01"/>
      <point x="896" y="1803" type="line" smooth="yes"/>
      <point x="899" y="1821"/>
      <point x="909" y="1830"/>
      <point x="928" y="1830" type="curve" smooth="yes" name="dh02"/>
      <point x="1071" y="1830" type="line" smooth="yes"/>
      <point x="1091" y="1830" name="dv02"/>
      <point x="1102" y="1817"/>
      <point x="1098" y="1797" type="curve" smooth="yes"/>
      <point x="1070" y="1654" type="line" smooth="yes"/>
      <point x="1067" y="1636"/>
      <point x="1056" y="1627" name="at02"/>
      <point x="1038" y="1627" type="curve" smooth="yes"/>
    </contour>
    <contour>
      <point x="477" y="-29" type="curve" smooth="yes"/>
      <point x="350" y="-29"/>
      <point x="253" y="1"/>
      <point x="184" y="61" type="curve" smooth="yes"/>
      <point x="115" y="121"/>
      <point x="80" y="206"/>
      <point x="80" y="315" type="curve" smooth="yes"/>
      <point x="80" y="347"/>
      <point x="82" y="372"/>
      <point x="89" y="417" type="curve"/>
      <point x="97" y="477"/>
      <point x="102" y="506"/>
      <point x="115" y="573" type="curve" smooth="yes"/>
      <point x="293" y="1493" type="line"/>
      <point x="496" y="1493" type="line"/>
      <point x="317" y="573" type="line"/>
      <point x="316" y="564"/>
      <point x="313" y="551"/>
      <point x="309" y="532" type="curve" smooth="yes"/>
      <point x="289" y="433"/>
      <point x="279" y="353"/>
      <point x="279" y="313" type="curve" smooth="yes"/>
      <point x="279" y="256"/>
      <point x="299" y="210"/>
      <point x="334" y="181" type="curve"/>
      <point x="369" y="150"/>
      <point x="425" y="135"/>
      <point x="501" y="135" type="curve" smooth="yes"/>
      <point x="561" y="135"/>
      <point x="605" y="144"/>
      <point x="649" y="165" type="curve" smooth="yes"/>
      <point x="693" y="186"/>
      <point x="729" y="215"/>
      <point x="756" y="254" type="curve" smooth="yes"/>
      <point x="771" y="275"/>
      <point x="784" y="302"/>
      <point x="801" y="361" type="curve" smooth="yes"/>
      <point x="816" y="409"/>
      <point x="831" y="481"/>
      <point x="850" y="573" type="curve"/>
      <point x="1028" y="1493" type="line"/>
      <point x="1231" y="1493" type="line"/>
      <point x="1053" y="573" type="line"/>
      <point x="1021" y="402"/>
      <point x="991" y="314"/>
      <point x="964" y="253" type="curve" smooth="yes"/>
      <point x="931" y="181"/>
      <point x="890" y="129"/>
      <point x="838" y="86" type="curve" smooth="yes"/>
      <point x="791" y="47"/>
      <point x="733" y="20"/>
      <point x="676" y="1" type="curve" smooth="yes"/>
      <point x="615" y="-19"/>
      <point x="548" y="-29"/>
    </contour>
  </outline>
</glyph>
<glyph name="Thorn" format="1">
  <advance width="1233"/>
  <unicode hex="00DE"/>
  <outline>
    <contour>
      <point x="342" y="1493" type="line" name="at01"/>
      <point x="545" y="1491" type="line"/>
      <point x="494" y="1217" type="line"/>
      <point x="735" y="1217" type="line" smooth="yes" name="sv02"/>
      <point x="873" y="1217"/>
      <point x="978" y="1188" name="dh02"/>
      <point x="1051" y="1129" type="curve" smooth="yes"/>
      <point x="1123" y="1070" name="dv01"/>
      <point x="1159" y="988"/>
      <point x="1159" y="867" type="curve" smooth="yes" name="ab01"/>
      <point x="1159" y="719"/>
      <point x="1106" y="594" name="dv02"/>
      <point x="998" y="502" type="curve" smooth="yes"/>
      <point x="891" y="411" name="dh01"/>
      <point x="744" y="365"/>
      <point x="557" y="365" type="curve" smooth="yes" name="sv01"/>
      <point x="326" y="365" type="line"/>
      <point x="254" y="0" type="line"/>
      <point x="51" y="0" type="line"/>
    </contour>
    <contour>
      <point x="590" y="522" type="line" smooth="yes" name="sh01"/>
      <point x="699" y="522"/>
      <point x="786" y="553"/>
      <point x="853" y="614" type="curve" smooth="yes"/>
      <point x="920" y="675"/>
      <point x="952" y="758"/>
      <point x="952" y="853" type="curve" smooth="yes"/>
      <point x="952" y="933"/>
      <point x="929" y="979"/>
      <point x="890" y="1010" type="curve" smooth="yes"/>
      <point x="849" y="1043"/>
      <point x="785" y="1059"/>
      <point x="698" y="1059" type="curve" smooth="yes"/>
      <point x="461" y="1059" type="line"/>
      <point x="356" y="522" type="line"/>
    </contour>
  </outline>
</glyph>
<glyph name="ccedilla" format="1">
  <advance width="1233"/>
  <unicode hex="00E7"/>
  <outline>
    <contour>
      <point x="469" y="813" type="curve" smooth="yes" name="hr00"/>
      <point x="434" y="762"/>
      <point x="403" y="698" name="sh02"/>
      <point x="382" y="626" type="curve" smooth="yes"/>
      <point x="361" y="554" name="sh03"/>
      <point x="350" y="485"/>
      <point x="350" y="418" type="curve" smooth="yes"/>
      <point x="350" y="326"/>
      <point x="371" y="251"/>
      <point x="418" y="200" type="curve" smooth="yes" name="ih01"/>
      <point x="461" y="153"/>
      <point x="526" y="127" name="sh04"/>
      <point x="625" y="127" type="curve" smooth="yes"/>
      <point x="685" y="127" name="dv01"/>
      <point x="748" y="137"/>
      <point x="808" y="158" type="curve" smooth="yes"/>
      <point x="871" y="181" name="ih02"/>
      <point x="928" y="213"/>
      <point x="979" y="252" type="curve" name="dv02"/>
      <point x="940" y="51" type="line"/>
      <point x="883" y="20" name="ah02"/>
      <point x="835" y="4" name="sh05"/>
      <point x="784" y="-8" type="curve" smooth="yes" name="dv03"/>
      <point x="752" y="-16"/>
      <point x="720" y="-21" name="sh01"/>
      <point x="688" y="-25" type="curve"/>
      <point x="707" y="-57" name="sh06"/>
      <point x="718" y="-86"/>
      <point x="729" y="-111" type="curve" name="at01"/>
      <point x="740" y="-141"/>
      <point x="746" y="-170"/>
      <point x="746" y="-198" type="curve" smooth="yes"/>
      <point x="746" y="-254"/>
      <point x="723" y="-304" name="sv01"/>
      <point x="676" y="-341" type="curve" smooth="yes" name="sh07"/>
      <point x="630" y="-377"/>
      <point x="566" y="-395" name="ah01"/>
      <point x="485" y="-395" type="curve" smooth="yes"/>
      <point x="458" y="-395"/>
      <point x="426" y="-393"/>
      <point x="395" y="-388" type="curve" smooth="yes"/>
      <point x="365" y="-383"/>
      <point x="334" y="-376"/>
      <point x="301" y="-365" type="curve"/>
      <point x="326" y="-236" type="line"/>
      <point x="353" y="-249"/>
      <point x="384" y="-260"/>
      <point x="403" y="-265" type="curve" smooth="yes"/>
      <point x="426" y="-271"/>
      <point x="449" y="-274"/>
      <point x="472" y="-274" type="curve" smooth="yes"/>
      <point x="513" y="-274"/>
      <point x="551" y="-264"/>
      <point x="576" y="-244" type="curve" smooth="yes"/>
      <point x="601" y="-224"/>
      <point x="613" y="-195"/>
      <point x="613" y="-163" type="curve" smooth="yes"/>
      <point x="613" y="-140"/>
      <point x="607" y="-114"/>
      <point x="599" y="-93" type="curve" smooth="yes"/>
      <point x="595" y="-81"/>
      <point x="583" y="-56"/>
      <point x="570" y="-28" type="curve"/>
      <point x="435" y="-21"/>
      <point x="339" y="17"/>
      <point x="271" y="84" type="curve" smooth="yes"/>
      <point x="194" y="160"/>
      <point x="156" y="271"/>
      <point x="156" y="412" type="curve" smooth="yes"/>
      <point x="156" y="512"/>
      <point x="174" y="617"/>
      <point x="209" y="709" type="curve" smooth="yes"/>
      <point x="244" y="801"/>
      <point x="294" y="883"/>
      <point x="354" y="950" type="curve" smooth="yes"/>
      <point x="418" y="1021"/>
      <point x="495" y="1070"/>
      <point x="559" y="1098" type="curve" smooth="yes"/>
      <point x="632" y="1131"/>
      <point x="714" y="1147"/>
      <point x="804" y="1147" type="curve" smooth="yes"/>
      <point x="863" y="1147"/>
      <point x="920" y="1140"/>
      <point x="975" y="1126" type="curve" smooth="yes"/>
      <point x="1026" y="1113"/>
      <point x="1084" y="1090"/>
      <point x="1137" y="1061" type="curve"/>
      <point x="1100" y="879" type="line"/>
      <point x="1057" y="918"/>
      <point x="1011" y="946"/>
      <point x="964" y="964" type="curve" smooth="yes"/>
      <point x="917" y="982"/>
      <point x="865" y="991"/>
      <point x="810" y="991" type="curve" smooth="yes"/>
      <point x="736" y="991"/>
      <point x="671" y="976"/>
      <point x="614" y="947" type="curve" smooth="yes"/>
      <point x="558" y="918"/>
      <point x="509" y="873"/>
    </contour>
  </outline>
</glyph>
<glyph name="eth" format="1">
  <advance width="1233"/>
  <unicode hex="00F0"/>
  <outline>
    <contour>
      <point x="516" y="-29" type="curve" smooth="yes" name="dv01"/>
      <point x="387" y="-29"/>
      <point x="289" y="7" name="sh01"/>
      <point x="221" y="79" type="curve" smooth="yes"/>
      <point x="149" y="155"/>
      <point x="119" y="258"/>
      <point x="119" y="389" type="curve" smooth="yes" name="dv04"/>
      <point x="119" y="472" name="sv01"/>
      <point x="132" y="555" name="ih01"/>
      <point x="157" y="637" type="curve" smooth="yes"/>
      <point x="184" y="725"/>
      <point x="227" y="808"/>
      <point x="266" y="864" type="curve" smooth="yes"/>
      <point x="317" y="939" name="ih02"/>
      <point x="381" y="996" name="ih03"/>
      <point x="458" y="1037" type="curve" smooth="yes"/>
      <point x="535" y="1078"/>
      <point x="622" y="1098" name="sh03"/>
      <point x="697" y="1098" type="curve" smooth="yes"/>
      <point x="721" y="1098" name="ih04"/>
      <point x="741" y="1096"/>
      <point x="772" y="1093" type="curve" smooth="yes" name="sh02"/>
      <point x="805" y="1090" type="line"/>
      <point x="792" y="1115"/>
      <point x="777" y="1142"/>
      <point x="760" y="1171" type="curve"/>
      <point x="747" y="1190" name="dv02"/>
      <point x="716" y="1240"/>
      <point x="692" y="1272" type="curve" name="ah02"/>
      <point x="395" y="1178" type="line" name="sh04"/>
      <point x="365" y="1270" type="line"/>
      <point x="639" y="1356" type="line"/>
      <point x="498" y="1556" type="line" name="dv03"/>
      <point x="711" y="1556" type="line"/>
      <point x="815" y="1411" type="line" name="sh05"/>
      <point x="1102" y="1499" type="line"/>
      <point x="1130" y="1407" type="line"/>
      <point x="870" y="1327" type="line" name="ah01"/>
      <point x="953" y="1212" name="sh06"/>
      <point x="1013" y="1104"/>
      <point x="1050" y="1007" type="curve" smooth="yes"/>
      <point x="1087" y="909"/>
      <point x="1106" y="807"/>
      <point x="1106" y="701" type="curve" smooth="yes"/>
      <point x="1106" y="616"/>
      <point x="1094" y="527"/>
      <point x="1069" y="440" type="curve" smooth="yes"/>
      <point x="1044" y="354"/>
      <point x="1008" y="276"/>
      <point x="961" y="207" type="curve" smooth="yes"/>
      <point x="905" y="126"/>
      <point x="847" y="71"/>
      <point x="771" y="31" type="curve" smooth="yes"/>
      <point x="695" y="-9"/>
      <point x="610" y="-29"/>
    </contour>
    <contour>
      <point x="534" y="127" type="curve" smooth="yes"/>
      <point x="639" y="127"/>
      <point x="735" y="181"/>
      <point x="806" y="288" type="curve" smooth="yes"/>
      <point x="877" y="396"/>
      <point x="911" y="539"/>
      <point x="911" y="702" type="curve" smooth="yes"/>
      <point x="911" y="750"/>
      <point x="909" y="785"/>
      <point x="902" y="820" type="curve" smooth="yes"/>
      <point x="896" y="854"/>
      <point x="887" y="883"/>
      <point x="874" y="907" type="curve"/>
      <point x="849" y="920"/>
      <point x="824" y="929"/>
      <point x="797" y="935" type="curve" smooth="yes"/>
      <point x="770" y="941"/>
      <point x="742" y="944"/>
      <point x="714" y="944" type="curve" smooth="yes"/>
      <point x="589" y="944"/>
      <point x="492" y="886"/>
      <point x="424" y="789" type="curve" smooth="yes"/>
      <point x="349" y="682"/>
      <point x="313" y="534"/>
      <point x="313" y="398" type="curve" smooth="yes"/>
      <point x="313" y="309"/>
      <point x="327" y="239"/>
      <point x="370" y="192" type="curve" smooth="yes"/>
      <point x="405" y="153"/>
      <point x="461" y="127"/>
    </contour>
  </outline>
</glyph>
<glyph name="oslash" format="1">
  <advance width="1233"/>
  <unicode hex="00F8"/>
  <outline>
    <contour>
      <point x="47" y="-20" type="line" name="hr00"/>
      <point x="176" y="133" type="line"/>
      <point x="157" y="165" name="sh02"/>
      <point x="142" y="202" name="sh01"/>
      <point x="133" y="245" type="curve" smooth="yes"/>
      <point x="124" y="288"/>
      <point x="119" y="334"/>
      <point x="119" y="391" type="curve" smooth="yes" name="at01"/>
      <point x="119" y="483"/>
      <point x="132" y="575"/>
      <point x="159" y="666" type="curve" smooth="yes" name="av02"/>
      <point x="184" y="750" name="at02"/>
      <point x="223" y="839"/>
      <point x="274" y="912" type="curve" smooth="yes"/>
      <point x="325" y="985" name="sh03"/>
      <point x="391" y="1050"/>
      <point x="467" y="1089" type="curve" smooth="yes"/>
      <point x="542" y="1128"/>
      <point x="628" y="1147" name="dv01"/>
      <point x="724" y="1147" type="curve" smooth="yes"/>
      <point x="777" y="1147"/>
      <point x="823" y="1141" name="av01"/>
      <point x="863" y="1129" type="curve" smooth="yes"/>
      <point x="902" y="1117"/>
      <point x="938" y="1099" name="sv01"/>
      <point x="969" y="1075" type="curve"/>
      <point x="1081" y="1212" type="line" name="sh04"/>
      <point x="1174" y="1135" type="line" name="sh05"/>
      <point x="1051" y="989" type="line" name="sh06"/>
      <point x="1074" y="954" name="dv02"/>
      <point x="1090" y="912"/>
      <point x="1099" y="875" type="curve" smooth="yes" name="ah02"/>
      <point x="1110" y="834" name="sh07"/>
      <point x="1114" y="781" name="sh08"/>
      <point x="1114" y="726" type="curve" smooth="yes"/>
      <point x="1114" y="636"/>
      <point x="1100" y="545"/>
      <point x="1073" y="453" type="curve" smooth="yes" name="ah01"/>
      <point x="1045" y="360" name="sh09"/>
      <point x="1005" y="276"/>
      <point x="958" y="207" type="curve" smooth="yes"/>
      <point x="902" y="126"/>
      <point x="842" y="69"/>
      <point x="766" y="30" type="curve" smooth="yes"/>
      <point x="691" y="-9"/>
      <point x="604" y="-29"/>
      <point x="507" y="-29" type="curve" smooth="yes"/>
      <point x="454" y="-29"/>
      <point x="414" y="-23"/>
      <point x="371" y="-10" type="curve" smooth="yes"/>
      <point x="334" y="1"/>
      <point x="297" y="17"/>
      <point x="258" y="45" type="curve"/>
      <point x="139" y="-96" type="line"/>
    </contour>
    <contour>
      <point x="852" y="938" type="line"/>
      <point x="833" y="955"/>
      <point x="809" y="971"/>
      <point x="784" y="979" type="curve" smooth="yes"/>
      <point x="760" y="987"/>
      <point x="730" y="991"/>
      <point x="701" y="991" type="curve" smooth="yes"/>
      <point x="584" y="991"/>
      <point x="490" y="928"/>
      <point x="422" y="820" type="curve" smooth="yes"/>
      <point x="354" y="712"/>
      <point x="313" y="559"/>
      <point x="313" y="388" type="curve" smooth="yes"/>
      <point x="313" y="361"/>
      <point x="314" y="353"/>
      <point x="315" y="340" type="curve" smooth="yes"/>
      <point x="319" y="302" type="line"/>
    </contour>
    <contour>
      <point x="534" y="127" type="curve" smooth="yes"/>
      <point x="645" y="127"/>
      <point x="739" y="184"/>
      <point x="811" y="299" type="curve" smooth="yes"/>
      <point x="878" y="404"/>
      <point x="920" y="550"/>
      <point x="920" y="725" type="curve" smooth="yes"/>
      <point x="920" y="752"/>
      <point x="919" y="770"/>
      <point x="918" y="782" type="curve" smooth="yes"/>
      <point x="917" y="795"/>
      <point x="915" y="810"/>
      <point x="911" y="825" type="curve"/>
      <point x="377" y="186" type="line"/>
      <point x="397" y="166"/>
      <point x="418" y="153"/>
      <point x="446" y="142" type="curve" smooth="yes"/>
      <point x="471" y="133"/>
      <point x="498" y="127"/>
    </contour>
  </outline>
</glyph>
<glyph name="ugrave" format="1">
  <advance width="1233"/>
  <unicode hex="00F9"/>
  <outline>
    <contour>
      <point x="449" y="1648" type="line" name="av01"/>
      <point x="647" y="1648" type="line"/>
      <point x="844" y="1272" type="line" name="iv01"/>
      <point x="701" y="1272" type="line"/>
    </contour>
    <contour>
      <point x="409" y="-27" type="curve" smooth="yes" name="ab02"/>
      <point x="322" y="-27"/>
      <point x="252" y="-3" name="dh01"/>
      <point x="201" y="46" type="curve" smooth="yes" name="sh01"/>
      <point x="149" y="97"/>
      <point x="125" y="167" name="at01"/>
      <point x="125" y="248" type="curve" smooth="yes"/>
      <point x="125" y="272"/>
      <point x="127" y="301"/>
      <point x="130" y="332" type="curve" smooth="yes" name="dh02"/>
      <point x="134" y="372"/>
      <point x="136" y="393" name="sv01"/>
      <point x="143" y="426" type="curve"/>
      <point x="276" y="1120" type="line"/>
      <point x="461" y="1120" type="line" name="at02"/>
      <point x="326" y="426" type="line"/>
      <point x="315" y="355" type="line" smooth="yes" name="ab01"/>
      <point x="312" y="332"/>
      <point x="311" y="311" name="iv02"/>
      <point x="311" y="298" type="curve" smooth="yes"/>
      <point x="311" y="249"/>
      <point x="325" y="206"/>
      <point x="358" y="175" type="curve" smooth="yes"/>
      <point x="389" y="147"/>
      <point x="434" y="133"/>
      <point x="489" y="133" type="curve" smooth="yes"/>
      <point x="569" y="133"/>
      <point x="644" y="162"/>
      <point x="704" y="225" type="curve" smooth="yes"/>
      <point x="764" y="289"/>
      <point x="804" y="379"/>
      <point x="825" y="487" type="curve" smooth="yes"/>
      <point x="948" y="1120" type="line"/>
      <point x="1133" y="1120" type="line"/>
      <point x="915" y="0" type="line"/>
      <point x="751" y="0" type="line"/>
      <point x="764" y="168" type="line"/>
      <point x="715" y="103"/>
      <point x="661" y="54"/>
      <point x="602" y="22" type="curve" smooth="yes"/>
      <point x="539" y="-13"/>
      <point x="477" y="-27"/>
    </contour>
  </outline>
</glyph>
<glyph name="uacute" format="1">
  <advance width="1233"/>
  <unicode hex="00FA"/>
  <outline>
    <contour>
      <point x="903" y="1648" type="line" name="av01"/>
      <point x="1122" y="1648" type="line"/>
      <point x="727" y="1272" type="line"/>
      <point x="571" y="1272" type="line" name="iv01"/>
    </contour>
    <contour>
      <point x="409" y="-27" type="curve" name="ab02" smooth="yes"/>
      <point x="322" y="-27"/>
      <point x="252" y="-3" name="dh01"/>
      <point x="201" y="46" type="curve" name="sh01" smooth="yes"/>
      <point x="149" y="97"/>
      <point x="125" y="167" name="at01"/>
      <point x="125" y="248" type="curve" smooth="yes"/>
      <point x="125" y="272"/>
      <point x="127" y="301"/>
      <point x="130" y="332" type="curve" name="dh02" smooth="yes"/>
      <point x="134" y="372"/>
      <point x="136" y="393" name="sv01"/>
      <point x="143" y="426" type="curve"/>
      <point x="276" y="1120" type="line"/>
      <point x="461" y="1120" type="line" name="at02"/>
      <point x="326" y="426" type="line"/>
      <point x="315" y="355" type="line" name="ab01" smooth="yes"/>
      <point x="312" y="332"/>
      <point x="311" y="311" name="iv02"/>
      <point x="311" y="298" type="curve" smooth="yes"/>
      <point x="311" y="249"/>
      <point x="325" y="206"/>
      <point x="358" y="175" type="curve" smooth="yes"/>
      <point x="389" y="147"/>
      <point x="434" y="133"/>
      <point x="489" y="133" type="curve" smooth="yes"/>
      <point x="569" y="133"/>
      <point x="644" y="162"/>
      <point x="704" y="225" type="curve" smooth="yes"/>
      <point x="764" y="289"/>
      <point x="804" y="379"/>
      <point x="825" y="487" type="curve" smooth="yes"/>
      <point x="948" y="1120" type="line"/>
      <point x="1133" y="1120" type="line"/>
      <point x="915" y="0" type="line"/>
      <point x="751" y="0" type="line"/>
      <point x="764" y="168" type="line"/>
      <point x="715" y="103"/>
      <point x="661" y="54"/>
      <point x="602" y="22" type="curve" smooth="yes"/>
      <point x="539" y="-13"/>
      <point x="477" y="-27"/>
    </contour>
  </outline>
</glyph>
<glyph name="Abreve" format="1">
  <advance width="1233"/>
  <unicode hex="0102"/>
  <outline>
    <contour>
      <point x="794" y="1612" type="curve" name="dv01" smooth="yes"/>
      <point x="616" y="1612" name="dh01"/>
      <point x="527" y="1680"/>
      <point x="527" y="1817" type="curve" name="dh02" smooth="yes"/>
      <point x="527" y="1829" name="dv02"/>
      <point x="528" y="1841" name="sv01"/>
      <point x="529" y="1854" type="curve"/>
      <point x="648" y="1854" type="line"/>
      <point x="649" y="1782" name="at01"/>
      <point x="709" y="1743"/>
      <point x="822" y="1743" type="curve" name="ab01" smooth="yes"/>
      <point x="931" y="1743"/>
      <point x="1002" y="1780" name="dv03"/>
      <point x="1037" y="1854" type="curve"/>
      <point x="1156" y="1854" type="line" name="ab02"/>
      <point x="1109" y="1694"/>
      <point x="987" y="1612" name="dv04"/>
    </contour>
    <contour>
      <point x="639" y="1493" type="line"/>
      <point x="885" y="1493" type="line"/>
      <point x="1051" y="0" type="line"/>
      <point x="850" y="0" type="line"/>
      <point x="815" y="389" type="line"/>
      <point x="295" y="389" type="line"/>
      <point x="111" y="0" type="line"/>
      <point x="-106" y="0" type="line"/>
    </contour>
    <contour>
      <point x="801" y="551" type="line"/>
      <point x="735" y="1325" type="line"/>
      <point x="371" y="551" type="line"/>
    </contour>
  </outline>
</glyph>
<glyph name="abreve" format="1">
  <advance width="1233"/>
  <unicode hex="0103"/>
  <outline>
    <contour>
      <point x="747" y="1297" type="curve" smooth="yes" name="dv01"/>
      <point x="568" y="1297" name="dh03"/>
      <point x="469" y="1386"/>
      <point x="469" y="1543" type="curve" smooth="yes" name="sv01"/>
      <point x="469" y="1566" name="dh04"/>
      <point x="469" y="1573" name="dv02"/>
      <point x="472" y="1584" type="curve" name="sv02"/>
      <point x="592" y="1584" type="line" name="sh01"/>
      <point x="592" y="1567" type="line" smooth="yes"/>
      <point x="592" y="1479" name="sv04"/>
      <point x="652" y="1434" name="dh01"/>
      <point x="761" y="1434" type="curve" smooth="yes"/>
      <point x="874" y="1434" name="dv04"/>
      <point x="940" y="1484"/>
      <point x="979" y="1584" type="curve" name="dh05"/>
      <point x="1098" y="1584" type="line" name="sv05"/>
      <point x="1054" y="1392" name="sh02"/>
      <point x="932" y="1297"/>
    </contour>
    <contour>
      <point x="404" y="-29" type="curve" smooth="yes" name="at01"/>
      <point x="203" y="-29" name="dh06"/>
      <point x="72" y="90"/>
      <point x="72" y="283" type="curve" smooth="yes" name="ab01"/>
      <point x="72" y="534"/>
      <point x="293" y="707" name="ih01"/>
      <point x="645" y="707" type="curve" smooth="yes"/>
      <point x="891" y="707" type="line" name="sv03"/>
      <point x="903" y="768" type="line" smooth="yes"/>
      <point x="906" y="780" name="dv03"/>
      <point x="907" y="794"/>
      <point x="907" y="807" type="curve" smooth="yes"/>
      <point x="907" y="932" name="dh02"/>
      <point x="821" y="991"/>
      <point x="665" y="991" type="curve" smooth="yes"/>
      <point x="548" y="991" name="sh03"/>
      <point x="416" y="957"/>
      <point x="268" y="889" type="curve"/>
      <point x="303" y="1069" type="line"/>
      <point x="448" y="1121"/>
      <point x="574" y="1147"/>
      <point x="693" y="1147" type="curve" smooth="yes"/>
      <point x="942" y="1147"/>
      <point x="1087" y="1030"/>
      <point x="1087" y="839" type="curve" smooth="yes"/>
      <point x="1087" y="794"/>
      <point x="1079" y="723"/>
      <point x="1063" y="639" type="curve" smooth="yes"/>
      <point x="938" y="0" type="line"/>
      <point x="774" y="0" type="line"/>
      <point x="786" y="166" type="line"/>
      <point x="690" y="42"/>
      <point x="561" y="-29"/>
    </contour>
    <contour>
      <point x="461" y="125" type="curve" smooth="yes"/>
      <point x="640" y="125"/>
      <point x="805" y="269"/>
      <point x="856" y="522" type="curve" smooth="yes"/>
      <point x="864" y="563" type="line"/>
      <point x="692" y="563" type="line" smooth="yes"/>
      <point x="542" y="563"/>
      <point x="472" y="555"/>
      <point x="414" y="530" type="curve" smooth="yes"/>
      <point x="323" y="491"/>
      <point x="264" y="411"/>
      <point x="264" y="307" type="curve" smooth="yes"/>
      <point x="264" y="195"/>
      <point x="334" y="125"/>
    </contour>
  </outline>
</glyph>
<glyph name="Aogonek" format="1">
  <advance width="1233"/>
  <unicode hex="0104"/>
  <outline>
    <contour>
      <point x="943" y="-272" type="curve" name="dv02" smooth="yes"/>
      <point x="982" y="-272"/>
      <point x="1027" y="-262"/>
      <point x="1070" y="-242" type="curve" name="dv01"/>
      <point x="1045" y="-375" type="line" name="dh01"/>
      <point x="999" y="-388" name="ab01"/>
      <point x="953" y="-395" name="sh01"/>
      <point x="906" y="-395" type="curve" name="dv03" smooth="yes"/>
      <point x="775" y="-395"/>
      <point x="701" y="-338" name="ab02"/>
      <point x="701" y="-245" type="curve" smooth="yes"/>
      <point x="701" y="-170" name="at01"/>
      <point x="749" y="-93"/>
      <point x="853" y="0" type="curve" name="ab03"/>
      <point x="850" y="0" type="line"/>
      <point x="815" y="389" type="line" name="dh02"/>
      <point x="295" y="389" type="line"/>
      <point x="111" y="0" type="line" name="dv04"/>
      <point x="-106" y="0" type="line" name="ih01"/>
      <point x="639" y="1493" type="line"/>
      <point x="885" y="1493" type="line"/>
      <point x="1051" y="0" type="line"/>
      <point x="972" y="0" type="line"/>
      <point x="891" y="-77"/>
      <point x="847" y="-144"/>
      <point x="847" y="-200" type="curve" smooth="yes"/>
      <point x="847" y="-247"/>
      <point x="879" y="-272"/>
    </contour>
    <contour>
      <point x="801" y="551" type="line"/>
      <point x="735" y="1325" type="line"/>
      <point x="371" y="551" type="line"/>
    </contour>
  </outline>
</glyph>
<glyph name="aogonek" format="1">
  <advance width="1233"/>
  <unicode hex="0105"/>
  <outline>
    <contour>
      <point x="868" y="0" type="line" name="ab01"/>
      <point x="787" y="-77" name="dh04"/>
      <point x="743" y="-144" name="dv02"/>
      <point x="743" y="-200" type="curve" smooth="yes" name="ih01"/>
      <point x="743" y="-247"/>
      <point x="775" y="-272" name="dv01"/>
      <point x="839" y="-272" type="curve" smooth="yes" name="dh03"/>
      <point x="878" y="-272" name="ab02"/>
      <point x="923" y="-262" name="sh01"/>
      <point x="966" y="-242" type="curve" name="iv01"/>
      <point x="941" y="-375" type="line" name="dv03"/>
      <point x="895" y="-388" name="dh01"/>
      <point x="849" y="-395"/>
      <point x="802" y="-395" type="curve" smooth="yes" name="dv06"/>
      <point x="671" y="-395"/>
      <point x="597" y="-338" name="dh05"/>
      <point x="597" y="-245" type="curve" smooth="yes" name="sv01"/>
      <point x="597" y="-170" name="sh02"/>
      <point x="645" y="-93"/>
      <point x="749" y="0" type="curve" name="at01"/>
      <point x="754" y="0" type="line" name="dh06"/>
      <point x="786" y="166" type="line"/>
      <point x="690" y="42"/>
      <point x="561" y="-29" name="dv04"/>
      <point x="404" y="-29" type="curve" smooth="yes"/>
      <point x="203" y="-29" name="dv05"/>
      <point x="72" y="90"/>
      <point x="72" y="283" type="curve" smooth="yes"/>
      <point x="72" y="534" name="dh02"/>
      <point x="293" y="707"/>
      <point x="645" y="707" type="curve" smooth="yes"/>
      <point x="891" y="707" type="line" name="sh03"/>
      <point x="903" y="768" type="line" smooth="yes"/>
      <point x="906" y="780"/>
      <point x="907" y="794"/>
      <point x="907" y="807" type="curve" smooth="yes"/>
      <point x="907" y="932"/>
      <point x="821" y="991"/>
      <point x="665" y="991" type="curve" smooth="yes"/>
      <point x="548" y="991"/>
      <point x="416" y="957"/>
      <point x="268" y="889" type="curve"/>
      <point x="303" y="1069" type="line"/>
      <point x="448" y="1121"/>
      <point x="574" y="1147"/>
      <point x="693" y="1147" type="curve" smooth="yes"/>
      <point x="942" y="1147"/>
      <point x="1087" y="1030"/>
      <point x="1087" y="839" type="curve" smooth="yes"/>
      <point x="1087" y="794"/>
      <point x="1079" y="723"/>
      <point x="1063" y="639" type="curve" smooth="yes"/>
      <point x="938" y="0" type="line"/>
    </contour>
    <contour>
      <point x="461" y="125" type="curve" smooth="yes"/>
      <point x="640" y="125"/>
      <point x="805" y="269"/>
      <point x="856" y="522" type="curve" smooth="yes"/>
      <point x="864" y="563" type="line"/>
      <point x="692" y="563" type="line" smooth="yes"/>
      <point x="542" y="563"/>
      <point x="472" y="555"/>
      <point x="414" y="530" type="curve" smooth="yes"/>
      <point x="323" y="491"/>
      <point x="264" y="411"/>
      <point x="264" y="307" type="curve" smooth="yes"/>
      <point x="264" y="195"/>
      <point x="334" y="125"/>
    </contour>
  </outline>
</glyph>
<glyph name="cdotaccent" format="1">
  <advance width="1233"/>
  <unicode hex="010B"/>
  <outline>
    <contour>
      <point x="739" y="1348" type="line" smooth="yes" name="dv03"/>
      <point x="721" y="1348"/>
      <point x="712" y="1356"/>
      <point x="712" y="1372" type="curve" smooth="yes"/>
      <point x="712" y="1376" name="dv04"/>
      <point x="712" y="1379"/>
      <point x="713" y="1381" type="curve" smooth="yes"/>
      <point x="742" y="1525" type="line" smooth="yes"/>
      <point x="745" y="1543"/>
      <point x="755" y="1552"/>
      <point x="774" y="1552" type="curve" smooth="yes" name="dv01"/>
      <point x="919" y="1552" type="line" smooth="yes" name="dh01"/>
      <point x="937" y="1552"/>
      <point x="946" y="1544" name="at01"/>
      <point x="946" y="1528" type="curve" smooth="yes"/>
      <point x="946" y="1524"/>
      <point x="946" y="1521" name="sv01"/>
      <point x="945" y="1519" type="curve" smooth="yes"/>
      <point x="916" y="1375" type="line" smooth="yes" name="dh02"/>
      <point x="912" y="1357" name="dv02"/>
      <point x="901" y="1348"/>
      <point x="884" y="1348" type="curve" smooth="yes"/>
    </contour>
    <contour>
      <point x="606" y="-29" type="curve" smooth="yes"/>
      <point x="311" y="-29"/>
      <point x="156" y="121"/>
      <point x="156" y="414" type="curve" smooth="yes"/>
      <point x="156" y="613"/>
      <point x="229" y="812"/>
      <point x="354" y="950" type="curve" smooth="yes"/>
      <point x="471" y="1079"/>
      <point x="625" y="1147"/>
      <point x="805" y="1147" type="curve" smooth="yes"/>
      <point x="921" y="1147"/>
      <point x="1032" y="1118"/>
      <point x="1137" y="1061" type="curve"/>
      <point x="1100" y="879" type="line"/>
      <point x="1012" y="956"/>
      <point x="923" y="991"/>
      <point x="808" y="991" type="curve" smooth="yes"/>
      <point x="655" y="991"/>
      <point x="549" y="929"/>
      <point x="469" y="813" type="curve" smooth="yes"/>
      <point x="395" y="704"/>
      <point x="350" y="555"/>
      <point x="350" y="418" type="curve" smooth="yes"/>
      <point x="350" y="219"/>
      <point x="440" y="127"/>
      <point x="627" y="127" type="curve" smooth="yes"/>
      <point x="750" y="127"/>
      <point x="867" y="168"/>
      <point x="979" y="252" type="curve"/>
      <point x="940" y="51" type="line"/>
      <point x="843" y="-1"/>
      <point x="733" y="-29"/>
    </contour>
  </outline>
</glyph>
<glyph name="Dcaron" format="1">
  <advance width="1233"/>
  <unicode hex="010E"/>
  <outline>
    <contour>
      <point x="484" y="1861" type="line" name="av01"/>
      <point x="620" y="1861" type="line"/>
      <point x="759" y="1683" type="line"/>
      <point x="968" y="1861" type="line" name="av02"/>
      <point x="1119" y="1861" type="line" name="ih01"/>
      <point x="855" y="1595" type="line"/>
      <point x="642" y="1595" type="line"/>
    </contour>
    <contour>
      <point x="283" y="1493" type="line" name="at01"/>
      <point x="586" y="1493" type="line" smooth="yes"/>
      <point x="955" y="1493" name="dh02"/>
      <point x="1130" y="1328"/>
      <point x="1130" y="983" type="curve" smooth="yes" name="ab01"/>
      <point x="1130" y="783"/>
      <point x="1071" y="538" name="sv01"/>
      <point x="975" y="354" type="curve"/>
      <point x="839" y="98" name="dh01"/>
      <point x="641" y="0" name="sv02"/>
      <point x="295" y="0" type="curve" smooth="yes"/>
      <point x="-8" y="0" type="line"/>
    </contour>
    <contour>
      <point x="324" y="166" type="line" smooth="yes"/>
      <point x="571" y="166" name="sh01"/>
      <point x="713" y="246"/>
      <point x="801" y="432" type="curve" smooth="yes"/>
      <point x="870" y="576"/>
      <point x="924" y="820"/>
      <point x="924" y="996" type="curve" smooth="yes"/>
      <point x="924" y="1233"/>
      <point x="825" y="1327"/>
      <point x="567" y="1327" type="curve" smooth="yes"/>
      <point x="453" y="1327" type="line"/>
      <point x="227" y="166" type="line"/>
    </contour>
  </outline>
</glyph>
<glyph name="dcaron" format="1">
  <advance width="1233"/>
  <unicode hex="010F"/>
  <outline>
    <contour>
      <point x="460" y="-29" type="curve" name="dv01" smooth="yes"/>
      <point x="245" y="-29" name="dh01"/>
      <point x="119" y="112"/>
      <point x="119" y="379" type="curve" name="at03" smooth="yes"/>
      <point x="119" y="555" name="iv01"/>
      <point x="175" y="762" name="at01"/>
      <point x="268" y="909" type="curve" name="sv01" smooth="yes"/>
      <point x="368" y="1066" name="ab01"/>
      <point x="506" y="1147" name="sh02"/>
      <point x="666" y="1147" type="curve" name="iv02" smooth="yes"/>
      <point x="799" y="1147"/>
      <point x="897" y="1092" name="at02"/>
      <point x="954" y="977" type="curve"/>
      <point x="1069" y="1556" type="line" name="sv02"/>
      <point x="1253" y="1556" type="line"/>
      <point x="950" y="0" type="line" name="dv02"/>
      <point x="786" y="0" type="line" name="sh01"/>
      <point x="793" y="141" type="line"/>
      <point x="705" y="28" name="sv03"/>
      <point x="597" y="-29"/>
    </contour>
    <contour>
      <point x="1316" y="1552" type="line" name="dh02"/>
      <point x="1512" y="1552" type="line"/>
      <point x="1326" y="1179" type="line"/>
      <point x="1186" y="1179" type="line"/>
    </contour>
    <contour>
      <point x="517" y="127" type="curve" smooth="yes"/>
      <point x="636" y="127"/>
      <point x="724" y="189"/>
      <point x="788" y="305" type="curve" smooth="yes"/>
      <point x="852" y="420"/>
      <point x="893" y="592"/>
      <point x="893" y="724" type="curve" smooth="yes"/>
      <point x="893" y="908"/>
      <point x="818" y="991"/>
      <point x="681" y="991" type="curve" smooth="yes"/>
      <point x="562" y="991"/>
      <point x="479" y="929"/>
      <point x="418" y="817" type="curve" smooth="yes"/>
      <point x="354" y="700"/>
      <point x="315" y="531"/>
      <point x="315" y="392" type="curve" smooth="yes"/>
      <point x="315" y="211"/>
      <point x="380" y="127"/>
    </contour>
  </outline>
</glyph>
<glyph name="emacron" format="1">
  <advance width="1233"/>
  <unicode hex="0113"/>
  <outline>
    <contour>
      <point x="504" y="1486" type="line" name="hr00"/>
      <point x="1102" y="1486" type="line" name="dv04"/>
      <point x="1073" y="1338" type="line" name="dv03"/>
      <point x="475" y="1338" type="line"/>
    </contour>
    <contour>
      <point x="556" y="-29" type="curve" name="dv01" smooth="yes"/>
      <point x="253" y="-29" name="sh01"/>
      <point x="98" y="122"/>
      <point x="98" y="407" type="curve" name="dv06" smooth="yes"/>
      <point x="98" y="615" name="sh02"/>
      <point x="183" y="829" name="dv07"/>
      <point x="324" y="973" type="curve" name="sh04" smooth="yes"/>
      <point x="436" y="1089" name="sh03"/>
      <point x="570" y="1149" name="dv02"/>
      <point x="719" y="1149" type="curve" name="ih01" smooth="yes"/>
      <point x="964" y="1149" name="sh05"/>
      <point x="1126" y="983"/>
      <point x="1126" y="731" type="curve" name="sh06" smooth="yes"/>
      <point x="1126" y="683" name="ah02"/>
      <point x="1120" y="620" name="dv05"/>
      <point x="1104" y="516" type="curve"/>
      <point x="297" y="516" type="line" name="ah01"/>
      <point x="289" y="473" name="sh07"/>
      <point x="285" y="441"/>
      <point x="285" y="406" type="curve" smooth="yes"/>
      <point x="285" y="229"/>
      <point x="388" y="127"/>
      <point x="584" y="127" type="curve" smooth="yes"/>
      <point x="704" y="127"/>
      <point x="844" y="164"/>
      <point x="997" y="240" type="curve"/>
      <point x="961" y="57" type="line"/>
      <point x="820" y="0"/>
      <point x="689" y="-29"/>
    </contour>
    <contour>
      <point x="938" y="659" type="line"/>
      <point x="946" y="695"/>
      <point x="948" y="716"/>
      <point x="948" y="739" type="curve" smooth="yes"/>
      <point x="948" y="897"/>
      <point x="854" y="991"/>
      <point x="707" y="991" type="curve" smooth="yes"/>
      <point x="533" y="991"/>
      <point x="391" y="860"/>
      <point x="332" y="659" type="curve"/>
    </contour>
  </outline>
</glyph>
<glyph name="Edotaccent" format="1">
  <advance width="1233"/>
  <unicode hex="0116"/>
  <outline>
    <contour>
      <point x="751" y="1627" type="line" smooth="yes" name="dv01"/>
      <point x="730" y="1627"/>
      <point x="715" y="1643"/>
      <point x="719" y="1666" type="curve" smooth="yes" name="dv02"/>
      <point x="746" y="1809" type="line" smooth="yes"/>
      <point x="749" y="1824"/>
      <point x="760" y="1832"/>
      <point x="775" y="1832" type="curve" smooth="yes"/>
      <point x="916" y="1832" type="line" smooth="yes" name="at01"/>
      <point x="937" y="1832"/>
      <point x="953" y="1816" name="sv01"/>
      <point x="949" y="1793" type="curve" smooth="yes"/>
      <point x="921" y="1650" type="line" smooth="yes"/>
      <point x="918" y="1635" name="dv04"/>
      <point x="907" y="1627" name="dv03"/>
      <point x="892" y="1627" type="curve" smooth="yes"/>
    </contour>
    <contour>
      <point x="344" y="1493" type="line" name="sv02"/>
      <point x="1229" y="1493" type="line"/>
      <point x="1196" y="1323" type="line" name="ab01"/>
      <point x="512" y="1323" type="line"/>
      <point x="426" y="881" type="line"/>
      <point x="1079" y="881" type="line"/>
      <point x="1047" y="711" type="line"/>
      <point x="393" y="711" type="line"/>
      <point x="289" y="170" type="line"/>
      <point x="991" y="170" type="line"/>
      <point x="958" y="0" type="line"/>
      <point x="53" y="0" type="line"/>
    </contour>
  </outline>
</glyph>
<glyph name="Hbar" format="1">
  <advance width="1233"/>
  <unicode hex="0126"/>
  <outline>
    <contour>
      <point x="207" y="1105" type="line" name="sv01"/>
      <point x="73" y="1105" type="line"/>
      <point x="105" y="1269" type="line"/>
      <point x="239" y="1269" type="line" name="sv02"/>
      <point x="282" y="1493" type="line" name="at01"/>
      <point x="484" y="1493" type="line"/>
      <point x="441" y="1269" type="line" name="sv03"/>
      <point x="995" y="1269" type="line"/>
      <point x="1038" y="1493" type="line" name="at02"/>
      <point x="1240" y="1493" type="line"/>
      <point x="1197" y="1269" type="line" name="sv04"/>
      <point x="1332" y="1269" type="line"/>
      <point x="1300" y="1105" type="line" name="sv05"/>
      <point x="1165" y="1105" type="line" name="sv06"/>
      <point x="950" y="0" type="line" name="ab01"/>
      <point x="748" y="0" type="line"/>
      <point x="886" y="711" type="line" name="dv01"/>
      <point x="332" y="711" type="line"/>
      <point x="194" y="0" type="line" name="ab02"/>
      <point x="-8" y="0" type="line"/>
    </contour>
    <contour>
      <point x="919" y="881" type="line" name="dv02"/>
      <point x="963" y="1105" type="line" name="sv07"/>
      <point x="409" y="1105" type="line" name="sv08"/>
      <point x="365" y="881" type="line"/>
    </contour>
  </outline>
</glyph>
<glyph name="imacron" format="1">
  <advance width="1233"/>
  <unicode hex="012B"/>
  <outline>
    <contour>
      <point x="409" y="1468" type="line" name="sh01"/>
      <point x="1007" y="1468" type="line" name="dv02"/>
      <point x="978" y="1320" type="line" name="dv01"/>
      <point x="380" y="1320" type="line"/>
    </contour>
    <contour>
      <point x="749" y="-4" type="line" name="ab01" smooth="yes"/>
      <point x="633" y="-4"/>
      <point x="547" y="17" name="dh01"/>
      <point x="492" y="60" type="curve" name="sh02" smooth="yes"/>
      <point x="435" y="103"/>
      <point x="407" y="167" name="sv01"/>
      <point x="407" y="252" type="curve" smooth="yes"/>
      <point x="407" y="275" name="at01"/>
      <point x="409" y="295"/>
      <point x="412" y="322" type="curve" smooth="yes"/>
      <point x="415" y="349"/>
      <point x="419" y="379" name="dh02"/>
      <point x="426" y="408" type="curve" smooth="yes"/>
      <point x="559" y="976" type="line" name="sv02"/>
      <point x="313" y="976" type="line"/>
      <point x="342" y="1120" type="line"/>
      <point x="772" y="1120" type="line"/>
      <point x="610" y="404" type="line" smooth="yes"/>
      <point x="605" y="383"/>
      <point x="601" y="353"/>
      <point x="600" y="342" type="curve" smooth="yes"/>
      <point x="597" y="321"/>
      <point x="596" y="310"/>
      <point x="596" y="297" type="curve" smooth="yes"/>
      <point x="596" y="248"/>
      <point x="611" y="211"/>
      <point x="640" y="188" type="curve" smooth="yes"/>
      <point x="670" y="164"/>
      <point x="715" y="152"/>
      <point x="776" y="152" type="curve" smooth="yes"/>
      <point x="987" y="152" type="line"/>
      <point x="956" y="-4" type="line"/>
    </contour>
  </outline>
</glyph>
<glyph name="Idotaccent" format="1">
  <advance width="1233"/>
  <unicode hex="0130"/>
  <outline>
    <contour>
      <point x="711" y="1627" type="line" name="dv01" smooth="yes"/>
      <point x="693" y="1627"/>
      <point x="684" y="1635"/>
      <point x="684" y="1651" type="curve" smooth="yes"/>
      <point x="684" y="1655" name="dv02"/>
      <point x="684" y="1658"/>
      <point x="685" y="1660" type="curve" smooth="yes"/>
      <point x="714" y="1805" type="line" smooth="yes"/>
      <point x="717" y="1823"/>
      <point x="727" y="1832" name="sv01"/>
      <point x="746" y="1832" type="curve" smooth="yes"/>
      <point x="888" y="1832" type="line" name="sv02" smooth="yes"/>
      <point x="908" y="1832"/>
      <point x="919" y="1819" name="at01"/>
      <point x="915" y="1799" type="curve" smooth="yes"/>
      <point x="887" y="1654" type="line" name="sv03" smooth="yes"/>
      <point x="884" y="1636" name="sv04"/>
      <point x="873" y="1627" name="sv05"/>
      <point x="855" y="1627" type="curve" name="sv06" smooth="yes"/>
    </contour>
    <contour>
      <point x="90" y="170" type="line" name="ab01"/>
      <point x="403" y="170" type="line"/>
      <point x="627" y="1323" type="line"/>
      <point x="313" y="1323" type="line"/>
      <point x="346" y="1493" type="line"/>
      <point x="1176" y="1493" type="line"/>
      <point x="1143" y="1323" type="line"/>
      <point x="829" y="1323" type="line"/>
      <point x="606" y="170" type="line"/>
      <point x="920" y="170" type="line"/>
      <point x="887" y="0" type="line"/>
      <point x="57" y="0" type="line"/>
    </contour>
  </outline>
</glyph>
<glyph name="dotlessi" format="1">
  <advance width="1233"/>
  <unicode hex="0131"/>
  <outline>
    <contour>
      <point x="749" y="-4" type="line" smooth="yes" name="ab01"/>
      <point x="633" y="-4"/>
      <point x="547" y="17" name="dh01"/>
      <point x="492" y="60" type="curve" smooth="yes" name="sh01"/>
      <point x="435" y="103"/>
      <point x="407" y="167" name="sv01"/>
      <point x="407" y="252" type="curve" smooth="yes"/>
      <point x="407" y="275" name="at01"/>
      <point x="409" y="295"/>
      <point x="412" y="322" type="curve" smooth="yes"/>
      <point x="415" y="349"/>
      <point x="419" y="379" name="dh02"/>
      <point x="426" y="408" type="curve" smooth="yes"/>
      <point x="559" y="976" type="line" name="sv02"/>
      <point x="313" y="976" type="line" name="sv03"/>
      <point x="342" y="1120" type="line" name="ab02"/>
      <point x="772" y="1120" type="line"/>
      <point x="610" y="404" type="line" smooth="yes"/>
      <point x="605" y="383"/>
      <point x="601" y="353"/>
      <point x="600" y="342" type="curve" smooth="yes"/>
      <point x="597" y="321"/>
      <point x="596" y="310"/>
      <point x="596" y="297" type="curve" smooth="yes"/>
      <point x="596" y="248"/>
      <point x="611" y="211"/>
      <point x="640" y="188" type="curve" smooth="yes"/>
      <point x="670" y="164"/>
      <point x="715" y="152"/>
      <point x="776" y="152" type="curve" smooth="yes"/>
      <point x="987" y="152" type="line"/>
      <point x="956" y="-4" type="line"/>
    </contour>
  </outline>
</glyph>
<glyph name="uni013C" format="1">
  <advance width="1233"/>
  <unicode hex="013C"/>
  <outline>
    <contour>
      <point x="739" y="-8" type="line" name="ab01" smooth="yes"/>
      <point x="511" y="-8" name="dh01"/>
      <point x="397" y="76"/>
      <point x="397" y="245" type="curve" name="sv01" smooth="yes"/>
      <point x="397" y="290"/>
      <point x="405" y="349" name="at01"/>
      <point x="416" y="404" type="curve" smooth="yes"/>
      <point x="627" y="1412" type="line"/>
      <point x="311" y="1412" type="line" name="dh02"/>
      <point x="340" y="1556" type="line" name="sv02"/>
      <point x="840" y="1556" type="line"/>
      <point x="600" y="400" type="line"/>
      <point x="591" y="353"/>
      <point x="586" y="316" name="iv01"/>
      <point x="586" y="289" type="curve" name="av01" smooth="yes"/>
      <point x="586" y="197"/>
      <point x="645" y="148"/>
      <point x="766" y="148" type="curve" smooth="yes"/>
      <point x="977" y="148" type="line"/>
      <point x="946" y="-8" type="line"/>
    </contour>
    <contour>
      <point x="512" y="-199" type="line"/>
      <point x="751" y="-199" type="line"/>
      <point x="497" y="-544" type="line"/>
      <point x="351" y="-544" type="line"/>
    </contour>
  </outline>
</glyph>
<glyph name="lcaron" format="1">
  <advance width="1233"/>
  <unicode hex="013E"/>
  <outline>
    <contour>
      <point x="739" y="-8" type="line" smooth="yes" name="ab01"/>
      <point x="511" y="-8" name="dh01"/>
      <point x="397" y="76"/>
      <point x="397" y="245" type="curve" smooth="yes" name="sv01"/>
      <point x="397" y="290"/>
      <point x="405" y="349" name="at01"/>
      <point x="416" y="404" type="curve" smooth="yes"/>
      <point x="627" y="1412" type="line"/>
      <point x="311" y="1412" type="line" name="dh02"/>
      <point x="340" y="1556" type="line" name="sv02"/>
      <point x="840" y="1556" type="line"/>
      <point x="600" y="400" type="line"/>
      <point x="591" y="353" name="at02"/>
      <point x="586" y="316"/>
      <point x="586" y="289" type="curve" smooth="yes" name="sv03"/>
      <point x="586" y="197"/>
      <point x="645" y="148"/>
      <point x="766" y="148" type="curve" smooth="yes"/>
      <point x="977" y="148" type="line"/>
      <point x="946" y="-8" type="line"/>
    </contour>
    <contour>
      <point x="1017" y="1556" type="line"/>
      <point x="1236" y="1556" type="line"/>
      <point x="1028" y="1180" type="line"/>
      <point x="872" y="1180" type="line"/>
    </contour>
  </outline>
</glyph>
<glyph name="Eng" format="1">
  <advance width="1233"/>
  <unicode hex="014A"/>
  <outline>
    <contour>
      <point x="377" y="-270" type="line" name="hr00"/>
      <point x="544" y="-270" type="line" name="dv02" smooth="yes"/>
      <point x="668" y="-270" name="ab01"/>
      <point x="738" y="-191"/>
      <point x="775" y="0" type="curve" name="dh01" smooth="yes"/>
      <point x="972" y="1009" type="line" name="sv01"/>
      <point x="983" y="1062"/>
      <point x="988" y="1110" name="ab02"/>
      <point x="988" y="1153" type="curve" smooth="yes"/>
      <point x="988" y="1294" name="at01"/>
      <point x="927" y="1358"/>
      <point x="800" y="1358" type="curve" name="iv01" smooth="yes"/>
      <point x="613" y="1358" name="sv02"/>
      <point x="480" y="1217" name="dh02"/>
      <point x="425" y="937" type="curve" smooth="yes"/>
      <point x="242" y="0" type="line"/>
      <point x="40" y="0" type="line" name="dv01"/>
      <point x="331" y="1493" type="line"/>
      <point x="513" y="1493" type="line"/>
      <point x="494" y="1295" type="line" name="sh01"/>
      <point x="595" y="1444"/>
      <point x="733" y="1522"/>
      <point x="902" y="1522" type="curve" smooth="yes"/>
      <point x="1097" y="1522"/>
      <point x="1195" y="1415"/>
      <point x="1195" y="1200" type="curve" smooth="yes"/>
      <point x="1195" y="1139"/>
      <point x="1188" y="1072"/>
      <point x="1173" y="999" type="curve"/>
      <point x="975" y="-20" type="line" smooth="yes"/>
      <point x="925" y="-280"/>
      <point x="772" y="-426"/>
      <point x="552" y="-426" type="curve" smooth="yes"/>
      <point x="347" y="-426" type="line"/>
    </contour>
  </outline>
</glyph>
<glyph name="eng" format="1">
  <advance width="1233"/>
  <unicode hex="014B"/>
  <outline>
    <contour>
      <point x="379" y="-270" type="line" name="hr00"/>
      <point x="564" y="-270" type="line" smooth="yes" name="dv02"/>
      <point x="688" y="-270"/>
      <point x="760" y="-187"/>
      <point x="792" y="-20" type="curve" smooth="yes" name="dh01"/>
      <point x="931" y="694" type="line" smooth="yes" name="sv01"/>
      <point x="939" y="737"/>
      <point x="943" y="775" name="ab01"/>
      <point x="943" y="810" type="curve" smooth="yes"/>
      <point x="943" y="895" name="at02"/>
      <point x="920" y="987"/>
      <point x="771" y="987" type="curve" smooth="yes" name="iv01"/>
      <point x="595" y="987" name="at01"/>
      <point x="476" y="862" name="dh02"/>
      <point x="432" y="633" type="curve" smooth="yes"/>
      <point x="309" y="0" type="line"/>
      <point x="125" y="0" type="line" name="dv01"/>
      <point x="343" y="1120" type="line"/>
      <point x="507" y="1120" type="line"/>
      <point x="494" y="952" type="line" name="sh01"/>
      <point x="586" y="1081"/>
      <point x="710" y="1147"/>
      <point x="865" y="1147" type="curve" smooth="yes"/>
      <point x="1091" y="1147"/>
      <point x="1134" y="1004"/>
      <point x="1134" y="864" type="curve" smooth="yes"/>
      <point x="1134" y="813"/>
      <point x="1128" y="757"/>
      <point x="1116" y="694" type="curve" smooth="yes"/>
      <point x="977" y="-20" type="line" smooth="yes"/>
      <point x="927" y="-280"/>
      <point x="774" y="-426"/>
      <point x="554" y="-426" type="curve" smooth="yes"/>
      <point x="349" y="-426" type="line"/>
    </contour>
  </outline>
</glyph>
<glyph name="OE" format="1">
  <advance width="1233"/>
  <unicode hex="0152"/>
  <outline>
    <contour>
      <point x="467" y="0" type="line" smooth="yes" name="ab01"/>
      <point x="323" y="0"/>
      <point x="213" y="34" name="dh01"/>
      <point x="141" y="103" type="curve" smooth="yes"/>
      <point x="66" y="175"/>
      <point x="35" y="283"/>
      <point x="35" y="424" type="curve" smooth="yes" name="at01"/>
      <point x="35" y="507"/>
      <point x="45" y="621" name="sv01"/>
      <point x="68" y="742" type="curve" smooth="yes"/>
      <point x="91" y="863"/>
      <point x="121" y="979" name="dv02"/>
      <point x="154" y="1067" type="curve" smooth="yes" name="dv01"/>
      <point x="214" y="1227"/>
      <point x="287" y="1332" name="sv02"/>
      <point x="379" y="1396" type="curve"/>
      <point x="470" y="1461"/>
      <point x="597" y="1493" name="sv03"/>
      <point x="758" y="1493" type="curve" smooth="yes" name="sv04"/>
      <point x="1352" y="1493" type="line" name="sv05"/>
      <point x="1319" y="1323" type="line"/>
      <point x="961" y="1323" type="line"/>
      <point x="874" y="881" type="line"/>
      <point x="1202" y="881" type="line"/>
      <point x="1169" y="711" type="line" name="sh01"/>
      <point x="842" y="711" type="line" name="dh02"/>
      <point x="735" y="170" type="line"/>
      <point x="1104" y="170" type="line" name="sv06"/>
      <point x="1071" y="0" type="line"/>
    </contour>
    <contour>
      <point x="539" y="170" type="line"/>
      <point x="764" y="1323" type="line"/>
      <point x="702" y="1323" type="line" smooth="yes"/>
      <point x="623" y="1323"/>
      <point x="556" y="1305"/>
      <point x="501" y="1269" type="curve" smooth="yes"/>
      <point x="438" y="1229"/>
      <point x="402" y="1175"/>
      <point x="371" y="1106" type="curve" smooth="yes"/>
      <point x="355" y="1068"/>
      <point x="341" y="1034"/>
      <point x="322" y="961" type="curve" smooth="yes"/>
      <point x="303" y="892"/>
      <point x="288" y="826"/>
      <point x="272" y="745" type="curve" smooth="yes"/>
      <point x="257" y="674"/>
      <point x="248" y="616"/>
      <point x="240" y="556" type="curve" smooth="yes"/>
      <point x="233" y="500"/>
      <point x="229" y="452"/>
      <point x="229" y="416" type="curve" smooth="yes"/>
      <point x="229" y="336"/>
      <point x="249" y="273"/>
      <point x="292" y="230" type="curve" smooth="yes"/>
      <point x="336" y="187"/>
      <point x="401" y="170"/>
      <point x="477" y="170" type="curve" smooth="yes"/>
    </contour>
  </outline>
</glyph>
<glyph name="uni0156" format="1">
  <advance width="1233"/>
  <unicode hex="0156"/>
  <outline>
    <contour>
      <point x="281" y="1493" type="line" name="at01"/>
      <point x="697" y="1493" type="line" smooth="yes"/>
      <point x="973" y="1493" name="dh02"/>
      <point x="1131" y="1373" name="iv01"/>
      <point x="1131" y="1140" type="curve" smooth="yes"/>
      <point x="1131" y="913"/>
      <point x="982" y="734" name="ih01"/>
      <point x="746" y="705" type="curve"/>
      <point x="793" y="697"/>
      <point x="835" y="671" name="dv01"/>
      <point x="862" y="638" type="curve" smooth="yes"/>
      <point x="890" y="602" name="ab01"/>
      <point x="923" y="529"/>
      <point x="959" y="408" type="curve" name="dv02" smooth="yes"/>
      <point x="1080" y="0" type="line" name="dh01"/>
      <point x="879" y="0" type="line" name="sv01"/>
      <point x="773" y="377" type="line" smooth="yes"/>
      <point x="714" y="585"/>
      <point x="656" y="631"/>
      <point x="510" y="631" type="curve" name="iv02" smooth="yes"/>
      <point x="318" y="631" type="line" name="av01"/>
      <point x="195" y="0" type="line"/>
      <point x="-8" y="0" type="line"/>
    </contour>
    <contour>
      <point x="570" y="797" type="line" name="sh01" smooth="yes"/>
      <point x="787" y="797"/>
      <point x="928" y="920"/>
      <point x="928" y="1112" type="curve" smooth="yes"/>
      <point x="928" y="1260"/>
      <point x="847" y="1327"/>
      <point x="666" y="1327" type="curve" smooth="yes"/>
      <point x="453" y="1327" type="line"/>
      <point x="351" y="797" type="line"/>
    </contour>
    <contour>
      <point x="440" y="-199" type="line"/>
      <point x="679" y="-199" type="line"/>
      <point x="425" y="-544" type="line"/>
      <point x="279" y="-544" type="line"/>
    </contour>
  </outline>
</glyph>
<glyph name="uni0157" format="1">
  <advance width="1233"/>
  <unicode hex="0157"/>
  <outline>
    <contour>
      <point x="434" y="1120" type="line" name="at02"/>
      <point x="598" y="1120" type="line"/>
      <point x="578" y="901" type="line" name="iv01"/>
      <point x="667" y="1062" name="at01"/>
      <point x="812" y="1147"/>
      <point x="992" y="1147" type="curve" name="iv02" smooth="yes"/>
      <point x="1089" y="1147" name="sv01"/>
      <point x="1165" y="1123"/>
      <point x="1219" y="1075" type="curve" name="ab01"/>
      <point x="1184" y="889" type="line"/>
      <point x="1124" y="949"/>
      <point x="1044" y="977" name="iv03"/>
      <point x="948" y="977" type="curve" name="av01" smooth="yes"/>
      <point x="721" y="977"/>
      <point x="558" y="812"/>
      <point x="508" y="549" type="curve"/>
      <point x="401" y="0" type="line"/>
      <point x="217" y="0" type="line"/>
    </contour>
    <contour>
      <point x="213" y="-199" type="line"/>
      <point x="452" y="-199" type="line"/>
      <point x="198" y="-544" type="line"/>
      <point x="52" y="-544" type="line"/>
    </contour>
  </outline>
</glyph>
<glyph name="Rcaron" format="1">
  <advance width="1233"/>
  <unicode hex="0158"/>
  <outline>
    <contour>
      <point x="438" y="1861" type="line" name="av01"/>
      <point x="574" y="1861" type="line"/>
      <point x="713" y="1683" type="line"/>
      <point x="922" y="1861" type="line" name="av02"/>
      <point x="1073" y="1861" type="line" name="ih01"/>
      <point x="809" y="1595" type="line"/>
      <point x="596" y="1595" type="line"/>
    </contour>
    <contour>
      <point x="281" y="1493" type="line" name="at01"/>
      <point x="697" y="1493" type="line" smooth="yes"/>
      <point x="973" y="1493" name="dh02"/>
      <point x="1131" y="1373" name="iv01"/>
      <point x="1131" y="1140" type="curve" smooth="yes"/>
      <point x="1131" y="913"/>
      <point x="982" y="734" name="ih02"/>
      <point x="746" y="705" type="curve"/>
      <point x="793" y="697"/>
      <point x="835" y="671" name="dv01"/>
      <point x="862" y="638" type="curve" smooth="yes"/>
      <point x="890" y="602" name="ab01"/>
      <point x="923" y="529"/>
      <point x="959" y="408" type="curve" name="dv02" smooth="yes"/>
      <point x="1080" y="0" type="line" name="dh01"/>
      <point x="879" y="0" type="line" name="sv01"/>
      <point x="773" y="377" type="line" smooth="yes"/>
      <point x="714" y="585"/>
      <point x="656" y="631"/>
      <point x="510" y="631" type="curve" name="sh01" smooth="yes"/>
      <point x="318" y="631" type="line"/>
      <point x="195" y="0" type="line"/>
      <point x="-8" y="0" type="line"/>
    </contour>
    <contour>
      <point x="570" y="797" type="line" smooth="yes"/>
      <point x="787" y="797"/>
      <point x="928" y="920"/>
      <point x="928" y="1112" type="curve" smooth="yes"/>
      <point x="928" y="1260"/>
      <point x="847" y="1327"/>
      <point x="666" y="1327" type="curve" smooth="yes"/>
      <point x="453" y="1327" type="line"/>
      <point x="351" y="797" type="line"/>
    </contour>
  </outline>
</glyph>
<glyph name="Scedilla" format="1">
  <advance width="1233"/>
  <unicode hex="015E"/>
  <outline>
    <contour>
      <point x="490" y="1274" type="curve" smooth="yes" name="hr00"/>
      <point x="426" y="1223" name="dh02"/>
      <point x="387" y="1151"/>
      <point x="387" y="1068" type="curve" smooth="yes"/>
      <point x="387" y="1016"/>
      <point x="403" y="979"/>
      <point x="436" y="950" type="curve" smooth="yes" name="dh06"/>
      <point x="469" y="921"/>
      <point x="526" y="894" name="ih01"/>
      <point x="614" y="866" type="curve" smooth="yes"/>
      <point x="735" y="827" type="line" smooth="yes" name="dh04"/>
      <point x="848" y="791"/>
      <point x="921" y="753" name="dv01"/>
      <point x="974" y="694" type="curve" smooth="yes"/>
      <point x="1025" y="638" name="sh01"/>
      <point x="1049" y="572" name="ih02"/>
      <point x="1049" y="473" type="curve" smooth="yes"/>
      <point x="1049" y="326" name="dv02"/>
      <point x="995" y="201"/>
      <point x="883" y="109" type="curve" smooth="yes" name="dh03"/>
      <point x="799" y="40"/>
      <point x="692" y="-3" name="av01"/>
      <point x="567" y="-20" type="curve"/>
      <point x="587" y="-57"/>
      <point x="602" y="-88"/>
      <point x="610" y="-111" type="curve" smooth="yes" name="iv01"/>
      <point x="622" y="-143"/>
      <point x="627" y="-171"/>
      <point x="627" y="-198" type="curve" smooth="yes"/>
      <point x="627" y="-254" name="dh05"/>
      <point x="604" y="-304"/>
      <point x="557" y="-341" type="curve" smooth="yes"/>
      <point x="511" y="-377"/>
      <point x="447" y="-395"/>
      <point x="366" y="-395" type="curve" smooth="yes" name="dh01"/>
      <point x="339" y="-395"/>
      <point x="307" y="-393" name="at01"/>
      <point x="276" y="-388" type="curve" smooth="yes"/>
      <point x="246" y="-383"/>
      <point x="215" y="-376" name="iv02"/>
      <point x="182" y="-365" type="curve"/>
      <point x="207" y="-236" type="line" name="sv01"/>
      <point x="234" y="-249"/>
      <point x="265" y="-260"/>
      <point x="284" y="-265" type="curve" smooth="yes" name="sh02"/>
      <point x="307" y="-271"/>
      <point x="330" y="-274"/>
      <point x="353" y="-274" type="curve" smooth="yes"/>
      <point x="394" y="-274"/>
      <point x="432" y="-264"/>
      <point x="457" y="-244" type="curve" smooth="yes"/>
      <point x="482" y="-224"/>
      <point x="494" y="-195"/>
      <point x="494" y="-163" type="curve" smooth="yes"/>
      <point x="494" y="-140"/>
      <point x="488" y="-114"/>
      <point x="480" y="-93" type="curve" smooth="yes"/>
      <point x="476" y="-81"/>
      <point x="466" y="-56"/>
      <point x="451" y="-29" type="curve"/>
      <point x="435" y="-29" type="line" smooth="yes"/>
      <point x="358" y="-29"/>
      <point x="294" y="-21"/>
      <point x="226" y="-6" type="curve" smooth="yes"/>
      <point x="157" y="9"/>
      <point x="90" y="32"/>
      <point x="25" y="61" type="curve"/>
      <point x="66" y="270" type="line"/>
      <point x="131" y="225"/>
      <point x="197" y="191"/>
      <point x="265" y="168" type="curve" smooth="yes"/>
      <point x="333" y="145"/>
      <point x="403" y="135"/>
      <point x="475" y="135" type="curve" smooth="yes"/>
      <point x="590" y="135"/>
      <point x="676" y="163"/>
      <point x="745" y="223" type="curve" smooth="yes"/>
      <point x="814" y="282"/>
      <point x="848" y="355"/>
      <point x="848" y="444" type="curve" smooth="yes"/>
      <point x="848" y="503"/>
      <point x="833" y="542"/>
      <point x="804" y="573" type="curve"/>
      <point x="769" y="608"/>
      <point x="715" y="631"/>
      <point x="627" y="659" type="curve" smooth="yes"/>
      <point x="526" y="692" type="line" smooth="yes"/>
      <point x="418" y="727"/>
      <point x="328" y="765"/>
      <point x="269" y="824" type="curve" smooth="yes"/>
      <point x="220" y="873"/>
      <point x="195" y="933"/>
      <point x="195" y="1025" type="curve" smooth="yes"/>
      <point x="195" y="1160"/>
      <point x="248" y="1285"/>
      <point x="360" y="1380" type="curve" smooth="yes"/>
      <point x="471" y="1473"/>
      <point x="618" y="1520"/>
      <point x="783" y="1520" type="curve" smooth="yes"/>
      <point x="847" y="1520"/>
      <point x="902" y="1513"/>
      <point x="962" y="1500" type="curve" smooth="yes"/>
      <point x="1026" y="1485"/>
      <point x="1080" y="1469"/>
      <point x="1147" y="1442" type="curve"/>
      <point x="1108" y="1237" type="line"/>
      <point x="1053" y="1276"/>
      <point x="997" y="1306"/>
      <point x="940" y="1326" type="curve" smooth="yes"/>
      <point x="882" y="1346"/>
      <point x="822" y="1356"/>
      <point x="759" y="1356" type="curve" smooth="yes"/>
      <point x="646" y="1356"/>
      <point x="554" y="1325"/>
    </contour>
  </outline>
</glyph>
<glyph name="Tcaron" format="1">
  <advance width="1233"/>
  <unicode hex="0164"/>
  <outline>
    <contour>
      <point x="508" y="1861" type="line" name="av01"/>
      <point x="644" y="1861" type="line"/>
      <point x="783" y="1683" type="line"/>
      <point x="992" y="1861" type="line" name="av02"/>
      <point x="1143" y="1861" type="line"/>
      <point x="879" y="1595" type="line"/>
      <point x="666" y="1595" type="line"/>
    </contour>
    <contour>
      <point x="629" y="1323" type="line" name="sv01"/>
      <point x="160" y="1323" type="line"/>
      <point x="193" y="1493" type="line" name="at01"/>
      <point x="1333" y="1493" type="line"/>
      <point x="1300" y="1323" type="line" name="sv02"/>
      <point x="831" y="1323" type="line" name="sv03"/>
      <point x="575" y="0" type="line" name="ab01"/>
      <point x="371" y="0" type="line"/>
    </contour>
  </outline>
</glyph>
<glyph name="utilde" format="1">
  <advance width="1233"/>
  <unicode hex="0169"/>
  <outline>
    <contour>
      <point x="882" y="1270" type="curve" smooth="yes" name="dv01"/>
      <point x="837" y="1270"/>
      <point x="792" y="1283"/>
      <point x="737" y="1339" type="curve" smooth="yes" name="sv01"/>
      <point x="690" y="1388" type="line" smooth="yes" name="sv02"/>
      <point x="666" y="1413"/>
      <point x="641" y="1425" name="at03"/>
      <point x="616" y="1425" type="curve" smooth="yes"/>
      <point x="560" y="1425"/>
      <point x="533" y="1369" name="dv02"/>
      <point x="522" y="1272" type="curve" name="at04"/>
      <point x="397" y="1272" type="line"/>
      <point x="420" y="1451"/>
      <point x="493" y="1554" name="ab01"/>
      <point x="620" y="1554" type="curve" smooth="yes" name="dh01"/>
      <point x="673" y="1554"/>
      <point x="715" y="1536" name="at01"/>
      <point x="766" y="1485" type="curve" smooth="yes"/>
      <point x="813" y="1438" type="line" smooth="yes"/>
      <point x="840" y="1411" name="dh02"/>
      <point x="856" y="1399" name="sv03"/>
      <point x="883" y="1399" type="curve" smooth="yes"/>
      <point x="937" y="1399" name="at02"/>
      <point x="970" y="1451"/>
      <point x="981" y="1554" type="curve" name="ab02"/>
      <point x="1106" y="1554" type="line"/>
      <point x="1082" y="1367" name="iv01"/>
      <point x="1009" y="1270"/>
    </contour>
    <contour>
      <point x="409" y="-27" type="curve" smooth="yes"/>
      <point x="233" y="-27"/>
      <point x="125" y="74"/>
      <point x="125" y="253" type="curve" smooth="yes"/>
      <point x="125" y="296"/>
      <point x="131" y="362"/>
      <point x="143" y="426" type="curve" smooth="yes"/>
      <point x="276" y="1120" type="line"/>
      <point x="461" y="1120" type="line"/>
      <point x="326" y="426" type="line" smooth="yes"/>
      <point x="318" y="383"/>
      <point x="311" y="331"/>
      <point x="311" y="296" type="curve" smooth="yes"/>
      <point x="311" y="192"/>
      <point x="376" y="133"/>
      <point x="489" y="133" type="curve" smooth="yes"/>
      <point x="654" y="133"/>
      <point x="780" y="256"/>
      <point x="825" y="487" type="curve" smooth="yes"/>
      <point x="948" y="1120" type="line"/>
      <point x="1133" y="1120" type="line"/>
      <point x="915" y="0" type="line"/>
      <point x="751" y="0" type="line"/>
      <point x="764" y="168" type="line"/>
      <point x="668" y="38"/>
      <point x="550" y="-27"/>
    </contour>
  </outline>
</glyph>
<glyph name="Ubreve" format="1">
  <advance width="1233"/>
  <unicode hex="016C"/>
  <outline>
    <contour>
      <point x="1139" y="1861" type="curve" name="hr00"/>
      <point x="1018" y="1861" type="line"/>
      <point x="982" y="1784"/>
      <point x="912" y="1746"/>
      <point x="800" y="1746" type="curve" smooth="yes"/>
      <point x="745" y="1746"/>
      <point x="710" y="1754"/>
      <point x="683" y="1773" type="curve" smooth="yes"/>
      <point x="657" y="1790"/>
      <point x="638" y="1820"/>
      <point x="627" y="1861" type="curve"/>
      <point x="513" y="1861" type="line"/>
      <point x="528" y="1778"/>
      <point x="556" y="1723"/>
      <point x="603" y="1680" type="curve"/>
      <point x="650" y="1639"/>
      <point x="713" y="1619"/>
      <point x="793" y="1619" type="curve" smooth="yes"/>
      <point x="878" y="1619"/>
      <point x="951" y="1641"/>
      <point x="1013" y="1684" type="curve" smooth="yes"/>
      <point x="1075" y="1727"/>
      <point x="1117" y="1786"/>
    </contour>
    <contour>
      <point x="679" y="2" type="curve" smooth="yes"/>
      <point x="811" y="45"/>
      <point x="903" y="121"/>
      <point x="964" y="253" type="curve"/>
      <point x="985" y="302"/>
      <point x="1001" y="348"/>
      <point x="1013" y="392" type="curve" smooth="yes"/>
      <point x="1026" y="436"/>
      <point x="1039" y="496"/>
      <point x="1053" y="573" type="curve"/>
      <point x="1231" y="1493" type="line"/>
      <point x="1028" y="1493" type="line"/>
      <point x="850" y="573" type="line"/>
      <point x="829" y="472"/>
      <point x="813" y="402"/>
      <point x="801" y="361" type="curve" smooth="yes"/>
      <point x="786" y="308"/>
      <point x="768" y="267"/>
      <point x="746" y="238" type="curve" smooth="yes"/>
      <point x="725" y="209"/>
      <point x="692" y="185"/>
      <point x="649" y="165" type="curve" smooth="yes"/>
      <point x="605" y="144"/>
      <point x="561" y="135"/>
      <point x="501" y="135" type="curve" smooth="yes"/>
      <point x="424" y="135"/>
      <point x="369" y="150"/>
      <point x="334" y="181" type="curve"/>
      <point x="299" y="210"/>
      <point x="279" y="257"/>
      <point x="279" y="313" type="curve" smooth="yes"/>
      <point x="279" y="360"/>
      <point x="289" y="433"/>
      <point x="309" y="532" type="curve" smooth="yes"/>
      <point x="315" y="561" type="line" smooth="yes"/>
      <point x="316" y="569"/>
      <point x="317" y="573"/>
      <point x="317" y="573" type="curve"/>
      <point x="496" y="1493" type="line"/>
      <point x="293" y="1493" type="line"/>
      <point x="115" y="573" type="line"/>
      <point x="106" y="530"/>
      <point x="97" y="484"/>
      <point x="90" y="433" type="curve" smooth="yes"/>
      <point x="83" y="382"/>
      <point x="80" y="343"/>
      <point x="80" y="315" type="curve" smooth="yes"/>
      <point x="80" y="96"/>
      <point x="224" y="-29"/>
      <point x="477" y="-29" type="curve" smooth="yes"/>
      <point x="549" y="-29"/>
      <point x="616" y="-19"/>
    </contour>
  </outline>
</glyph>
<glyph name="uring" format="1">
  <advance width="1233"/>
  <unicode hex="016F"/>
  <outline>
    <contour>
      <point x="738" y="1186" type="qcurve" name="dv03"/>
      <point x="681" y="1186"/>
      <point x="581" y="1229"/>
      <point x="507" y="1303"/>
      <point x="464" y="1403"/>
      <point x="464" y="1461" type="qcurve" name="dh03"/>
      <point x="464" y="1519"/>
      <point x="507" y="1619"/>
      <point x="581" y="1693"/>
      <point x="681" y="1735"/>
      <point x="738" y="1735" type="qcurve" name="dv02"/>
      <point x="795" y="1735"/>
      <point x="896" y="1693"/>
      <point x="970" y="1619"/>
      <point x="1013" y="1519"/>
      <point x="1013" y="1461" type="qcurve" name="dh06"/>
      <point x="1013" y="1403"/>
      <point x="970" y="1303"/>
      <point x="896" y="1229"/>
      <point x="795" y="1186"/>
    </contour>
    <contour>
      <point x="738" y="1309" type="qcurve" name="dv04"/>
      <point x="770" y="1309"/>
      <point x="825" y="1333"/>
      <point x="866" y="1373"/>
      <point x="890" y="1428"/>
      <point x="890" y="1460" type="qcurve" name="dh05"/>
      <point x="890" y="1492"/>
      <point x="866" y="1547"/>
      <point x="825" y="1588"/>
      <point x="770" y="1612"/>
      <point x="738" y="1612" type="qcurve" name="dv01"/>
      <point x="706" y="1612"/>
      <point x="651" y="1589"/>
      <point x="610" y="1548"/>
      <point x="587" y="1493"/>
      <point x="587" y="1461" type="qcurve" name="dh04"/>
      <point x="587" y="1429"/>
      <point x="610" y="1373"/>
      <point x="651" y="1332"/>
      <point x="706" y="1309"/>
    </contour>
    <contour>
      <point x="409" y="-27" type="qcurve" name="ab01"/>
      <point x="343" y="-27"/>
      <point x="238" y="10"/>
      <point x="164" y="82"/>
      <point x="125" y="186"/>
      <point x="125" y="253" type="qcurve" name="dh01"/>
      <point x="125" y="285"/>
      <point x="134" y="378"/>
      <point x="143" y="426" type="qcurve"/>
      <point x="276" y="1120" type="line" name="at01"/>
      <point x="461" y="1120" type="line" name="sh01"/>
      <point x="326" y="426" type="line"/>
      <point x="320" y="394"/>
      <point x="311" y="322"/>
      <point x="311" y="296" type="qcurve" name="dh02"/>
      <point x="311" y="218"/>
      <point x="404" y="133"/>
      <point x="489" y="133" type="qcurve" name="sv01"/>
      <point x="613" y="133"/>
      <point x="791" y="314"/>
      <point x="825" y="487" type="qcurve"/>
      <point x="948" y="1120" type="line" name="at02"/>
      <point x="1133" y="1120" type="line"/>
      <point x="915" y="0" type="line" name="ab02"/>
      <point x="751" y="0" type="line"/>
      <point x="764" y="168" type="line" name="ih01"/>
      <point x="620" y="-27"/>
    </contour>
  </outline>
</glyph>
<glyph name="uhungarumlaut" format="1">
  <advance width="1233"/>
  <unicode hex="0171"/>
  <outline>
    <contour>
      <point x="688" y="1648" type="line" name="dv02"/>
      <point x="877" y="1648" type="line"/>
      <point x="575" y="1272" type="line" name="sv01"/>
      <point x="440" y="1272" type="line"/>
    </contour>
    <contour>
      <point x="1028" y="1648" type="line"/>
      <point x="1225" y="1648" type="line" name="sv02"/>
      <point x="901" y="1272" type="line"/>
      <point x="766" y="1272" type="line" name="dv01"/>
    </contour>
    <contour>
      <point x="409" y="-27" type="curve" smooth="yes" name="ab01"/>
      <point x="233" y="-27" name="dh01"/>
      <point x="125" y="74"/>
      <point x="125" y="253" type="curve" smooth="yes" name="at01"/>
      <point x="125" y="296"/>
      <point x="131" y="362"/>
      <point x="143" y="426" type="curve" smooth="yes" name="dh02"/>
      <point x="276" y="1120" type="line" name="sv03"/>
      <point x="461" y="1120" type="line"/>
      <point x="326" y="426" type="line" smooth="yes" name="at02"/>
      <point x="318" y="383"/>
      <point x="311" y="331" name="ab02"/>
      <point x="311" y="296" type="curve" smooth="yes"/>
      <point x="311" y="192" name="iv01"/>
      <point x="376" y="133"/>
      <point x="489" y="133" type="curve" smooth="yes"/>
      <point x="654" y="133"/>
      <point x="780" y="256"/>
      <point x="825" y="487" type="curve" smooth="yes"/>
      <point x="948" y="1120" type="line"/>
      <point x="1133" y="1120" type="line"/>
      <point x="915" y="0" type="line"/>
      <point x="751" y="0" type="line"/>
      <point x="764" y="168" type="line"/>
      <point x="668" y="38"/>
      <point x="550" y="-27"/>
    </contour>
  </outline>
</glyph>
<glyph name="uogonek" format="1">
  <advance width="1233"/>
  <unicode hex="0173"/>
  <outline>
    <contour>
      <point x="409" y="-27" type="curve" smooth="yes" name="ab02"/>
      <point x="233" y="-27" name="sh01"/>
      <point x="125" y="74"/>
      <point x="125" y="253" type="curve" smooth="yes" name="at01"/>
      <point x="125" y="296"/>
      <point x="131" y="362"/>
      <point x="143" y="426" type="curve" smooth="yes" name="sh02"/>
      <point x="276" y="1120" type="line" name="sv01"/>
      <point x="461" y="1120" type="line"/>
      <point x="326" y="426" type="line" smooth="yes" name="at02"/>
      <point x="318" y="383"/>
      <point x="311" y="331" name="ab01"/>
      <point x="311" y="296" type="curve" smooth="yes"/>
      <point x="311" y="192" name="ih01"/>
      <point x="376" y="133"/>
      <point x="489" y="133" type="curve" smooth="yes" name="dv01"/>
      <point x="654" y="133" name="ah02"/>
      <point x="780" y="256" name="sh04"/>
      <point x="825" y="487" type="curve" smooth="yes" name="iv01"/>
      <point x="948" y="1120" type="line" name="sh03"/>
      <point x="1133" y="1120" type="line" name="dv02"/>
      <point x="915" y="0" type="line"/>
      <point x="751" y="0" type="line"/>
      <point x="764" y="168" type="line"/>
      <point x="668" y="38" name="ah01"/>
      <point x="550" y="-27"/>
    </contour>
    <contour>
      <point x="850" y="-397" type="curve" smooth="yes"/>
      <point x="719" y="-397"/>
      <point x="645" y="-340"/>
      <point x="645" y="-247" type="curve" smooth="yes"/>
      <point x="645" y="-172"/>
      <point x="693" y="-95"/>
      <point x="797" y="-2" type="curve"/>
      <point x="916" y="-2" type="line"/>
      <point x="835" y="-79"/>
      <point x="791" y="-146"/>
      <point x="791" y="-202" type="curve" smooth="yes"/>
      <point x="791" y="-249"/>
      <point x="823" y="-274"/>
      <point x="887" y="-274" type="curve" smooth="yes"/>
      <point x="926" y="-274"/>
      <point x="971" y="-264"/>
      <point x="1014" y="-244" type="curve"/>
      <point x="989" y="-377" type="line"/>
      <point x="943" y="-390"/>
      <point x="897" y="-397"/>
    </contour>
  </outline>
</glyph>
<glyph name="zacute" format="1">
  <advance width="1233"/>
  <unicode hex="017A"/>
  <outline>
    <contour>
      <point x="940" y="1646" type="line" name="av01"/>
      <point x="1159" y="1646" type="line"/>
      <point x="764" y="1270" type="line"/>
      <point x="608" y="1270" type="line" name="iv01"/>
    </contour>
    <contour>
      <point x="111" y="168" type="line"/>
      <point x="895" y="973" type="line" name="sv01"/>
      <point x="291" y="973" type="line"/>
      <point x="319" y="1120" type="line" name="at01"/>
      <point x="1133" y="1120" type="line"/>
      <point x="1100" y="952" type="line"/>
      <point x="315" y="147" type="line" name="sv02"/>
      <point x="944" y="147" type="line"/>
      <point x="915" y="0" type="line" name="ab01"/>
      <point x="78" y="0" type="line"/>
    </contour>
  </outline>
</glyph>
<glyph name="oslashacute" format="1">
  <advance width="1233"/>
  <unicode hex="01FF"/>
  <outline>
    <contour>
      <point x="907" y="1673" type="line" name="sh01"/>
      <point x="1126" y="1673" type="line" name="sh03"/>
      <point x="731" y="1297" type="line"/>
      <point x="575" y="1297" type="line" name="iv01"/>
    </contour>
    <contour>
      <point x="47" y="-20" type="line"/>
      <point x="176" y="133" type="line"/>
      <point x="138" y="196" name="sh04"/>
      <point x="119" y="281"/>
      <point x="119" y="389" type="curve" name="at01" smooth="yes"/>
      <point x="119" y="576"/>
      <point x="173" y="763"/>
      <point x="274" y="911" type="curve" name="at02" smooth="yes"/>
      <point x="381" y="1066"/>
      <point x="521" y="1147" name="sh02"/>
      <point x="722" y="1147" type="curve" smooth="yes"/>
      <point x="830" y="1147" name="dv01"/>
      <point x="908" y="1123"/>
      <point x="969" y="1075" type="curve" name="av01"/>
      <point x="1081" y="1212" type="line"/>
      <point x="1174" y="1135" type="line" name="sv01"/>
      <point x="1051" y="989" type="line" name="sh05"/>
      <point x="1094" y="921" name="sh06"/>
      <point x="1114" y="838" name="dv02"/>
      <point x="1114" y="729" type="curve" name="ah02" smooth="yes"/>
      <point x="1114" y="539" name="sh07"/>
      <point x="1054" y="346"/>
      <point x="958" y="207" type="curve" smooth="yes"/>
      <point x="854" y="56" name="ah01"/>
      <point x="711" y="-29" name="sh08"/>
      <point x="511" y="-29" type="curve" smooth="yes"/>
      <point x="403" y="-29"/>
      <point x="327" y="-4"/>
      <point x="258" y="45" type="curve"/>
      <point x="139" y="-96" type="line"/>
    </contour>
    <contour>
      <point x="852" y="938" type="line"/>
      <point x="812" y="975"/>
      <point x="760" y="991"/>
      <point x="703" y="991" type="curve" smooth="yes"/>
      <point x="475" y="991"/>
      <point x="313" y="736"/>
      <point x="313" y="388" type="curve" smooth="yes"/>
      <point x="313" y="349"/>
      <point x="315" y="326"/>
      <point x="319" y="302" type="curve"/>
    </contour>
    <contour>
      <point x="533" y="127" type="curve" smooth="yes"/>
      <point x="756" y="127"/>
      <point x="920" y="383"/>
      <point x="920" y="731" type="curve" smooth="yes"/>
      <point x="920" y="770"/>
      <point x="918" y="798"/>
      <point x="911" y="825" type="curve"/>
      <point x="377" y="186" type="line"/>
      <point x="416" y="147"/>
      <point x="469" y="127"/>
    </contour>
  </outline>
</glyph>
<glyph name="uni021A" format="1">
  <advance width="1233"/>
  <unicode hex="021A"/>
  <outline>
    <contour>
      <point x="1333" y="1493" type="line" name="at01"/>
      <point x="1300" y="1323" type="line" name="sv01"/>
      <point x="831" y="1323" type="line"/>
      <point x="575" y="0" type="line" name="ab01"/>
      <point x="555" y="0" type="line" name="ih01"/>
      <point x="606" y="-89" name="dh02"/>
      <point x="627" y="-143" name="dv01"/>
      <point x="627" y="-198" type="curve" smooth="yes"/>
      <point x="627" y="-314"/>
      <point x="526" y="-395" name="dv02"/>
      <point x="366" y="-395" type="curve" smooth="yes" name="dh01"/>
      <point x="309" y="-395" name="ab02"/>
      <point x="246" y="-385"/>
      <point x="182" y="-365" type="curve" name="sv02"/>
      <point x="207" y="-236" type="line" name="sv03"/>
      <point x="260" y="-261"/>
      <point x="308" y="-274"/>
      <point x="355" y="-274" type="curve" smooth="yes"/>
      <point x="442" y="-274"/>
      <point x="494" y="-230"/>
      <point x="494" y="-162" type="curve" smooth="yes"/>
      <point x="494" y="-122"/>
      <point x="475" y="-72"/>
      <point x="436" y="0" type="curve"/>
      <point x="371" y="0" type="line"/>
      <point x="629" y="1323" type="line"/>
      <point x="160" y="1323" type="line"/>
      <point x="193" y="1493" type="line"/>
    </contour>
  </outline>
</glyph>
<glyph name="uni02B9" format="1">
  <advance width="1233"/>
  <unicode hex="02B9"/>
  <outline>
    <contour>
      <point x="605" y="1638" type="line" name="av01"/>
      <point x="795" y="1638" type="line"/>
      <point x="589" y="1140" type="line" name="at01"/>
      <point x="444" y="1140" type="line"/>
    </contour>
  </outline>
</glyph>
<glyph name="uni02BD" format="1">
  <advance width="1233"/>
  <unicode hex="02BD"/>
  <outline>
    <contour>
      <point x="688" y="1218" type="line" name="dv01"/>
      <point x="555" y="1218" name="dh01"/>
      <point x="488" y="1277"/>
      <point x="488" y="1395" type="curve" smooth="yes"/>
      <point x="488" y="1419" name="dv02"/>
      <point x="489" y="1446"/>
      <point x="496" y="1475" type="curve"/>
      <point x="545" y="1729" type="line" name="dh02"/>
      <point x="786" y="1729" type="line"/>
      <point x="737" y="1475" type="line"/>
      <point x="626" y="1475" type="line"/>
      <point x="622" y="1458"/>
      <point x="621" y="1443"/>
      <point x="621" y="1428" type="curve" smooth="yes"/>
      <point x="621" y="1370"/>
      <point x="651" y="1341"/>
      <point x="711" y="1341" type="curve"/>
    </contour>
  </outline>
</glyph>
<glyph name="uni02BE" format="1">
  <advance width="1233"/>
  <unicode hex="02BE"/>
  <outline>
    <contour>
      <point x="615" y="1007" type="curve" name="sv01"/>
      <point x="622" y="1048" name="at02"/>
      <point x="630" y="1089" name="dh01"/>
      <point x="638" y="1130" type="curve"/>
      <point x="733" y="1130" name="at01"/>
      <point x="823" y="1212" name="dh02"/>
      <point x="823" y="1311" type="curve" smooth="yes"/>
      <point x="823" y="1382"/>
      <point x="773" y="1433"/>
      <point x="697" y="1433" type="curve" name="sh01"/>
      <point x="721" y="1556" type="line"/>
      <point x="856" y="1556"/>
      <point x="947" y="1463"/>
      <point x="947" y="1335" type="curve" smooth="yes"/>
      <point x="947" y="1318"/>
      <point x="945" y="1301"/>
      <point x="942" y="1282" type="curve"/>
      <point x="912" y="1129"/>
      <point x="768" y="1007"/>
    </contour>
  </outline>
</glyph>
<glyph name="uni02BE" format="1">
  <advance width="1233"/>
  <unicode hex="02BE"/>
  <outline>
    <contour>
      <point x="615" y="1007" type="curve" name="sv01"/>
      <point x="622" y="1048" name="at02"/>
      <point x="630" y="1089" name="dh01"/>
      <point x="638" y="1130" type="curve"/>
      <point x="733" y="1130" name="at01"/>
      <point x="823" y="1212" name="dh02"/>
      <point x="823" y="1311" type="curve" smooth="yes"/>
      <point x="823" y="1382"/>
      <point x="773" y="1433"/>
      <point x="697" y="1433" type="curve" name="sh01"/>
      <point x="721" y="1556" type="line"/>
      <point x="856" y="1556"/>
      <point x="947" y="1463"/>
      <point x="947" y="1335" type="curve" smooth="yes"/>
      <point x="947" y="1318"/>
      <point x="945" y="1301"/>
      <point x="942" y="1282" type="curve"/>
      <point x="912" y="1129"/>
      <point x="768" y="1007"/>
    </contour>
  </outline>
</glyph>
<glyph name="circumflex" format="1">
  <advance width="1233"/>
  <unicode hex="02C6"/>
  <outline>
    <contour>
      <point x="717" y="1638" type="line" name="av03"/>
      <point x="864" y="1638" type="line"/>
      <point x="1028" y="1262" type="line" name="av01"/>
      <point x="895" y="1262" type="line"/>
      <point x="778" y="1503" type="line" name="iv01"/>
      <point x="553" y="1262" type="line" name="av02"/>
      <point x="397" y="1262" type="line"/>
    </contour>
  </outline>
</glyph>
<glyph name="uni02CD" format="1">
  <advance width="1233"/>
  <unicode hex="02CD"/>
  <outline>
    <contour>
      <point x="133" y="-209" type="line" name="hr00"/>
      <point x="731" y="-209" type="line" name="dv02"/>
      <point x="702" y="-357" type="line" name="dv01"/>
      <point x="104" y="-357" type="line"/>
    </contour>
  </outline>
</glyph>
<glyph name="ring" format="1">
  <advance width="1233"/>
  <unicode hex="02DA"/>
  <outline>
    <contour>
      <point x="778" y="1321" type="curve" smooth="yes" name="dv01"/>
      <point x="702" y="1321"/>
      <point x="637" y="1348" name="sh01"/>
      <point x="584" y="1401" type="curve" smooth="yes"/>
      <point x="531" y="1454" name="dv04"/>
      <point x="504" y="1519"/>
      <point x="504" y="1595" type="curve" smooth="yes" name="sh02"/>
      <point x="504" y="1672"/>
      <point x="531" y="1738"/>
      <point x="584" y="1791" type="curve" smooth="yes" name="dv02"/>
      <point x="637" y="1844"/>
      <point x="701" y="1870" name="ah02"/>
      <point x="778" y="1870" type="curve" smooth="yes"/>
      <point x="855" y="1870" name="dv03"/>
      <point x="920" y="1844"/>
      <point x="973" y="1791" type="curve" smooth="yes" name="sh03"/>
      <point x="1026" y="1738"/>
      <point x="1053" y="1672"/>
      <point x="1053" y="1595" type="curve" smooth="yes" name="ah01"/>
      <point x="1053" y="1519" name="sh04"/>
      <point x="1026" y="1454"/>
      <point x="973" y="1401" type="curve" smooth="yes"/>
      <point x="920" y="1348"/>
      <point x="855" y="1321"/>
    </contour>
    <contour>
      <point x="778" y="1444" type="curve" smooth="yes"/>
      <point x="821" y="1444"/>
      <point x="857" y="1459"/>
      <point x="886" y="1488" type="curve" smooth="yes"/>
      <point x="915" y="1517"/>
      <point x="930" y="1553"/>
      <point x="930" y="1595" type="curve" smooth="yes"/>
      <point x="930" y="1638"/>
      <point x="915" y="1674"/>
      <point x="886" y="1703" type="curve" smooth="yes"/>
      <point x="857" y="1732"/>
      <point x="821" y="1747"/>
      <point x="778" y="1747" type="curve" smooth="yes"/>
      <point x="735" y="1747"/>
      <point x="700" y="1733"/>
      <point x="671" y="1704" type="curve" smooth="yes"/>
      <point x="642" y="1675"/>
      <point x="627" y="1638"/>
      <point x="627" y="1595" type="curve" smooth="yes"/>
      <point x="627" y="1553"/>
      <point x="642" y="1517"/>
      <point x="671" y="1488" type="curve" smooth="yes"/>
      <point x="700" y="1459"/>
      <point x="736" y="1444"/>
    </contour>
  </outline>
</glyph>
<glyph name="hungarumlaut" format="1">
  <advance width="1233"/>
  <unicode hex="02DD"/>
  <outline>
    <contour>
      <point x="688" y="1638" type="line" name="dv02"/>
      <point x="877" y="1638" type="line"/>
      <point x="575" y="1262" type="line" name="sv01"/>
      <point x="440" y="1262" type="line"/>
    </contour>
    <contour>
      <point x="1028" y="1638" type="line"/>
      <point x="1225" y="1638" type="line" name="sv02"/>
      <point x="901" y="1262" type="line"/>
      <point x="766" y="1262" type="line" name="dv01"/>
    </contour>
  </outline>
</glyph>
<glyph name="gravecomb" format="1">
  <advance width="0"/>
  <unicode hex="0300"/>
  <outline>
    <contour>
      <point x="-780" y="1638" type="line" name="av02"/>
      <point x="-582" y="1638" type="line"/>
      <point x="-385" y="1262" type="line" name="av01"/>
      <point x="-528" y="1262" type="line"/>
    </contour>
  </outline>
</glyph>
<glyph name="acutecomb" format="1">
  <advance width="0"/>
  <unicode hex="0301"/>
  <outline>
    <contour>
      <point x="-326" y="1638" type="line" name="av02"/>
      <point x="-107" y="1638" type="line"/>
      <point x="-502" y="1262" type="line" name="av01"/>
      <point x="-658" y="1262" type="line"/>
    </contour>
  </outline>
</glyph>
<glyph name="uni0306" format="1">
  <advance width="0"/>
  <unicode hex="0306"/>
  <outline>
    <contour>
      <point x="-486" y="1321" type="qcurve" name="dv01"/>
      <point x="-620" y="1321"/>
      <point x="-764" y="1449"/>
      <point x="-764" y="1567" type="qcurve" name="dh01"/>
      <point x="-764" y="1584"/>
      <point x="-763" y="1600"/>
      <point x="-761" y="1608" type="qcurve"/>
      <point x="-641" y="1608" type="line" name="sv01"/>
      <point x="-641" y="1591" type="line" name="dh02"/>
      <point x="-641" y="1525"/>
      <point x="-554" y="1458"/>
      <point x="-472" y="1458" type="qcurve" name="dv02"/>
      <point x="-387" y="1458"/>
      <point x="-283" y="1533"/>
      <point x="-254" y="1608" type="qcurve" name="sv02"/>
      <point x="-135" y="1608" type="line"/>
      <point x="-168" y="1464"/>
      <point x="-347" y="1321"/>
    </contour>
  </outline>
</glyph>
<glyph name="uni0307" format="1">
  <advance width="0"/>
  <unicode hex="0307"/>
  <outline>
    <contour>
      <point x="-561" y="1552" type="line" name="hr00"/>
      <point x="-356" y="1552" type="line" name="dv02"/>
      <point x="-397" y="1348" type="line" name="dv01"/>
      <point x="-602" y="1348" type="line"/>
    </contour>
  </outline>
</glyph>
<glyph name="hookabovecomb" format="1">
  <advance width="0"/>
  <unicode hex="0309"/>
  <outline>
    <contour>
      <point x="-711" y="1374" type="line" name="hr00"/>
      <point x="-660" y="1390"/>
      <point x="-604" y="1425" name="dh01"/>
      <point x="-582" y="1444" type="curve" name="sv01" smooth="yes"/>
      <point x="-562" y="1463" name="iv01"/>
      <point x="-541" y="1501"/>
      <point x="-541" y="1536" type="curve" name="dv02" smooth="yes"/>
      <point x="-541" y="1576" name="dh02"/>
      <point x="-567" y="1611" name="sh01"/>
      <point x="-654" y="1611" type="curve" name="sh02" smooth="yes"/>
      <point x="-701" y="1611"/>
      <point x="-760" y="1602" name="dv01"/>
      <point x="-808" y="1579" type="curve"/>
      <point x="-783" y="1710" type="line"/>
      <point x="-722" y="1726"/>
      <point x="-663" y="1734"/>
      <point x="-604" y="1734" type="curve" smooth="yes"/>
      <point x="-464" y="1734"/>
      <point x="-394" y="1688"/>
      <point x="-394" y="1596" type="curve" smooth="yes"/>
      <point x="-394" y="1585"/>
      <point x="-395" y="1575"/>
      <point x="-397" y="1564" type="curve" smooth="yes"/>
      <point x="-399" y="1554" type="line" smooth="yes"/>
      <point x="-415" y="1470"/>
      <point x="-490" y="1397"/>
      <point x="-567" y="1354" type="curve"/>
      <point x="-584" y="1266" type="line"/>
      <point x="-732" y="1266" type="line"/>
    </contour>
  </outline>
</glyph>
<glyph name="uni030A" format="1">
  <advance width="0"/>
  <unicode hex="030A"/>
  <outline>
    <contour>
      <point x="-455" y="1321" type="curve" name="dv01" smooth="yes"/>
      <point x="-607" y="1321" name="sh01"/>
      <point x="-729" y="1442" name="dv04"/>
      <point x="-729" y="1596" type="curve" name="sh02" smooth="yes"/>
      <point x="-729" y="1751"/>
      <point x="-607" y="1870" name="dv02"/>
      <point x="-455" y="1870" type="curve" name="ah02" smooth="yes"/>
      <point x="-302" y="1870" name="dv03"/>
      <point x="-180" y="1751" name="sh03"/>
      <point x="-180" y="1596" type="curve" smooth="yes"/>
      <point x="-180" y="1442" name="ah01"/>
      <point x="-302" y="1321"/>
    </contour>
    <contour>
      <point x="-455" y="1444" type="curve" smooth="yes"/>
      <point x="-371" y="1444"/>
      <point x="-303" y="1511"/>
      <point x="-303" y="1595" type="curve" smooth="yes"/>
      <point x="-303" y="1679"/>
      <point x="-371" y="1747"/>
      <point x="-455" y="1747" type="curve" smooth="yes"/>
      <point x="-540" y="1747"/>
      <point x="-606" y="1681"/>
      <point x="-606" y="1596" type="curve" smooth="yes"/>
      <point x="-606" y="1510"/>
      <point x="-540" y="1444"/>
    </contour>
  </outline>
</glyph>
<glyph name="uni030D" format="1">
  <advance width="0"/>
  <unicode hex="030D"/>
  <outline>
    <contour>
      <point x="-644" y="1706" type="line" name="av02"/>
      <point x="-508" y="1706" type="line"/>
      <point x="-594" y="1262" type="line" name="av01"/>
      <point x="-730" y="1262" type="line"/>
    </contour>
  </outline>
</glyph>
<glyph name="uni030F" format="1">
  <advance width="0"/>
  <unicode hex="030F"/>
  <outline>
    <contour>
      <point x="-849" y="1638" type="line" name="sv01"/>
      <point x="-671" y="1638" type="line"/>
      <point x="-539" y="1262" type="line" name="dv01"/>
      <point x="-674" y="1262" type="line"/>
    </contour>
    <contour>
      <point x="-507" y="1638" type="line" name="dv02"/>
      <point x="-337" y="1638" type="line"/>
      <point x="-220" y="1262" type="line" name="sv02"/>
      <point x="-357" y="1262" type="line"/>
    </contour>
  </outline>
</glyph>
<glyph name="uni0312" format="1">
  <advance width="0"/>
  <unicode hex="0312"/>
  <outline>
    <contour>
      <point x="-510" y="1312" type="line" name="av01"/>
      <point x="-364" y="1312" type="line"/>
      <point x="-525" y="967" type="line" name="av02"/>
      <point x="-764" y="967" type="line"/>
    </contour>
  </outline>
</glyph>
<glyph name="uni0314" format="1">
  <advance width="0"/>
  <unicode hex="0314"/>
  <outline>
    <contour>
      <point x="-545" y="1218" type="line" name="dv01"/>
      <point x="-678" y="1218" name="dh01"/>
      <point x="-745" y="1277"/>
      <point x="-745" y="1395" type="curve" smooth="yes"/>
      <point x="-745" y="1419" name="dv02"/>
      <point x="-744" y="1446"/>
      <point x="-737" y="1475" type="curve"/>
      <point x="-688" y="1729" type="line" name="dh02"/>
      <point x="-447" y="1729" type="line"/>
      <point x="-496" y="1475" type="line"/>
      <point x="-607" y="1475" type="line"/>
      <point x="-611" y="1458"/>
      <point x="-612" y="1443"/>
      <point x="-612" y="1428" type="curve" smooth="yes"/>
      <point x="-612" y="1370"/>
      <point x="-582" y="1341"/>
      <point x="-522" y="1341" type="curve"/>
    </contour>
  </outline>
</glyph>
<glyph name="uni0315" format="1">
  <advance width="0"/>
  <unicode hex="0315"/>
  <outline>
    <contour>
      <point x="-513" y="1638" type="line" name="dv02"/>
      <point x="-294" y="1638" type="line"/>
      <point x="-502" y="1262" type="line" name="dv01"/>
      <point x="-658" y="1262" type="line"/>
    </contour>
  </outline>
</glyph>
<glyph name="uni0318" format="1">
  <advance width="0"/>
  <unicode hex="0318"/>
  <outline>
    <contour>
      <point x="-672" y="-590" type="line" name="sv01"/>
      <point x="-848" y="-590" type="line"/>
      <point x="-822" y="-454" type="line"/>
      <point x="-646" y="-454" type="line" name="dv02"/>
      <point x="-612" y="-277" type="line" name="av01"/>
      <point x="-476" y="-277" type="line"/>
      <point x="-571" y="-767" type="line"/>
      <point x="-707" y="-767" type="line" name="dv01"/>
    </contour>
  </outline>
</glyph>
<glyph name="uni031A" format="1">
  <advance width="0"/>
  <unicode hex="031A"/>
  <outline>
    <contour>
      <point x="-486" y="1768" type="line" name="sv01"/>
      <point x="-840" y="1768" type="line"/>
      <point x="-814" y="1904" type="line"/>
      <point x="-324" y="1904" type="line" name="dv02"/>
      <point x="-419" y="1414" type="line" name="dv01"/>
      <point x="-555" y="1414" type="line"/>
    </contour>
  </outline>
</glyph>
<glyph name="uni031C" format="1">
  <advance width="0"/>
  <unicode hex="031C"/>
  <outline>
    <contour>
      <point x="-749" y="-502" type="line" name="ab01"/>
      <point x="-873" y="-502" name="dh01"/>
      <point x="-930" y="-415" name="sv01"/>
      <point x="-930" y="-321" type="curve" name="sv02" smooth="yes"/>
      <point x="-930" y="-173" name="dh02"/>
      <point x="-787" y="-63"/>
      <point x="-663" y="-63" type="curve"/>
      <point x="-682" y="-161" type="line"/>
      <point x="-750" y="-161"/>
      <point x="-830" y="-222"/>
      <point x="-830" y="-304" type="curve" smooth="yes"/>
      <point x="-830" y="-356"/>
      <point x="-798" y="-404"/>
      <point x="-730" y="-404" type="curve"/>
    </contour>
  </outline>
</glyph>
<glyph name="uni031D" format="1">
  <advance width="0"/>
  <unicode hex="031D"/>
  <outline>
    <contour>
      <point x="-842" y="-454" type="line" name="sv01"/>
      <point x="-665" y="-454" type="line"/>
      <point x="-631" y="-277" type="line"/>
      <point x="-495" y="-277" type="line" name="sv02"/>
      <point x="-529" y="-454" type="line"/>
      <point x="-352" y="-454" type="line" name="dv02"/>
      <point x="-379" y="-590" type="line" name="dv01"/>
      <point x="-869" y="-590" type="line"/>
    </contour>
  </outline>
</glyph>
<glyph name="uni031E" format="1">
  <advance width="0"/>
  <unicode hex="031E"/>
  <outline>
    <contour>
      <point x="-638" y="-413" type="line" name="hr00"/>
      <point x="-815" y="-413" type="line" name="sv01"/>
      <point x="-789" y="-277" type="line"/>
      <point x="-299" y="-277" type="line" name="dv02"/>
      <point x="-325" y="-413" type="line" name="sv02"/>
      <point x="-502" y="-413" type="line"/>
      <point x="-537" y="-590" type="line" name="dv01"/>
      <point x="-673" y="-590" type="line"/>
    </contour>
  </outline>
</glyph>
<glyph name="uni031F" format="1">
  <advance width="0"/>
  <unicode hex="031F"/>
  <outline>
    <contour>
      <point x="-682" y="-590" type="line" name="dv03"/>
      <point x="-859" y="-590" type="line"/>
      <point x="-832" y="-454" type="line" name="sv01"/>
      <point x="-655" y="-454" type="line" name="dv04"/>
      <point x="-621" y="-277" type="line" name="sv02"/>
      <point x="-485" y="-277" type="line"/>
      <point x="-519" y="-454" type="line" name="dv02"/>
      <point x="-342" y="-454" type="line"/>
      <point x="-369" y="-590" type="line" name="sv03"/>
      <point x="-546" y="-590" type="line"/>
      <point x="-580" y="-767" type="line" name="dv01"/>
      <point x="-716" y="-767" type="line"/>
    </contour>
  </outline>
</glyph>
<glyph name="uni0320" format="1">
  <advance width="0"/>
  <unicode hex="0320"/>
  <outline>
    <contour>
      <point x="-848" y="-277" type="line" name="hr00"/>
      <point x="-358" y="-277" type="line" name="dv02"/>
      <point x="-385" y="-413" type="line" name="dv01"/>
      <point x="-875" y="-413" type="line"/>
    </contour>
  </outline>
</glyph>
<glyph name="uni0322" format="1">
  <advance width="0"/>
  <unicode hex="0322"/>
  <outline>
    <contour>
      <point x="-888" y="-426" type="line" smooth="yes" name="dv01"/>
      <point x="-1071" y="-426" name="dh01"/>
      <point x="-1166" y="-329"/>
      <point x="-1166" y="-146" type="curve" smooth="yes" name="av01"/>
      <point x="-1166" y="-107"/>
      <point x="-1162" y="-67"/>
      <point x="-1153" y="-20" type="curve" smooth="yes" name="dh02"/>
      <point x="-1124" y="128" type="line" name="dv02"/>
      <point x="-939" y="128" type="line"/>
      <point x="-968" y="-20" type="line" smooth="yes" name="sv01"/>
      <point x="-975" y="-56"/>
      <point x="-978" y="-87"/>
      <point x="-978" y="-115" type="curve" smooth="yes"/>
      <point x="-978" y="-218"/>
      <point x="-931" y="-270"/>
      <point x="-837" y="-270" type="curve" smooth="yes"/>
      <point x="-652" y="-270" type="line"/>
      <point x="-683" y="-426" type="line"/>
    </contour>
  </outline>
</glyph>
<glyph name="uni0325" format="1">
  <advance width="0"/>
  <unicode hex="0325"/>
  <outline>
    <contour>
      <point x="-863" y="-502" type="curve" name="ab01" smooth="yes"/>
      <point x="-971" y="-502" name="sh01"/>
      <point x="-1039" y="-426" name="dv02"/>
      <point x="-1039" y="-322" type="curve" name="sh02" smooth="yes"/>
      <point x="-1039" y="-173"/>
      <point x="-897" y="-63" name="sv01"/>
      <point x="-768" y="-63" type="curve" name="ah02" smooth="yes"/>
      <point x="-661" y="-63" name="dv01"/>
      <point x="-591" y="-139" name="sh03"/>
      <point x="-591" y="-243" type="curve" smooth="yes"/>
      <point x="-591" y="-391" name="ah01"/>
      <point x="-732" y="-502"/>
    </contour>
    <contour>
      <point x="-843" y="-404" type="curve" smooth="yes"/>
      <point x="-771" y="-404"/>
      <point x="-691" y="-343"/>
      <point x="-691" y="-261" type="curve" smooth="yes"/>
      <point x="-691" y="-204"/>
      <point x="-730" y="-161"/>
      <point x="-790" y="-161" type="curve" smooth="yes"/>
      <point x="-859" y="-161"/>
      <point x="-939" y="-221"/>
      <point x="-939" y="-305" type="curve" smooth="yes"/>
      <point x="-939" y="-362"/>
      <point x="-903" y="-404"/>
    </contour>
  </outline>
</glyph>
<glyph name="uni0326" format="1">
  <advance width="0"/>
  <unicode hex="0326"/>
  <outline>
    <contour>
      <point x="-898" y="-197" type="line" name="av02"/>
      <point x="-659" y="-197" type="line"/>
      <point x="-913" y="-542" type="line" name="av01"/>
      <point x="-1059" y="-542" type="line"/>
    </contour>
  </outline>
</glyph>
<glyph name="uni0327" format="1">
  <advance width="0"/>
  <unicode hex="0327"/>
  <outline>
    <contour>
      <point x="-867" y="-395" type="curve" smooth="yes" name="dv01"/>
      <point x="-924" y="-395"/>
      <point x="-987" y="-385"/>
      <point x="-1051" y="-365" type="curve" name="dv02"/>
      <point x="-1026" y="-236" type="line" name="dh01"/>
      <point x="-973" y="-261" name="ab01"/>
      <point x="-925" y="-274"/>
      <point x="-878" y="-274" type="curve" smooth="yes" name="dh02"/>
      <point x="-791" y="-274"/>
      <point x="-739" y="-230"/>
      <point x="-739" y="-162" type="curve" smooth="yes"/>
      <point x="-739" y="-122"/>
      <point x="-758" y="-72"/>
      <point x="-797" y="0" type="curve"/>
      <point x="-678" y="0" type="line"/>
      <point x="-627" y="-89"/>
      <point x="-606" y="-143"/>
      <point x="-606" y="-198" type="curve" smooth="yes"/>
      <point x="-606" y="-314"/>
      <point x="-707" y="-395"/>
    </contour>
  </outline>
</glyph>
<glyph name="uni0328" format="1">
  <advance width="0"/>
  <unicode hex="0328"/>
  <outline>
    <contour>
      <point x="-787" y="-395" type="curve" name="dv01" smooth="yes"/>
      <point x="-918" y="-395" name="dh01"/>
      <point x="-992" y="-338" name="ab01"/>
      <point x="-992" y="-245" type="curve" smooth="yes"/>
      <point x="-992" y="-170" name="dh02"/>
      <point x="-944" y="-93" name="dv02"/>
      <point x="-840" y="0" type="curve"/>
      <point x="-721" y="0" type="line"/>
      <point x="-802" y="-77"/>
      <point x="-846" y="-144"/>
      <point x="-846" y="-200" type="curve" smooth="yes"/>
      <point x="-846" y="-247"/>
      <point x="-814" y="-272"/>
      <point x="-750" y="-272" type="curve" smooth="yes"/>
      <point x="-711" y="-272"/>
      <point x="-666" y="-262"/>
      <point x="-623" y="-242" type="curve"/>
      <point x="-648" y="-375" type="line"/>
      <point x="-694" y="-388"/>
      <point x="-740" y="-395"/>
    </contour>
  </outline>
</glyph>
<glyph name="uni032A" format="1">
  <advance width="0"/>
  <unicode hex="032A"/>
  <outline>
    <contour>
      <point x="-860" y="-209" type="line" name="hr00"/>
      <point x="-309" y="-209" type="line" name="dv02"/>
      <point x="-373" y="-539" type="line" name="dv01"/>
      <point x="-510" y="-539" type="line"/>
      <point x="-472" y="-345" type="line" name="sv01"/>
      <point x="-749" y="-345" type="line"/>
      <point x="-787" y="-539" type="line" name="sv02"/>
      <point x="-924" y="-539" type="line"/>
    </contour>
  </outline>
</glyph>
<glyph name="uni032B" format="1">
  <advance width="0"/>
  <unicode hex="032B"/>
  <outline>
    <contour>
      <point x="-820" y="-455" type="curve" smooth="yes" name="dv01"/>
      <point x="-944" y="-455" name="dh01"/>
      <point x="-1006" y="-387" name="sh01"/>
      <point x="-1006" y="-250" type="curve" smooth="yes" name="sh02"/>
      <point x="-1006" y="-227" name="sv01"/>
      <point x="-1004" y="-201" name="dh02"/>
      <point x="-1000" y="-173" type="curve" name="dv02"/>
      <point x="-999" y="-172" name="sv02"/>
      <point x="-999" y="-171"/>
      <point x="-999" y="-168" type="curve" name="sh03"/>
      <point x="-882" y="-168" type="line" name="sv03"/>
      <point x="-883" y="-181" name="sv04"/>
      <point x="-884" y="-194"/>
      <point x="-884" y="-206" type="curve" smooth="yes" name="sv05"/>
      <point x="-884" y="-281" name="ih01"/>
      <point x="-854" y="-318"/>
      <point x="-794" y="-318" type="curve" smooth="yes"/>
      <point x="-726" y="-318"/>
      <point x="-677" y="-268"/>
      <point x="-648" y="-168" type="curve"/>
      <point x="-530" y="-168" type="line"/>
      <point x="-531" y="-179"/>
      <point x="-532" y="-188"/>
      <point x="-532" y="-199" type="curve" smooth="yes"/>
      <point x="-532" y="-279"/>
      <point x="-492" y="-318"/>
      <point x="-444" y="-318" type="curve" smooth="yes"/>
      <point x="-389" y="-318"/>
      <point x="-327" y="-268"/>
      <point x="-296" y="-168" type="curve"/>
      <point x="-178" y="-168" type="line"/>
      <point x="-226" y="-365"/>
      <point x="-329" y="-455"/>
      <point x="-469" y="-455" type="curve" smooth="yes"/>
      <point x="-546" y="-455"/>
      <point x="-599" y="-428"/>
      <point x="-628" y="-373" type="curve"/>
      <point x="-679" y="-428"/>
      <point x="-743" y="-455"/>
    </contour>
  </outline>
</glyph>
<glyph name="uni032F" format="1">
  <advance width="0"/>
  <unicode hex="032F"/>
  <outline>
    <contour>
      <point x="-1168" y="-485" type="line" name="sv01"/>
      <point x="-1116" y="-294" name="dv02"/>
      <point x="-993" y="-198" name="dh02"/>
      <point x="-798" y="-198" type="curve" name="sh01" smooth="yes"/>
      <point x="-606" y="-198" name="dv01"/>
      <point x="-538" y="-293" name="dh01"/>
      <point x="-538" y="-430" type="curve" name="sv02" smooth="yes"/>
      <point x="-538" y="-448" name="sv03"/>
      <point x="-539" y="-466"/>
      <point x="-541" y="-485" type="curve"/>
      <point x="-660" y="-485" type="line"/>
      <point x="-660" y="-472" type="line" smooth="yes"/>
      <point x="-660" y="-384"/>
      <point x="-708" y="-335"/>
      <point x="-824" y="-335" type="curve" smooth="yes"/>
      <point x="-943" y="-335"/>
      <point x="-1013" y="-386"/>
      <point x="-1049" y="-485" type="curve"/>
    </contour>
  </outline>
</glyph>
<glyph name="uni0330" format="1">
  <advance width="0"/>
  <unicode hex="0330"/>
  <outline>
    <contour>
      <point x="-699" y="-487" type="curve" smooth="yes" name="av01"/>
      <point x="-744" y="-487"/>
      <point x="-789" y="-474"/>
      <point x="-844" y="-418" type="curve" smooth="yes" name="dv01"/>
      <point x="-891" y="-369" type="line" smooth="yes" name="av02"/>
      <point x="-915" y="-344" name="sv01"/>
      <point x="-940" y="-332" name="dv02"/>
      <point x="-965" y="-332" type="curve" smooth="yes"/>
      <point x="-1021" y="-332"/>
      <point x="-1048" y="-388" name="sv02"/>
      <point x="-1059" y="-485" type="curve" name="sv03"/>
      <point x="-1184" y="-485" type="line"/>
      <point x="-1161" y="-306"/>
      <point x="-1088" y="-203"/>
      <point x="-961" y="-203" type="curve" smooth="yes"/>
      <point x="-908" y="-203"/>
      <point x="-866" y="-221"/>
      <point x="-815" y="-272" type="curve" smooth="yes"/>
      <point x="-768" y="-319" type="line" smooth="yes"/>
      <point x="-741" y="-346"/>
      <point x="-725" y="-358"/>
      <point x="-698" y="-358" type="curve" smooth="yes"/>
      <point x="-644" y="-358"/>
      <point x="-611" y="-306"/>
      <point x="-600" y="-203" type="curve"/>
      <point x="-475" y="-203" type="line"/>
      <point x="-499" y="-390"/>
      <point x="-572" y="-487"/>
    </contour>
  </outline>
</glyph>
<glyph name="uni0335" format="1">
  <advance width="0"/>
  <unicode hex="0335"/>
  <outline>
    <contour>
      <point x="-1091" y="616" type="line" name="hr00"/>
      <point x="-171" y="616" type="line" name="dv02"/>
      <point x="-171" y="452" type="line" name="dv01"/>
      <point x="-1091" y="452" type="line"/>
    </contour>
  </outline>
</glyph>
<glyph name="uni0336" format="1">
  <advance width="0"/>
  <unicode hex="0336"/>
  <outline>
    <contour>
      <point x="-1233" y="616" type="line" name="hr00"/>
      <point x="0" y="616" type="line" name="dv02"/>
      <point x="0" y="452" type="line" name="dv01"/>
      <point x="-1233" y="452" type="line"/>
    </contour>
  </outline>
</glyph>
<glyph name="uni0337" format="1">
  <advance width="0"/>
  <unicode hex="0337"/>
  <outline>
    <contour>
      <point x="-1297" y="-20" type="line" name="hr00"/>
      <point x="-24" y="1212" type="line" name="av02"/>
      <point x="54" y="1135" type="line"/>
      <point x="-1220" y="-96" type="line" name="av01"/>
    </contour>
  </outline>
</glyph>
<glyph name="uni0339" format="1">
  <advance width="0"/>
  <unicode hex="0339"/>
  <outline>
    <contour>
      <point x="-950" y="-404" type="line" name="sv01"/>
      <point x="-882" y="-404" name="dh01"/>
      <point x="-801" y="-343"/>
      <point x="-801" y="-261" type="curve" name="sv02" smooth="yes"/>
      <point x="-801" y="-209" name="dh02"/>
      <point x="-834" y="-161" name="ab01"/>
      <point x="-902" y="-161" type="curve"/>
      <point x="-883" y="-63" type="line"/>
      <point x="-759" y="-63"/>
      <point x="-701" y="-150"/>
      <point x="-701" y="-243" type="curve" smooth="yes"/>
      <point x="-701" y="-391"/>
      <point x="-845" y="-502"/>
      <point x="-969" y="-502" type="curve"/>
    </contour>
  </outline>
</glyph>
<glyph name="uni033F" format="1">
  <advance width="0"/>
  <unicode hex="033F"/>
  <outline>
    <contour>
      <point x="0" y="1307" type="line" name="dv02"/>
      <point x="0" y="1227" type="line" name="dv01"/>
      <point x="-1233" y="1227" type="line"/>
      <point x="-1233" y="1307" type="line"/>
    </contour>
  </outline>
</glyph>
<glyph name="uni0358" format="1">
  <advance width="0"/>
  <unicode hex="0358"/>
  <outline>
    <contour>
      <point x="90" y="1552" type="line" name="hr00"/>
      <point x="295" y="1552" type="line" name="dv02"/>
      <point x="254" y="1348" type="line" name="dv01"/>
      <point x="49" y="1348" type="line"/>
    </contour>
  </outline>
</glyph>
<glyph name="tonos" format="1">
  <advance width="1233"/>
  <unicode hex="0384"/>
  <outline>
    <contour>
      <point x="907" y="1638" type="line" name="av02"/>
      <point x="1126" y="1638" type="line"/>
      <point x="731" y="1262" type="line" name="av01"/>
      <point x="575" y="1262" type="line"/>
    </contour>
  </outline>
</glyph>
<glyph name="Upsilontonos" format="1">
  <advance width="1233"/>
  <unicode hex="038E"/>
  <outline>
    <contour>
      <point x="-8" y="1638" type="line" name="hr00"/>
      <point x="211" y="1638" type="line" name="sv02"/>
      <point x="-184" y="1262" type="line"/>
      <point x="-340" y="1262" type="line" name="iv01"/>
    </contour>
    <contour>
      <point x="496" y="650" type="line" smooth="yes"/>
      <point x="509" y="715" name="dh01"/>
      <point x="515" y="787"/>
      <point x="515" y="860" type="curve" smooth="yes" name="sv01"/>
      <point x="515" y="1057" name="sv03"/>
      <point x="470" y="1255" name="at01"/>
      <point x="388" y="1297" type="curve" name="at02"/>
      <point x="340" y="1320" name="at03"/>
      <point x="290" y="1332" name="dh02"/>
      <point x="239" y="1332" type="curve" smooth="yes" name="at04"/>
      <point x="212" y="1332" name="at05"/>
      <point x="185" y="1329"/>
      <point x="157" y="1323" type="curve"/>
      <point x="190" y="1493" type="line"/>
      <point x="215" y="1501" name="iv02"/>
      <point x="246" y="1504"/>
      <point x="281" y="1504" type="curve" smooth="yes" name="ab01"/>
      <point x="320" y="1504"/>
      <point x="366" y="1501"/>
      <point x="417" y="1490" type="curve"/>
      <point x="592" y="1458"/>
      <point x="678" y="1309"/>
      <point x="675" y="1044" type="curve"/>
      <point x="802" y="1306"/>
      <point x="946" y="1455"/>
      <point x="1105" y="1490" type="curve"/>
      <point x="1124" y="1495"/>
      <point x="1143" y="1497"/>
      <point x="1164" y="1497" type="curve" smooth="yes"/>
      <point x="1257" y="1497"/>
      <point x="1335" y="1445"/>
      <point x="1335" y="1352" type="curve" smooth="yes"/>
      <point x="1335" y="1316"/>
      <point x="1323" y="1273"/>
      <point x="1295" y="1224" type="curve" smooth="yes"/>
      <point x="1268" y="1179"/>
      <point x="1224" y="1157"/>
      <point x="1181" y="1157" type="curve" smooth="yes"/>
      <point x="1115" y="1157"/>
      <point x="1051" y="1205"/>
      <point x="1059" y="1297" type="curve"/>
      <point x="887" y="1193"/>
      <point x="743" y="869"/>
      <point x="699" y="650" type="curve"/>
      <point x="573" y="0" type="line"/>
      <point x="370" y="0" type="line"/>
    </contour>
  </outline>
</glyph>
<glyph name="Beta" format="1">
  <advance width="1233"/>
  <unicode hex="0392"/>
  <outline>
    <contour>
      <point x="313" y="1493" type="line" name="at01"/>
      <point x="756" y="1493" type="line" smooth="yes"/>
      <point x="1028" y="1493" name="sh02"/>
      <point x="1167" y="1387" name="iv01"/>
      <point x="1167" y="1178" type="curve" name="dh02" smooth="yes"/>
      <point x="1167" y="975" name="ab01"/>
      <point x="1035" y="826"/>
      <point x="827" y="799" type="curve" name="dv02"/>
      <point x="1008" y="763" name="sh01"/>
      <point x="1085" y="653" name="sv01"/>
      <point x="1085" y="482" type="curve" smooth="yes"/>
      <point x="1085" y="189"/>
      <point x="862" y="0" name="sv02"/>
      <point x="475" y="0" type="curve" name="dh01" smooth="yes"/>
      <point x="23" y="0" type="line" name="dv01"/>
    </contour>
    <contour>
      <point x="639" y="877" type="line" smooth="yes"/>
      <point x="839" y="877"/>
      <point x="963" y="980"/>
      <point x="963" y="1148" type="curve" name="sh03" smooth="yes"/>
      <point x="963" y="1273"/>
      <point x="894" y="1327"/>
      <point x="727" y="1327" type="curve" smooth="yes"/>
      <point x="483" y="1327" type="line"/>
      <point x="395" y="877" type="line"/>
    </contour>
    <contour>
      <point x="506" y="166" type="line" smooth="yes"/>
      <point x="750" y="166"/>
      <point x="885" y="291"/>
      <point x="885" y="492" type="curve" smooth="yes"/>
      <point x="885" y="647"/>
      <point x="805" y="713"/>
      <point x="606" y="713" type="curve" smooth="yes"/>
      <point x="365" y="713" type="line"/>
      <point x="258" y="166" type="line"/>
    </contour>
  </outline>
</glyph>
<glyph name="Beta" format="1">
  <advance width="1233"/>
  <unicode hex="0392"/>
  <outline>
    <contour>
      <point x="313" y="1493" type="line" name="at01"/>
      <point x="756" y="1493" type="line" smooth="yes"/>
      <point x="1028" y="1493" name="sh02"/>
      <point x="1167" y="1387" name="iv01"/>
      <point x="1167" y="1178" type="curve" smooth="yes" name="dh02"/>
      <point x="1167" y="975" name="ab01"/>
      <point x="1035" y="826"/>
      <point x="827" y="799" type="curve" name="dv02"/>
      <point x="1008" y="763" name="sh01"/>
      <point x="1085" y="653" name="sv01"/>
      <point x="1085" y="482" type="curve" smooth="yes"/>
      <point x="1085" y="189"/>
      <point x="862" y="0" name="sv02"/>
      <point x="475" y="0" type="curve" smooth="yes" name="dh01"/>
      <point x="23" y="0" type="line" name="dv01"/>
    </contour>
    <contour>
      <point x="639" y="877" type="line" smooth="yes"/>
      <point x="839" y="877"/>
      <point x="963" y="980"/>
      <point x="963" y="1148" type="curve" smooth="yes" name="sh03"/>
      <point x="963" y="1273"/>
      <point x="894" y="1327"/>
      <point x="727" y="1327" type="curve" smooth="yes"/>
      <point x="483" y="1327" type="line"/>
      <point x="395" y="877" type="line"/>
    </contour>
    <contour>
      <point x="506" y="166" type="line" smooth="yes"/>
      <point x="750" y="166"/>
      <point x="885" y="291"/>
      <point x="885" y="492" type="curve" smooth="yes"/>
      <point x="885" y="647"/>
      <point x="805" y="713"/>
      <point x="606" y="713" type="curve" smooth="yes"/>
      <point x="365" y="713" type="line"/>
      <point x="258" y="166" type="line"/>
    </contour>
  </outline>
</glyph>
<glyph name="Gamma" format="1">
  <advance width="1233"/>
  <unicode hex="0393"/>
  <outline>
    <contour>
      <point x="360" y="1493" type="line" name="at01"/>
      <point x="1284" y="1493" type="line"/>
      <point x="1251" y="1323" type="line" name="sv01"/>
      <point x="530" y="1323" type="line"/>
      <point x="273" y="0" type="line" name="ab01"/>
      <point x="70" y="0" type="line"/>
    </contour>
  </outline>
</glyph>
<glyph name="Omicron" format="1">
  <advance width="1233"/>
  <unicode hex="039F"/>
  <outline>
    <contour>
      <point x="480" y="-29" type="curve" smooth="yes" name="dv01"/>
      <point x="215" y="-29" name="sh01"/>
      <point x="82" y="134"/>
      <point x="82" y="459" type="curve" smooth="yes"/>
      <point x="82" y="544"/>
      <point x="90" y="632" name="at01"/>
      <point x="105" y="722" type="curve" smooth="yes" name="sh02"/>
      <point x="121" y="812"/>
      <point x="142" y="896"/>
      <point x="167" y="975" type="curve" smooth="yes"/>
      <point x="208" y="1104" name="dv02"/>
      <point x="256" y="1200"/>
      <point x="304" y="1272" type="curve" smooth="yes" name="ah02"/>
      <point x="416" y="1439" name="sv01"/>
      <point x="560" y="1520"/>
      <point x="751" y="1520" type="curve" smooth="yes" name="sh03"/>
      <point x="1019" y="1520"/>
      <point x="1151" y="1362" name="ah01"/>
      <point x="1151" y="1037" type="curve" smooth="yes" name="sh04"/>
      <point x="1151" y="876"/>
      <point x="1117" y="683"/>
      <point x="1064" y="516" type="curve" smooth="yes"/>
      <point x="1024" y="391"/>
      <point x="976" y="292"/>
      <point x="927" y="219" type="curve" smooth="yes"/>
      <point x="814" y="48"/>
      <point x="667" y="-29"/>
    </contour>
    <contour>
      <point x="497" y="135" type="curve" smooth="yes"/>
      <point x="628" y="135"/>
      <point x="712" y="209"/>
      <point x="778" y="333" type="curve" smooth="yes"/>
      <point x="878" y="521"/>
      <point x="944" y="841"/>
      <point x="944" y="1060" type="curve" smooth="yes"/>
      <point x="944" y="1236"/>
      <point x="901" y="1356"/>
      <point x="734" y="1356" type="curve" smooth="yes"/>
      <point x="603" y="1356"/>
      <point x="522" y="1283"/>
      <point x="455" y="1159" type="curve" smooth="yes"/>
      <point x="355" y="972"/>
      <point x="287" y="651"/>
      <point x="287" y="432" type="curve" smooth="yes"/>
      <point x="287" y="247"/>
      <point x="334" y="135"/>
    </contour>
  </outline>
</glyph>
<glyph name="Phi" format="1">
  <advance width="1233"/>
  <unicode hex="03A6"/>
  <outline>
    <contour>
      <point x="255" y="170" type="line" name="sv01"/>
      <point x="402" y="170" type="line"/>
      <point x="424" y="286" type="line"/>
      <point x="230" y="307" name="sh01"/>
      <point x="103" y="396" name="sh02"/>
      <point x="103" y="608" type="curve" smooth="yes"/>
      <point x="103" y="649" name="sv02"/>
      <point x="106" y="694"/>
      <point x="117" y="745" type="curve" name="at01"/>
      <point x="178" y="1060"/>
      <point x="366" y="1181" name="sv03"/>
      <point x="603" y="1205" type="curve" name="sv04"/>
      <point x="626" y="1323" type="line"/>
      <point x="479" y="1323" type="line" name="sh03"/>
      <point x="512" y="1493" type="line" name="sh04"/>
      <point x="1009" y="1493" type="line"/>
      <point x="976" y="1323" type="line" name="sv05"/>
      <point x="829" y="1323" type="line" name="sv06"/>
      <point x="806" y="1205" type="line" name="ab01"/>
      <point x="1001" y="1184"/>
      <point x="1128" y="1092" name="ih01"/>
      <point x="1128" y="880" type="curve" smooth="yes"/>
      <point x="1128" y="840" name="sh05"/>
      <point x="1125" y="796"/>
      <point x="1114" y="745" type="curve"/>
      <point x="1053" y="433" name="ih02"/>
      <point x="868" y="310"/>
      <point x="627" y="286" type="curve" name="ah02"/>
      <point x="605" y="170" type="line"/>
      <point x="752" y="170" type="line"/>
      <point x="719" y="0" type="line" name="ah01"/>
      <point x="222" y="0" type="line" name="sh06"/>
    </contour>
    <contour>
      <point x="569" y="1029" type="line"/>
      <point x="520" y="1018"/>
      <point x="472" y="999"/>
      <point x="439" y="971" type="curve" smooth="yes"/>
      <point x="367" y="907"/>
      <point x="318" y="767"/>
      <point x="318" y="651" type="curve" smooth="yes"/>
      <point x="318" y="596"/>
      <point x="329" y="551"/>
      <point x="352" y="520" type="curve"/>
      <point x="375" y="492"/>
      <point x="412" y="473"/>
      <point x="459" y="462" type="curve"/>
    </contour>
    <contour>
      <point x="662" y="462" type="line"/>
      <point x="711" y="473"/>
      <point x="759" y="492"/>
      <point x="792" y="520" type="curve" smooth="yes"/>
      <point x="865" y="582"/>
      <point x="912" y="726"/>
      <point x="912" y="841" type="curve" smooth="yes"/>
      <point x="912" y="896"/>
      <point x="902" y="942"/>
      <point x="879" y="971" type="curve" smooth="yes"/>
      <point x="856" y="999"/>
      <point x="819" y="1018"/>
      <point x="772" y="1029" type="curve"/>
    </contour>
  </outline>
</glyph>
<glyph name="Iotadieresis" format="1">
  <advance width="1233"/>
  <unicode hex="03AA"/>
  <outline>
    <contour>
      <point x="506" y="1647" type="line" smooth="yes" name="dv01"/>
      <point x="486" y="1647"/>
      <point x="475" y="1660"/>
      <point x="479" y="1680" type="curve" smooth="yes" name="dv02"/>
      <point x="507" y="1823" type="line" smooth="yes"/>
      <point x="510" y="1841"/>
      <point x="520" y="1850"/>
      <point x="539" y="1850" type="curve" smooth="yes"/>
      <point x="683" y="1850" type="line" smooth="yes" name="sv01"/>
      <point x="704" y="1850"/>
      <point x="713" y="1837"/>
      <point x="709" y="1817" type="curve" smooth="yes" name="sv02"/>
      <point x="680" y="1674" type="line" smooth="yes"/>
      <point x="676" y="1656"/>
      <point x="665" y="1647"/>
      <point x="648" y="1647" type="curve" smooth="yes"/>
    </contour>
    <contour>
      <point x="897" y="1647" type="line" smooth="yes" name="sv03"/>
      <point x="877" y="1647"/>
      <point x="866" y="1660" name="sv04"/>
      <point x="870" y="1680" type="curve" smooth="yes"/>
      <point x="898" y="1823" type="line" smooth="yes" name="at01"/>
      <point x="901" y="1841"/>
      <point x="911" y="1850" name="sv05"/>
      <point x="930" y="1850" type="curve" smooth="yes" name="sv06"/>
      <point x="1073" y="1850" type="line" smooth="yes" name="sv07"/>
      <point x="1093" y="1850" name="sv08"/>
      <point x="1104" y="1837" name="ab01"/>
      <point x="1100" y="1817" type="curve" smooth="yes"/>
      <point x="1072" y="1674" type="line" smooth="yes"/>
      <point x="1069" y="1656"/>
      <point x="1058" y="1647"/>
      <point x="1040" y="1647" type="curve" smooth="yes"/>
    </contour>
    <contour>
      <point x="90" y="170" type="line"/>
      <point x="403" y="170" type="line"/>
      <point x="627" y="1323" type="line"/>
      <point x="313" y="1323" type="line"/>
      <point x="346" y="1493" type="line"/>
      <point x="1176" y="1493" type="line"/>
      <point x="1143" y="1323" type="line"/>
      <point x="829" y="1323" type="line"/>
      <point x="606" y="170" type="line"/>
      <point x="920" y="170" type="line"/>
      <point x="887" y="0" type="line"/>
      <point x="57" y="0" type="line"/>
    </contour>
  </outline>
</glyph>
<glyph name="Upsilondieresis" format="1">
  <advance width="1233"/>
  <unicode hex="03AB"/>
  <outline>
    <contour>
      <point x="506" y="1647" type="line" smooth="yes" name="dv01"/>
      <point x="486" y="1647"/>
      <point x="475" y="1660"/>
      <point x="479" y="1680" type="curve" smooth="yes" name="dv02"/>
      <point x="507" y="1823" type="line" smooth="yes"/>
      <point x="510" y="1841"/>
      <point x="520" y="1850"/>
      <point x="539" y="1850" type="curve" smooth="yes"/>
      <point x="683" y="1850" type="line" smooth="yes" name="sv01"/>
      <point x="704" y="1850"/>
      <point x="713" y="1837"/>
      <point x="709" y="1817" type="curve" smooth="yes" name="sv02"/>
      <point x="680" y="1674" type="line" smooth="yes"/>
      <point x="676" y="1656"/>
      <point x="665" y="1647"/>
      <point x="648" y="1647" type="curve" smooth="yes"/>
    </contour>
    <contour>
      <point x="897" y="1647" type="line" smooth="yes"/>
      <point x="877" y="1647" name="dh01"/>
      <point x="866" y="1660"/>
      <point x="870" y="1680" type="curve" smooth="yes" name="sv03"/>
      <point x="898" y="1823" type="line" smooth="yes" name="sv04"/>
      <point x="901" y="1841" name="at01"/>
      <point x="911" y="1850" name="at02"/>
      <point x="930" y="1850" type="curve" smooth="yes" name="at03"/>
      <point x="1073" y="1850" type="line" smooth="yes" name="dh02"/>
      <point x="1093" y="1850" name="at04"/>
      <point x="1104" y="1837" name="at05"/>
      <point x="1100" y="1817" type="curve" smooth="yes"/>
      <point x="1072" y="1674" type="line" smooth="yes"/>
      <point x="1069" y="1656" name="sv05"/>
      <point x="1058" y="1647" name="iv01"/>
      <point x="1040" y="1647" type="curve" smooth="yes"/>
    </contour>
    <contour>
      <point x="496" y="650" type="line" smooth="yes" name="ab01"/>
      <point x="509" y="715"/>
      <point x="515" y="787"/>
      <point x="515" y="860" type="curve" smooth="yes"/>
      <point x="515" y="1057"/>
      <point x="470" y="1255"/>
      <point x="388" y="1297" type="curve"/>
      <point x="340" y="1320"/>
      <point x="290" y="1332"/>
      <point x="239" y="1332" type="curve" smooth="yes"/>
      <point x="212" y="1332"/>
      <point x="185" y="1329"/>
      <point x="157" y="1323" type="curve"/>
      <point x="190" y="1493" type="line"/>
      <point x="215" y="1501"/>
      <point x="246" y="1504"/>
      <point x="281" y="1504" type="curve" smooth="yes"/>
      <point x="320" y="1504"/>
      <point x="366" y="1501"/>
      <point x="417" y="1490" type="curve"/>
      <point x="592" y="1458"/>
      <point x="678" y="1309"/>
      <point x="675" y="1044" type="curve"/>
      <point x="802" y="1306"/>
      <point x="946" y="1455"/>
      <point x="1105" y="1490" type="curve"/>
      <point x="1124" y="1495"/>
      <point x="1143" y="1497"/>
      <point x="1164" y="1497" type="curve" smooth="yes"/>
      <point x="1257" y="1497"/>
      <point x="1335" y="1445"/>
      <point x="1335" y="1352" type="curve" smooth="yes"/>
      <point x="1335" y="1316"/>
      <point x="1323" y="1273"/>
      <point x="1295" y="1224" type="curve" smooth="yes"/>
      <point x="1268" y="1179"/>
      <point x="1224" y="1157"/>
      <point x="1181" y="1157" type="curve" smooth="yes"/>
      <point x="1115" y="1157"/>
      <point x="1051" y="1205"/>
      <point x="1059" y="1297" type="curve"/>
      <point x="887" y="1193"/>
      <point x="743" y="869"/>
      <point x="699" y="650" type="curve"/>
      <point x="573" y="0" type="line"/>
      <point x="370" y="0" type="line"/>
    </contour>
  </outline>
</glyph>
<glyph name="iotatonos" format="1">
  <advance width="1233"/>
  <unicode hex="03AF"/>
  <outline>
    <contour>
      <point x="887" y="1648" type="line" name="av01"/>
      <point x="1106" y="1648" type="line"/>
      <point x="711" y="1272" type="line"/>
      <point x="555" y="1272" type="line" name="ih01"/>
    </contour>
    <contour>
      <point x="716" y="-5" type="line" smooth="yes" name="ab01"/>
      <point x="523" y="-5" name="dh01"/>
      <point x="434" y="73"/>
      <point x="434" y="249" type="curve" smooth="yes" name="sv01"/>
      <point x="434" y="292"/>
      <point x="440" y="342" name="at01"/>
      <point x="451" y="401" type="curve" smooth="yes"/>
      <point x="561" y="977" type="line"/>
      <point x="351" y="977" type="line" name="dh02"/>
      <point x="379" y="1120" type="line" name="sv02"/>
      <point x="777" y="1120" type="line"/>
      <point x="636" y="390" type="line" smooth="yes"/>
      <point x="626" y="339"/>
      <point x="621" y="297"/>
      <point x="621" y="265" type="curve" smooth="yes"/>
      <point x="621" y="177"/>
      <point x="661" y="151"/>
      <point x="768" y="151" type="curve" smooth="yes"/>
      <point x="856" y="151" type="line"/>
      <point x="826" y="-5" type="line"/>
    </contour>
  </outline>
</glyph>
<glyph name="beta" format="1">
  <advance width="1233"/>
  <unicode hex="03B2"/>
  <outline>
    <contour>
      <point x="258" y="1113" type="line" name="hr00" smooth="yes"/>
      <point x="320" y="1434" name="at01"/>
      <point x="552" y="1574" name="sh01"/>
      <point x="761" y="1574" type="curve" name="sh02" smooth="yes"/>
      <point x="958" y="1574" name="iv01"/>
      <point x="1136" y="1451" name="dh02"/>
      <point x="1136" y="1240" type="curve" smooth="yes"/>
      <point x="1136" y="1221" name="ab01"/>
      <point x="1135" y="1203" name="iv02"/>
      <point x="1132" y="1184" type="curve" name="av01" smooth="yes"/>
      <point x="1111" y="1034"/>
      <point x="1012" y="869"/>
      <point x="887" y="810" type="curve" name="sv01"/>
      <point x="1039" y="779" name="sh03"/>
      <point x="1108" y="694" name="dh01"/>
      <point x="1108" y="553" type="curve" name="dv01" smooth="yes"/>
      <point x="1108" y="522" name="sv02"/>
      <point x="1105" y="489" name="sv03"/>
      <point x="1098" y="453" type="curve" name="dv02" smooth="yes"/>
      <point x="1045" y="153"/>
      <point x="824" y="-21" name="ih01"/>
      <point x="523" y="-21" type="curve" name="sv04" smooth="yes"/>
      <point x="438" y="-21"/>
      <point x="362" y="-8"/>
      <point x="240" y="69" type="curve" name="sh04"/>
      <point x="144" y="-426" type="line"/>
      <point x="-41" y="-426" type="line"/>
    </contour>
    <contour>
      <point x="293" y="342" type="line"/>
      <point x="325" y="249"/>
      <point x="460" y="181"/>
      <point x="596" y="181" type="curve" smooth="yes"/>
      <point x="738" y="181"/>
      <point x="881" y="255"/>
      <point x="910" y="450" type="curve" smooth="yes"/>
      <point x="913" y="469"/>
      <point x="914" y="486"/>
      <point x="914" y="502" type="curve" smooth="yes"/>
      <point x="914" y="642"/>
      <point x="811" y="711"/>
      <point x="561" y="711" type="curve" smooth="yes"/>
      <point x="540" y="711"/>
      <point x="519" y="711"/>
      <point x="496" y="710" type="curve"/>
      <point x="529" y="880" type="line"/>
      <point x="538" y="880"/>
      <point x="547" y="879"/>
      <point x="556" y="879" type="curve" smooth="yes"/>
      <point x="684" y="879"/>
      <point x="779" y="919"/>
      <point x="846" y="979" type="curve" smooth="yes"/>
      <point x="918" y="1042"/>
      <point x="952" y="1124"/>
      <point x="952" y="1197" type="curve" smooth="yes"/>
      <point x="952" y="1317"/>
      <point x="854" y="1384"/>
      <point x="745" y="1384" type="curve" smooth="yes"/>
      <point x="620" y="1384"/>
      <point x="479" y="1298"/>
      <point x="442" y="1107" type="curve" smooth="yes"/>
    </contour>
  </outline>
</glyph>
<glyph name="theta" format="1">
  <advance width="1233"/>
  <unicode hex="03B8"/>
  <outline>
    <contour>
      <point x="497" y="-29" type="curve" name="dv01" smooth="yes"/>
      <point x="257" y="-29" name="sh01"/>
      <point x="134" y="128"/>
      <point x="134" y="429" type="curve" smooth="yes"/>
      <point x="134" y="518" name="at01"/>
      <point x="145" y="621" name="sh02"/>
      <point x="167" y="736" type="curve" smooth="yes"/>
      <point x="216" y="989"/>
      <point x="294" y="1175" name="dv04"/>
      <point x="401" y="1304" type="curve" name="ah02" smooth="yes"/>
      <point x="508" y="1435" name="sv01"/>
      <point x="639" y="1500"/>
      <point x="793" y="1500" type="curve" name="dv02" smooth="yes"/>
      <point x="1037" y="1500" name="dv03"/>
      <point x="1159" y="1341"/>
      <point x="1159" y="1040" type="curve" name="sh03" smooth="yes"/>
      <point x="1159" y="950"/>
      <point x="1148" y="849" name="ah01"/>
      <point x="1126" y="736" type="curve" name="sh04" smooth="yes"/>
      <point x="1028" y="230"/>
      <point x="804" y="-29"/>
    </contour>
    <contour>
      <point x="947" y="828" type="line"/>
      <point x="959" y="903"/>
      <point x="966" y="970"/>
      <point x="966" y="1033" type="curve" smooth="yes"/>
      <point x="966" y="1221"/>
      <point x="906" y="1342"/>
      <point x="764" y="1342" type="curve" smooth="yes"/>
      <point x="577" y="1342"/>
      <point x="449" y="1129"/>
      <point x="382" y="828" type="curve"/>
    </contour>
    <contour>
      <point x="528" y="129" type="curve" smooth="yes"/>
      <point x="716" y="129"/>
      <point x="847" y="345"/>
      <point x="911" y="644" type="curve"/>
      <point x="346" y="644" type="line"/>
      <point x="334" y="569"/>
      <point x="327" y="501"/>
      <point x="327" y="440" type="curve" smooth="yes"/>
      <point x="327" y="251"/>
      <point x="387" y="129"/>
    </contour>
  </outline>
</glyph>
<glyph name="iota" format="1">
  <advance width="1233"/>
  <unicode hex="03B9"/>
  <outline>
    <contour>
      <point x="756" y="-5" type="line" name="ab01" smooth="yes"/>
      <point x="563" y="-5" name="dh01"/>
      <point x="474" y="73"/>
      <point x="474" y="249" type="curve" name="sv01" smooth="yes"/>
      <point x="474" y="292"/>
      <point x="480" y="342" name="at01"/>
      <point x="491" y="401" type="curve" smooth="yes"/>
      <point x="601" y="977" type="line"/>
      <point x="391" y="977" type="line" name="dh02"/>
      <point x="419" y="1120" type="line" name="sv02"/>
      <point x="817" y="1120" type="line" name="sv03"/>
      <point x="676" y="390" type="line" name="ab02" smooth="yes"/>
      <point x="666" y="339"/>
      <point x="661" y="297"/>
      <point x="661" y="265" type="curve" smooth="yes"/>
      <point x="661" y="177"/>
      <point x="701" y="151"/>
      <point x="808" y="151" type="curve" smooth="yes"/>
      <point x="896" y="151" type="line"/>
      <point x="866" y="-5" type="line"/>
    </contour>
  </outline>
</glyph>
<glyph name="lambda" format="1">
  <advance width="1233"/>
  <unicode hex="03BB"/>
  <outline>
    <contour>
      <point x="666" y="1074" type="line" name="hr00"/>
      <point x="631" y="1272" type="line" smooth="yes"/>
      <point x="616" y="1356" name="sv01"/>
      <point x="557" y="1398"/>
      <point x="454" y="1398" type="curve" smooth="yes" name="at01"/>
      <point x="405" y="1398" type="line"/>
      <point x="436" y="1556" type="line"/>
      <point x="505" y="1554" type="line" smooth="yes" name="ab01"/>
      <point x="687" y="1549"/>
      <point x="788" y="1491" name="iv01"/>
      <point x="808" y="1381" type="curve" smooth="yes" name="ab02"/>
      <point x="1056" y="0" type="line"/>
      <point x="861" y="0" type="line"/>
      <point x="708" y="828" type="line"/>
      <point x="161" y="0" type="line"/>
      <point x="-34" y="0" type="line"/>
    </contour>
  </outline>
</glyph>
